<?xml version="1.0" standalone="no"?>
<!DOCTYPE svg PUBLIC "-//W3C//DTD SVG 1.1//EN" "http://www.w3.org/Graphics/SVG/1.1/DTD/svg11.dtd" >
<svg>
<metadata>
Created by FontForge 20090622 at Tue Jan 16 11:55:54 2018
 By deploy user
Copyright (c) 2012 by Epiphany Solutions. All rights reserved. Made exclusively for Epiphany Solutions Ltd., to use as they please.
</metadata>
<defs>
<font id="SciFly-Sans" horiz-adv-x="570" >
  <font-face 
    font-family="SciFly"
    font-weight="400"
    font-stretch="normal"
    units-per-em="1000"
    panose-1="2 0 6 6 3 0 0 2 0 4"
    ascent="750"
    descent="-250"
    x-height="450"
    cap-height="680"
    bbox="-41 -240 903 913.1"
    underline-thickness="20"
    underline-position="-120"
    unicode-range="U+0020-U+FB06"
  />
<missing-glyph horiz-adv-x="520" 
d="M75 0q-14 0 -24.5 10.5t-10.5 24.5v610q0 14 10.5 24.5t24.5 10.5h380q14 0 24.5 -10.5t10.5 -24.5v-610q0 -14 -10.5 -24.5t-24.5 -10.5h-380zM415 592q0 11 -3.5 14.5t-14.5 3.5h-264q-11 0 -14.5 -3.5t-3.5 -14.5v-504q0 -11 3.5 -14.5t14.5 -3.5h264q11 0 14.5 3.5
t3.5 14.5v504zM238 256q-14 0 -22 8t-8 22v62q0 14 8 22t22 8h22q22 0 22 23v30q0 22 -22 22q-14 0 -17 -5q-11 -12 -22 -10t-19 10l-13 12q-9 8 -9 22t9 22q12 11 28.5 19t42.5 8q46 0 74 -29t28 -71v-30q0 -43 -21.5 -66t-44.5 -28q-5 -2 -6.5 -2.5t-1.5 -5.5v-13
q0 -14 -8 -22t-22 -8h-20zM236 136q-14 0 -22 8t-8 22v30q0 14 8 22t22 8h23q14 0 22 -8t8 -22v-30q0 -14 -8 -22t-22 -8h-23z" />
    <glyph glyph-name="ffi" unicode="ffi" horiz-adv-x="850" 
d="M720 0q-14 0 -22 8t-8 22v325q0 10 -10 10h-180q-10 0 -10 -10v-325q0 -14 -8 -22t-22 -8h-30q-14 0 -22 8t-8 22v325q0 10 -10 10h-180q-10 0 -10 -10v-325q0 -14 -8 -22t-22 -8h-30q-14 0 -22 8t-8 22v325q0 10 -10 10h-50q-14 0 -22 8t-8 22v25q0 14 8 22t22 8h50
q10 0 10 10v50q0 36 11 67.5t32 54t51 35.5t67 13h19q14 0 22 -8t8 -22v-25q0 -14 -8 -22t-22 -8h-15q-38 0 -56.5 -23t-18.5 -62v-50q0 -10 10 -10h180q10 0 10 10v50q0 36 11 67.5t32 54t51 35.5t67 13h19q14 0 22 -8t8 -22v-25q0 -14 -8 -22t-22 -8h-15q-38 0 -56.5 -23
t-18.5 -62v-50q0 -10 10 -10h250q14 0 22 -8t8 -22v-390q0 -14 -8 -22t-22 -8h-30zM720 520q-14 0 -22 8t-8 22v50q0 14 8 22t22 8h30q14 0 22 -8t8 -22v-50q0 -14 -8 -22t-22 -8h-30z" />
    <glyph glyph-name="ffl" unicode="ffl" horiz-adv-x="865" 
d="M801 0q-64 0 -92.5 35t-28.5 95v225q0 10 -10 10h-185q-10 0 -10 -10v-325q0 -14 -8 -22t-22 -8h-30q-14 0 -22 8t-8 22v325q0 10 -10 10h-165q-10 0 -10 -10v-325q0 -14 -8 -22t-22 -8h-30q-14 0 -22 8t-8 22v325q0 10 -10 10h-50q-14 0 -22 8t-8 22v25q0 14 8 22t22 8
h50q10 0 10 10v50q0 36 11 67.5t32 54t51 35.5t67 13h19q14 0 22 -8t8 -22v-25q0 -14 -8 -22t-22 -8h-15q-38 0 -56.5 -23t-18.5 -62v-50q0 -10 10 -10h165q10 0 10 10v50q0 36 11 67.5t32 54t51 35.5t67 13h19q14 0 22 -8t8 -22v-25q0 -14 -8 -22t-22 -8h-15
q-38 0 -56.5 -23t-18.5 -62v-50q0 -10 10 -10h185q10 0 10 10v190q0 14 8 22t22 8h30q14 0 22 -8t8 -22v-530q0 -16 9 -25.5t26 -9.5h10q14 0 22 -8t8 -22v-25q0 -14 -8 -22t-22 -8h-14z" />
    <glyph glyph-name="fi" unicode="fi" horiz-adv-x="560" 
d="M430 520q-14 0 -22 8t-8 22v50q0 14 8 22t22 8h30q14 0 22 -8t8 -22v-50q0 -14 -8 -22t-22 -8h-30zM430 0q-14 0 -22 8t-8 22v325q0 10 -10 10h-180q-10 0 -10 -10v-325q0 -14 -8 -22t-22 -8h-30q-14 0 -22 8t-8 22v325q0 10 -10 10h-50q-14 0 -22 8t-8 22v25q0 14 8 22
t22 8h50q10 0 10 10v50q0 36 11 67.5t32 54t51 35.5t67 13h19q14 0 22 -8t8 -22v-25q0 -14 -8 -22t-22 -8h-15q-38 0 -56.5 -23t-18.5 -62v-50q0 -10 10 -10h250q14 0 22 -8t8 -22v-390q0 -14 -8 -22t-22 -8h-30z" />
    <glyph glyph-name="fl" unicode="fl" horiz-adv-x="585" 
d="M521 0q-64 0 -92.5 35t-28.5 95v225q0 10 -10 10h-180q-10 0 -10 -10v-325q0 -14 -8 -22t-22 -8h-30q-14 0 -22 8t-8 22v325q0 10 -10 10h-50q-14 0 -22 8t-8 22v25q0 14 8 22t22 8h50q10 0 10 10v50q0 36 11 67.5t32 54t51 35.5t67 13h19q14 0 22 -8t8 -22v-25
q0 -14 -8 -22t-22 -8h-15q-38 0 -56.5 -23t-18.5 -62v-50q0 -10 10 -10h180q10 0 10 10v190q0 14 8 22t22 8h30q14 0 22 -8t8 -22v-530q0 -16 9 -25.5t26 -9.5h10q14 0 22 -8t8 -22v-25q0 -14 -8 -22t-22 -8h-14z" />
    <glyph glyph-name=".notdef" horiz-adv-x="520" 
d="M75 0q-14 0 -24.5 10.5t-10.5 24.5v610q0 14 10.5 24.5t24.5 10.5h380q14 0 24.5 -10.5t10.5 -24.5v-610q0 -14 -10.5 -24.5t-24.5 -10.5h-380zM415 592q0 11 -3.5 14.5t-14.5 3.5h-264q-11 0 -14.5 -3.5t-3.5 -14.5v-504q0 -11 3.5 -14.5t14.5 -3.5h264q11 0 14.5 3.5
t3.5 14.5v504zM238 256q-14 0 -22 8t-8 22v62q0 14 8 22t22 8h22q22 0 22 23v30q0 22 -22 22q-14 0 -17 -5q-11 -12 -22 -10t-19 10l-13 12q-9 8 -9 22t9 22q12 11 28.5 19t42.5 8q46 0 74 -29t28 -71v-30q0 -43 -21.5 -66t-44.5 -28q-5 -2 -6.5 -2.5t-1.5 -5.5v-13
q0 -14 -8 -22t-22 -8h-20zM236 136q-14 0 -22 8t-8 22v30q0 14 8 22t22 8h23q14 0 22 -8t8 -22v-30q0 -14 -8 -22t-22 -8h-23z" />
    <glyph glyph-name="NUL" horiz-adv-x="520" 
d="M75 0q-14 0 -24.5 10.5t-10.5 24.5v610q0 14 10.5 24.5t24.5 10.5h380q14 0 24.5 -10.5t10.5 -24.5v-610q0 -14 -10.5 -24.5t-24.5 -10.5h-380zM415 592q0 11 -3.5 14.5t-14.5 3.5h-264q-11 0 -14.5 -3.5t-3.5 -14.5v-504q0 -11 3.5 -14.5t14.5 -3.5h264q11 0 14.5 3.5
t3.5 14.5v504zM238 256q-14 0 -22 8t-8 22v62q0 14 8 22t22 8h22q22 0 22 23v30q0 22 -22 22q-14 0 -17 -5q-11 -12 -22 -10t-19 10l-13 12q-9 8 -9 22t9 22q12 11 28.5 19t42.5 8q46 0 74 -29t28 -71v-30q0 -43 -21.5 -66t-44.5 -28q-5 -2 -6.5 -2.5t-1.5 -5.5v-13
q0 -14 -8 -22t-22 -8h-20zM236 136q-14 0 -22 8t-8 22v30q0 14 8 22t22 8h23q14 0 22 -8t8 -22v-30q0 -14 -8 -22t-22 -8h-23z" />
    <glyph glyph-name="nonmarkingreturn" horiz-adv-x="280" 
 />
    <glyph glyph-name="space" unicode=" " horiz-adv-x="280" 
 />
    <glyph glyph-name="onehalf" unicode="&#xbd;" horiz-adv-x="953" 
d="M79 213q-13 0 -21 8t-8 21v27q0 14 8 21.5t21 7.5h74q9 0 9 9v279q0 9 -9 9h-74q-13 0 -21 7.5t-8 21.5v26q0 14 8 22t21 8h142q14 0 21.5 -8t7.5 -22v-343q0 -9 10 -9h67q13 0 21 -7.5t8 -21.5v-27q0 -13 -8 -21t-21 -8h-248zM614 0q-13 0 -21 8t-8 22v23q0 10 3 15.5
t11 13.5l110 116l39 42t26 32.5t14.5 28t4.5 30.5q0 26 -15.5 42t-42.5 16q-21 0 -37.5 -8.5t-30.5 -21.5q-8 -9 -19.5 -9.5t-21.5 9.5l-18 18q-10 10 -9.5 21t9.5 20q26 26 54.5 40.5t72.5 14.5q31 0 57.5 -11.5t46 -31t30.5 -45t11 -54.5q0 -20 -5 -40t-16.5 -41.5
t-30.5 -45.5t-46 -53l-53 -56q-5 -4 -2.5 -7t7.5 -3h140q29 0 29 -29v-26q0 -14 -7.5 -22t-21.5 -8h-260zM347 0q-13 0 -18 7.5t-1 19.5l197 630q7 23 32 23h35q13 0 18 -7.5t1 -19.5l-197 -630q-7 -23 -32 -23h-35z" />
    <glyph glyph-name="onequarter" unicode="&#xbc;" horiz-adv-x="935" 
d="M79 213q-13 0 -21 8t-8 21v27q0 14 8 21.5t21 7.5h73q9 0 9 9v279q0 9 -9 9h-73q-13 0 -21 7.5t-8 21.5v26q0 14 8 22t21 8h142q14 0 21.5 -8t7.5 -22v-343q0 -9 9 -9h67q29 0 29 -29v-27q0 -13 -7.5 -21t-21.5 -8h-247zM750 0q-14 0 -21.5 8t-7.5 22v85q0 9 -10 9h-126
q-13 0 -21 8t-8 22v33q0 9 3 17.5t10 19.5l157 241q7 10 17 12.5t24 -6.5l21 -14q24 -15 9 -39l-132 -200q-5 -9 5 -9h41q5 0 7.5 3t2.5 6v26q0 29 29 29h29q29 0 29 -29v-26q0 -3 2.5 -6t7.5 -3h37q13 0 21 -8t8 -21v-26q0 -14 -8 -22t-21 -8h-37q-10 0 -10 -9v-85
q0 -14 -7.5 -22t-21.5 -8h-29zM347 0q-13 0 -18 7.5t-1 19.5l197 630q7 23 32 23h35q13 0 18 -7.5t1 -19.5l-197 -630q-7 -23 -32 -23h-35z" />
    <glyph glyph-name="onesuperior" unicode="&#xb9;" horiz-adv-x="435" 
d="M92 214q-13 0 -21 7.5t-8 21.5v26q0 14 8 21.5t21 7.5h73q10 0 10 10v278q0 10 -10 10h-73q-13 0 -21 7.5t-8 21.5v26q0 14 8 21.5t21 7.5h142q29 0 29 -29v-343q0 -10 9 -10h67q29 0 29 -29v-26q0 -29 -29 -29h-247z" />
    <glyph glyph-name="threequarters" unicode="&#xbe;" horiz-adv-x="897" 
d="M711 0q-29 0 -29 29v85q0 10 -9 10h-126q-29 0 -29 29v33q0 9 2.5 17.5t10.5 19.5l157 241q6 10 16 12.5t24 -5.5l22 -14q24 -16 8 -40l-131 -199q-3 -5 -1 -7.5t5 -2.5h42q9 0 9 10v25q0 29 29 29h29q14 0 22 -7.5t8 -21.5v-25q0 -10 9 -10h38q12 0 20.5 -8t8.5 -21v-26
q0 -14 -8.5 -21.5t-20.5 -7.5h-38q-9 0 -9 -10v-85q0 -14 -8 -21.5t-22 -7.5h-29zM80 201q-13 0 -21 8t-8 21v26q0 14 8 21.5t21 7.5h85q27 0 45 17.5t18 42.5q0 27 -18.5 45t-44.5 18h-56q-14 0 -21.5 8t-7.5 21v26q0 29 29 29h56q25 0 39 16.5t14 38.5t-16 35.5t-37 13.5
h-75q-14 0 -21.5 8t-7.5 21v26q0 29 29 29h75q28 0 54 -10.5t45 -28.5t30.5 -42.5t11.5 -51.5q0 -23 -7.5 -40t-16 -28.5t-16 -18.5t-7.5 -9t4 -5q16 -10 34 -35t18 -66q0 -31 -11.5 -57.5t-32 -45.5t-48 -30t-58.5 -11h-85zM307 0q-13 0 -18 7.5t-1 19.5l197 630
q7 23 32 23h35q13 0 18 -7.5t1 -19.5l-197 -630q-7 -23 -32 -23h-35z" />
    <glyph glyph-name="threesuperior" unicode="&#xb3;" horiz-adv-x="373" 
d="M84 200q-14 0 -22 8.5t-8 20.5v27q0 14 8 21.5t22 7.5h84q27 0 45 17t18 42q0 28 -18.5 45.5t-44.5 17.5h-56q-14 0 -21.5 8t-7.5 21v27q0 13 7.5 21t21.5 8h56q25 0 39 16t14 38t-16 35.5t-37 13.5h-75q-14 0 -21.5 8t-7.5 21v27q0 13 7.5 21t21.5 8h75q28 0 54 -10.5
t45 -28.5t30.5 -42.5t11.5 -52.5q0 -23 -7.5 -40t-16 -28.5t-16 -18.5t-7.5 -9q0 -1 4 -4q16 -11 34.5 -35.5t18.5 -66.5q0 -31 -12 -57.5t-32 -45.5t-48 -30t-59 -11h-84z" />
    <glyph glyph-name="twosuperior" unicode="&#xb2;" horiz-adv-x="416" 
d="M78 217q-13 0 -21 7.5t-8 21.5v24q0 10 3 15.5t11 13.5l110 115l39 42t26 33t14.5 28.5t4.5 30.5q0 26 -15.5 41.5t-41.5 15.5q-22 0 -38.5 -8t-30.5 -22q-8 -8 -19.5 -8.5t-21.5 8.5l-18 19q-10 9 -9.5 20.5t9.5 19.5q26 27 54.5 41.5t73.5 14.5q31 0 57 -11.5t45.5 -31
t30.5 -45t11 -54.5q0 -41 -21.5 -82t-76.5 -99l-53 -55q-5 -5 -2.5 -7.5t7.5 -2.5h140q14 0 21.5 -8t7.5 -21v-27q0 -29 -29 -29h-260z" />
    <glyph glyph-name="brokenbar" unicode="&#xa6;" horiz-adv-x="255" 
d="M110 377q-14 0 -22 8t-8 22v293q0 14 8 22t22 8h35q14 0 22 -8t8 -22v-293q0 -14 -8 -22t-22 -8h-35zM110 -50q-14 0 -22 8t-8 22v293q0 14 8 22t22 8h35q14 0 22 -8t8 -22v-293q0 -14 -8 -22t-22 -8h-35z" />
    <glyph glyph-name="minus" unicode="&#x2212;" 
d="M115 297q-14 0 -22 8t-8 22v25q0 14 8 22t22 8h338q14 0 22 -8t8 -22v-25q0 -14 -8 -22t-22 -8h-338z" />
    <glyph glyph-name="multiply" unicode="&#xd7;" 
d="M411 183q-8 -8 -18 -8t-18 8l-78 77q-10 9 -20 0l-78 -77q-18 -18 -36 0l-28 28q-18 18 0 36l77 78q9 10 0 20l-77 78q-8 8 -8 18t8 18l24 25q8 8 18.5 8t18.5 -8l78 -78q10 -10 20 0l77 78q8 8 18.5 8t18.5 -8l28 -28q8 -8 8 -18.5t-8 -18.5l-78 -77q-10 -10 0 -20
l78 -78q8 -8 8 -18.5t-8 -18.5z" />
    <glyph glyph-name="thorn" unicode="&#xfe;" horiz-adv-x="480" 
d="M340 280q0 38 -25 61.5t-60 23.5h-95q-10 0 -10 -8v-262q0 -10 10 -10h95q38 0 61.5 23.5t23.5 61.5v110zM90 -230q-14 0 -22 8t-8 22v850q0 14 8 22t22 8h30q14 0 22 -8t8 -22v-190q0 -10 10 -10h95q39 0 71.5 -13t55.5 -35.5t35.5 -54t12.5 -67.5v-110q0 -36 -13 -67.5
t-35.5 -54t-54 -35.5t-68.5 -13h-99q-10 0 -10 -10v-190q0 -14 -8 -22t-22 -8h-30z" />
    <glyph glyph-name="exclam" unicode="!" horiz-adv-x="270" 
d="M130 200q-14 0 -21.5 8t-8.5 22l-20 420q-1 15 7.5 22.5t22.5 7.5h50q14 0 22.5 -8t7.5 -22l-20 -420q-1 -13 -8.5 -21.5t-21.5 -8.5h-10zM117 0q-14 0 -22 8t-8 22v60q0 14 8 22t22 8h35q14 0 22 -8t8 -22v-60q0 -14 -8 -22t-22 -8h-35z" />
    <glyph glyph-name="quotedbl" unicode="&#x22;" horiz-adv-x="380" 
d="M100 460q-14 0 -22 8t-8 22v160q0 14 8 22t22 8h30q14 0 22 -8t8 -22v-160q0 -14 -8 -22t-22 -8h-30zM250 460q-14 0 -22 8t-8 22v160q0 14 8 22t22 8h30q14 0 22 -8t8 -22v-160q0 -14 -8 -22t-22 -8h-30z" />
    <glyph glyph-name="numbersign" unicode="#" 
d="M331 0q-14 0 -22 8t-6 22l13 150q1 10 -9 10h-70q-10 0 -11 -10l-13 -150q-2 -14 -10 -22t-22 -8h-30q-14 0 -22 8t-6 22l13 150q1 10 -9 10h-47q-14 0 -22 8t-8 22v35q0 14 8 22t22 8h56q9 0 10 10l7 80q1 10 -9 10h-54q-14 0 -22 8t-8 22v35q0 14 8 22t22 8h63
q9 0 10 10l14 160q2 14 10.5 22t22.5 8h30q14 0 21.5 -8t5.5 -22l-14 -160q-1 -10 10 -10h70q9 0 10 10l14 160q2 14 10.5 22t22.5 8h30q14 0 21.5 -8t5.5 -22l-14 -160q-1 -10 10 -10h47q14 0 22 -8t8 -22v-35q0 -14 -8 -22t-22 -8h-56q-10 0 -11 -10l-7 -80q-1 -10 10 -10
h54q14 0 22 -8t8 -22v-35q0 -14 -8 -22t-22 -8h-63q-10 0 -11 -10l-13 -150q-2 -14 -10 -22t-22 -8h-30zM333 375q1 10 -9 10h-70q-10 0 -11 -10l-7 -80q-1 -10 10 -10h70q9 0 10 10z" />
    <glyph glyph-name="dollar" unicode="$" 
d="M244 -60q-14 0 -22 8t-8 22v11q0 12 -11 13q-43 7 -74.5 23.5t-57.5 42.5q-8 8 -9 20t9 22l29 29q10 10 21.5 9t20.5 -9q19 -17 46.5 -29t66.5 -12q48 0 74.5 23.5t26.5 61.5q0 36 -25.5 65t-85.5 58q-38 18 -68.5 38.5t-51.5 45t-32.5 54t-11.5 67.5q0 28 8.5 54.5
t24 50t38 41.5t50.5 28q12 4 12 16v27q0 14 8 22t22 8h40q14 0 22 -8t8 -22v-22q0 -12 8 -13q43 -8 74.5 -25.5t48.5 -34.5q21 -21 0 -42l-31 -31q-10 -10 -19 -10.5t-21 10.5q-13 12 -36.5 25t-65.5 13q-38 0 -64.5 -22.5t-26.5 -64.5q0 -18 5.5 -32.5t18 -27.5t33 -25.5
t51.5 -25.5q82 -36 127 -86.5t45 -130.5q0 -63 -39 -109.5t-99 -65.5q-7 -2 -8 -6t-1 -9v-15q0 -14 -8 -22t-22 -8h-40z" />
    <glyph glyph-name="percent" unicode="%" 
d="M185 566q0 15 -10.5 24.5t-26.5 9.5t-26.5 -9.5t-10.5 -24.5v-80q0 -15 10.5 -24.5t26.5 -9.5t26.5 9.5t10.5 24.5v80zM459 184q0 15 -10.5 24.5t-26.5 9.5t-26.5 -9.5t-10.5 -24.5v-80q0 -15 10.5 -24.5t26.5 -9.5t26.5 9.5t10.5 24.5v80zM79 0q-14 0 -20 7.5t2 20.5
l314 552q5 8 2 14.5t-12 6.5h-79q-16 0 -16 -16v-94q0 -51 -33.5 -85t-88.5 -34t-88.5 34t-33.5 85v70q0 25 10 47t26.5 38t38.5 25t47 9h346q16 0 23 -10t-2 -26l-352 -620q-14 -24 -42 -24h-42zM544 109q0 -51 -33.5 -85t-88.5 -34t-88.5 34t-33.5 85v70q0 51 33.5 85
t88.5 34t88.5 -34t33.5 -85v-70z" />
    <glyph glyph-name="ampersand" unicode="&#x26;" horiz-adv-x="560" 
d="M230 0q-41 0 -75.5 13.5t-60 38.5t-40 58.5t-14.5 74.5q0 57 25.5 97.5t60.5 61.5q8 5 8 10.5t-5 10.5q-20 21 -34.5 51t-14.5 69q0 40 15.5 76t41.5 62t61.5 41.5t76.5 15.5h75q14 0 22 -8t8 -22v-35q0 -14 -8 -22t-22 -8h-78q-40 0 -68.5 -29t-28.5 -76t28.5 -73
t68.5 -26h233q14 0 22 -8t8 -22v-30q0 -14 -8 -22t-22 -8h-60q-10 0 -10 -10v-251q0 -14 -8 -22t-22 -8h-175zM340 281q0 10 -10 10h-103q-40 0 -66 -28.5t-26 -72.5t26 -69.5t66 -25.5h103q10 0 10 10v176z" />
    <glyph glyph-name="quotesingle" unicode="'" horiz-adv-x="230" 
d="M100 460q-14 0 -22 8t-8 22v160q0 14 8 22t22 8h30q14 0 22 -8t8 -22v-160q0 -14 -8 -22t-22 -8h-30z" />
    <glyph glyph-name="parenleft" unicode="(" horiz-adv-x="280" 
d="M221 -180q-32 0 -59.5 10.5t-48 30t-32 47.5t-11.5 62v630q0 34 11.5 62t32 47.5t48 30t59.5 10.5h14q14 0 22 -8t8 -22v-30q0 -14 -8 -22t-22 -8h-15q-55 0 -55 -55v-640q0 -55 55 -55h15q14 0 22 -8t8 -22v-30q0 -14 -8 -22t-22 -8h-14z" />
    <glyph glyph-name="parenright" unicode=")" horiz-adv-x="280" 
d="M45 -180q-14 0 -22 8t-8 22v30q0 14 8 22t22 8h15q55 0 55 55v640q0 55 -55 55h-15q-14 0 -22 8t-8 22v30q0 14 8 22t22 8h14q32 0 59.5 -10.5t48 -30t32 -47.5t11.5 -62v-630q0 -34 -11.5 -62t-32 -47.5t-48 -30t-59.5 -10.5h-14z" />
    <glyph glyph-name="asterisk" unicode="*" horiz-adv-x="500" 
d="M298 276q-11 -3 -19 0.5t-11 13.5l-39 122q-4 12 -12 5l-104 -75q-8 -6 -17.5 -4.5t-15.5 9.5l-17 23q-15 20 6 34l102 73q11 8 2 15l-104 77q-17 14 -5 32l16 23q6 9 15.5 10t17.5 -5l103 -76q11 -8 14 3l39 122q8 21 30 15l27 -8q23 -7 15 -30l-39 -122q-3 -11 7 -11
h128q24 0 24 -24v-28q0 -11 -6.5 -17.5t-17.5 -6.5h-128q-4 0 -7 -2.5t-1 -7.5l39 -123q3 -10 -0.5 -18t-14.5 -11z" />
    <glyph glyph-name="plus" unicode="+" 
d="M268 138q-11 0 -18.5 7t-7.5 19v109q-1 14 -14 15h-110q-26 0 -26 26v39q0 26 26 26h110q13 1 14 15v109q0 12 7.5 18.5t18.5 7.5h34q11 1 19 -6.5t8 -19.5v-110q0 -14 14 -14h109q11 0 19 -7.5t8 -18.5v-39q0 -11 -8 -18.5t-19 -7.5h-109q-14 0 -14 -14v-110
q0 -12 -8 -19.5t-19 -6.5h-34z" />
    <glyph glyph-name="comma" unicode="," horiz-adv-x="235" 
d="M89 -109q-13 -17 -36 -2l-19 13q-20 13 -6 37l38 65q4 8 4 18v68q0 14 8 22t22 8h35q14 0 22 -8t8 -22v-70q0 -14 -3.5 -24.5t-12.5 -23.5z" />
    <glyph glyph-name="hyphen" unicode="-" horiz-adv-x="360" 
d="M100 205q-14 0 -22 8t-8 22v25q0 14 8 22t22 8h160q14 0 22 -8t8 -22v-25q0 -14 -8 -22t-22 -8h-160z" />
    <glyph glyph-name="period" unicode="." horiz-adv-x="235" 
d="M100 0q-14 0 -22 8t-8 22v60q0 14 8 22t22 8h35q14 0 22 -8t8 -22v-60q0 -14 -8 -22t-22 -8h-35z" />
    <glyph glyph-name="slash" unicode="/" horiz-adv-x="328" 
d="M25 -50q-29 0 -21 28l228 728q7 24 34 24h37q29 0 21 -28l-228 -728q-7 -24 -34 -24h-37z" />
    <glyph glyph-name="zero" unicode="0" 
d="M359 540q7 11 4.5 24.5t-10.5 17.5q-14 8 -31 13t-37 5q-32 0 -56.5 -11t-41 -30t-24.5 -44.5t-8 -54.5v-205q0 -25 12 -26t21 14zM415 427q0 23 -11.5 24.5t-20.5 -14.5l-168 -290q-12 -21 -8 -34t12 -18q27 -15 66 -15q32 0 56.5 11t41 30t24.5 44.5t8 54.5v207z
M510 215q0 -47 -16 -88t-45.5 -71.5t-71 -48t-92.5 -17.5t-92.5 17.5t-71 48t-45.5 71.5t-16 88v250q0 47 16 88t45.5 71.5t71 48t92.5 17.5t92.5 -17.5t71 -48t45.5 -71.5t16 -88v-250z" />
    <glyph glyph-name="one" unicode="1" 
d="M110 0q-14 0 -22 8t-8 22v30q0 14 8 22t22 8h130q10 0 10 10v480q0 10 -10 10h-130q-14 0 -22 8t-8 22v30q0 14 8 22t22 8h205q14 0 22 -8t8 -22v-550q0 -10 10 -10h120q14 0 22 -8t8 -22v-30q0 -14 -8 -22t-22 -8h-365z" />
    <glyph glyph-name="two" unicode="2" 
d="M87 0q-14 0 -22 8t-8 22v36q0 12 3.5 18t13.5 16l170 172l67 70t43.5 52.5t23.5 44t7 44.5q0 28 -9.5 50t-26 37t-38.5 22.5t-47 7.5q-36 0 -71 -18.5t-58 -41.5q-8 -8 -20 -9t-22 9l-21 24q-10 10 -9 21.5t9 20.5q38 39 83 61.5t109 22.5q45 0 84.5 -15t69 -42t46 -65
t16.5 -85q0 -33 -8 -62t-26.5 -59.5t-48 -65t-72.5 -77.5l-113 -113q-6 -6 -3 -11t12 -5h258q14 0 22 -8t8 -22v-30q0 -14 -8 -22t-22 -8h-392z" />
    <glyph glyph-name="three" unicode="3" 
d="M125 0q-14 0 -22 8t-8 22v30q0 14 8 22t22 8h166q24 0 44 9t34.5 24t23 35t8.5 42q0 48 -31.5 79t-78.5 31h-104q-14 0 -22 8t-8 22v30q0 14 8 22t22 8h104q22 0 39.5 8t30 21t19 30.5t6.5 36.5q0 20 -7.5 37t-20.5 30t-30.5 20t-36.5 7h-156q-14 0 -22 8t-8 22v30
q0 14 8 22t22 8h146q40 0 76.5 -13.5t64 -38t43.5 -58t16 -72.5q0 -26 -6.5 -46.5t-17 -36.5t-23.5 -28t-25 -20q-6 -5 -6 -9q0 -6 6 -9q15 -9 30 -22.5t28 -32t21 -42t8 -52.5q0 -44 -17 -81t-46 -63.5t-68 -41t-84 -14.5h-156z" />
    <glyph glyph-name="four" unicode="4" 
d="M339 0q-14 0 -22 8t-8 22v148q0 10 -10 10h-226q-14 0 -22 8t-8 22v41q0 22 18 50l239 374q7 11 19 12.5t23 -5.5l29 -17q11 -8 13 -19t-5 -23l-221 -337q-4 -6 -2 -11t11 -5h132q10 0 10 10v88q0 14 8 22t22 8h35q14 0 22 -8t8 -22v-88q0 -10 10 -10h74q14 0 22 -8
t8 -22v-30q0 -14 -8 -22t-22 -8h-74q-10 0 -10 -10v-148q0 -14 -8 -22t-22 -8h-35z" />
    <glyph glyph-name="five" unicode="5" 
d="M72 133q10 10 22 9.5t20 -9.5q21 -22 56.5 -37.5t74.5 -15.5q29 0 56 9.5t48 27.5t33.5 44t12.5 58q0 65 -42 98t-108 33h-105q-30 0 -30 26v274q0 14 8 22t22 8h263q14 0 22 -8t8 -22v-30q0 -14 -8 -22t-22 -8h-188q-10 0 -10 -10v-127q0 -14 16 -14h25q49 0 93 -14.5
t77.5 -42t53.5 -68.5t20 -95q0 -50 -20.5 -92t-54.5 -72.5t-78 -47.5t-92 -17q-41 0 -70.5 6t-52.5 16t-41 24t-34 30q-8 8 -9 20t9 22z" />
    <glyph glyph-name="six" unicode="6" 
d="M285 80q29 0 54 10t43 28t28 43t10 54t-10 54t-28 43t-43 28t-54 10t-54 -10t-43 -28t-28 -43t-10 -54t10 -54t28 -43t43 -28t54 -10zM276 449q-6 -11 6 -11q48 0 90 -16t74 -45t50.5 -70t18.5 -92q0 -48 -18 -89t-49.5 -71t-73 -47.5t-89.5 -17.5t-89.5 17.5t-72 47.5
t-48.5 71t-18 89q0 45 18 85.5t45 81.5l199 301q7 11 18 13t24 -6l27 -15q24 -16 8 -42z" />
    <glyph glyph-name="seven" unicode="7" 
d="M184 -2q-16 6 -19 16.5t3 23.5l242 536q7 16 -11 16h-316q-14 0 -22 8t-8 22v30q0 14 8 22t22 8h405q14 0 22 -8t8 -22v-40q0 -12 -3 -22t-8 -21l-247 -567q-5 -11 -15 -15t-25 1z" />
    <glyph glyph-name="eight" unicode="8" 
d="M283 395q24 0 43.5 8.5t33 23.5t21 34t7.5 40q0 22 -8.5 40.5t-23 31.5t-33.5 20t-40 7q-43 0 -74 -27.5t-31 -71.5q0 -21 7 -40t20.5 -34t33 -23.5t44.5 -8.5zM403 195q0 26 -9 48t-25.5 38t-38.5 25t-47 9q-26 0 -47.5 -9t-38 -25t-25.5 -38t-9 -48q0 -24 9 -45
t25.5 -36.5t38 -24.5t47.5 -9t48 9t38 24.5t25 36.5t9 45zM498 195q0 -44 -17 -81.5t-46 -65t-68 -43t-84 -15.5t-84.5 15.5t-68.5 43t-45.5 65t-16.5 81.5q0 28 8 52t21 43t28 33.5t30 23.5q4 2 4.5 8t-4.5 9q-13 9 -25.5 22.5t-23 31t-17 38.5t-6.5 45q0 39 16 73.5
t43.5 60t63.5 40.5t77 15q40 0 76.5 -15t64 -40.5t43.5 -60t16 -73.5q0 -26 -6.5 -47.5t-17 -38.5t-23.5 -29.5t-25 -20.5q-5 -4 -5.5 -9t5.5 -9q15 -9 30 -23t28 -33t21 -43t8 -53z" />
    <glyph glyph-name="nine" unicode="9" 
d="M422 465q0 29 -10 54t-28 43t-43 28t-54 10t-54 -10t-43 -28t-28 -43t-10 -54t10 -54t28 -43t43 -28t54 -10t54 10t43 28t28 43t10 54zM184 5q-14 8 -15 19t7 23l120 184q6 11 -6 11q-48 0 -90 16t-74 45t-50.5 70t-18.5 92q0 48 18 89t49.5 71t73 47.5t89.5 17.5
t89.5 -17.5t72 -47.5t48.5 -71t18 -89q0 -45 -18 -85.5t-45 -81.5l-199 -301q-14 -22 -42 -7z" />
    <glyph glyph-name="semicolon" unicode=";" horiz-adv-x="235" 
d="M89 -109q-13 -17 -36 -2l-19 13q-20 13 -6 37l38 65q4 8 4 18v68q0 14 8 22t22 8h35q14 0 22 -8t8 -22v-70q0 -14 -3.5 -24.5t-12.5 -23.5zM100 330q-14 0 -22 8t-8 22v60q0 14 8 22t22 8h35q14 0 22 -8t8 -22v-60q0 -14 -8 -22t-22 -8h-35z" />
    <glyph glyph-name="less" unicode="&#x3c;" 
d="M461 116q-6 -11 -18 -14.5t-23 3.5l-295 170q-11 7 -16 18.5t-5 22.5v35q0 15 4.5 24.5t16.5 16.5l294 170q12 7 23 3.5t18 -14.5l14 -27q7 -11 3.5 -23t-14.5 -18l-234 -132q-30 -16 0 -34l234 -135q12 -7 14.5 -18.5t-3.5 -22.5z" />
    <glyph glyph-name="equal" unicode="=" 
d="M115 391q-14 0 -22 8t-8 22v25q0 14 8 22t22 8h340q14 0 22 -8t8 -22v-25q0 -14 -8 -22t-22 -8h-340zM115 191q-14 0 -22 8t-8 22v25q0 14 8 22t22 8h340q14 0 22 -8t8 -22v-25q0 -14 -8 -22t-22 -8h-340z" />
    <glyph glyph-name="greater" unicode="&#x3e;" 
d="M167 105q-11 -7 -23 -3.5t-18 14.5l-13 25q-6 11 -3.5 22.5t14.5 18.5l234 135q30 18 0 34l-234 132q-11 6 -14.5 18t3.5 23l14 27q7 11 18 14.5t23 -3.5l294 -170q12 -7 16.5 -16.5t4.5 -24.5v-35q0 -11 -5 -22.5t-16 -18.5z" />
    <glyph glyph-name="question" unicode="?" horiz-adv-x="400" 
d="M104 0q-14 0 -22 8t-8 22v60q0 14 8 22t22 8h35q14 0 22 -8t8 -22v-60q0 -14 -8 -22t-22 -8h-35zM104 200q-14 0 -22 8t-8 22v130q0 14 8 22t22 8h81q45 0 72.5 29t27.5 73q0 22 -8.5 40t-22.5 31t-32 20t-37 7h-140q-14 0 -22 8t-8 22v30q0 14 8 22t22 8h130
q40 0 76.5 -13t64 -37t43.5 -58.5t16 -77.5t-16 -78t-43 -59.5t-62.5 -38t-74.5 -13.5q-10 0 -10 -10v-65q0 -14 -8 -22t-22 -8h-35z" />
    <glyph glyph-name="at" unicode="@" horiz-adv-x="590" 
d="M484 -128q10 -10 9 -22t-9 -20q-32 -32 -76 -51t-108 -19q-56 0 -100.5 18.5t-75.5 50.5t-47.5 76t-16.5 95v450q0 51 16.5 95t47.5 76t75.5 50.5t100.5 18.5q53 0 95.5 -17.5t72.5 -47.5t46 -70t16 -85v-440q0 -14 -8 -22t-22 -8h-109q-39 0 -71.5 13t-55.5 35.5
t-35.5 54t-12.5 67.5v110q0 36 13 67.5t35.5 54t54 35.5t68.5 13h43q10 0 10 10v20q0 27 -11 50t-30 39.5t-44.5 26t-54.5 9.5q-34 0 -61.5 -10.5t-47 -29.5t-30.5 -44.5t-11 -55.5v-480q0 -30 10.5 -55.5t30 -44.5t47 -29.5t62.5 -10.5q43 0 74 15t50 32q9 8 20.5 9
t21.5 -9zM440 355q0 10 -10 10h-49q-38 0 -56.5 -21.5t-18.5 -53.5v-130q0 -32 20 -53.5t55 -21.5h49q10 0 10 10v260z" />
    <glyph glyph-name="A" unicode="A" horiz-adv-x="580" 
d="M521 0q-10 -8 -22.5 -7t-23.5 7l-291 170q-7 4 -12.5 0t-7.5 -10l-41 -136q-7 -24 -34 -24h-49q-29 0 -21 28l200 625q5 16 13.5 21.5t22.5 5.5h70q14 0 22.5 -5.5t13.5 -21.5l191 -598q7 -23 -8 -36zM300 553q-3 11 -10 11t-10 -11l-79 -264q-4 -13 -1 -19.5t10 -10.5
l188 -110q11 -7 16 -1.5t3 12.5z" />
    <glyph glyph-name="B" unicode="B" horiz-adv-x="540" 
d="M100 0q-14 0 -22 8t-8 22v620q0 14 8 22t22 8h170q40 0 75.5 -14.5t62 -40t42 -60.5t15.5 -75q0 -36 -13 -67t-36 -57q-9 -10 2 -19q42 -31 64.5 -69.5t22.5 -87.5q0 -41 -15.5 -75.5t-42 -60t-62 -40t-75.5 -14.5h-210zM303 90q18 0 37 5.5t34.5 17.5t25.5 31t10 46
t-10 47t-25.5 32.5t-34.5 19t-37 6.5h-128q-10 0 -10 -10v-185q0 -10 10 -10h128zM263 385q18 0 37 6.5t34.5 19t25.5 32.5t10 47t-10 46t-25.5 31t-34.5 17.5t-37 5.5h-88q-10 0 -10 -10v-185q0 -10 10 -10h88z" />
    <glyph glyph-name="C" unicode="C" horiz-adv-x="520" 
d="M475 110q10 -10 9 -22t-9 -20q-32 -32 -75 -55t-111 -23q-49 0 -91 17.5t-72.5 49t-48 76t-17.5 97.5v220q0 52 17.5 96.5t48 76t72.5 49.5t91 18q33 0 60 -6.5t49 -16.5t38.5 -22.5t27.5 -23.5q21 -21 0 -42l-23 -23q-10 -10 -19 -10.5t-21 10.5q-13 12 -39.5 28
t-72.5 16q-32 0 -56.5 -11.5t-42 -32t-26.5 -48t-9 -58.5v-220q0 -67 35.5 -108.5t98.5 -41.5q44 0 74.5 16.5t49.5 33.5q9 8 20.5 9t21.5 -9z" />
    <glyph glyph-name="E" unicode="E" horiz-adv-x="530" 
d="M100 0q-14 0 -22 8t-8 22v620q0 14 8 22t22 8h330q14 0 22 -8t8 -22v-30q0 -14 -8 -22t-22 -8h-255q-10 0 -10 -10v-180q0 -10 10 -10h235q14 0 22 -8t8 -22v-30q0 -14 -8 -22t-22 -8h-235q-10 0 -10 -10v-190q0 -10 10 -10h275q14 0 22 -8t8 -22v-30q0 -14 -8 -22
t-22 -8h-350z" />
    <glyph glyph-name="F" unicode="F" horiz-adv-x="495" 
d="M100 0q-14 0 -22 8t-8 22v620q0 14 8 22t22 8h350q14 0 22 -8t8 -22v-30q0 -14 -8 -22t-22 -8h-275q-10 0 -10 -10v-190q0 -10 10 -10h235q14 0 22 -8t8 -22v-30q0 -14 -8 -22t-22 -8h-235q-10 0 -10 -10v-250q0 -14 -8 -22t-22 -8h-35z" />
    <glyph glyph-name="G" unicode="G" horiz-adv-x="550" 
d="M515 215q0 -51 -17 -92.5t-47.5 -71t-73 -45.5t-93.5 -16q-49 0 -90 17.5t-71 49t-46.5 76t-16.5 97.5v220q0 52 17.5 96.5t48 76t72.5 49.5t91 18q33 0 60 -6.5t49 -16.5t38.5 -22.5t27.5 -23.5q21 -21 0 -42l-23 -23q-10 -10 -19 -10.5t-21 10.5q-13 12 -39.5 28
t-72.5 16q-32 0 -56.5 -11.5t-42 -32t-26.5 -48t-9 -58.5v-220q0 -67 33 -108.5t96 -41.5q68 0 102 37.5t34 97.5v8q0 8 -2 11t-7 5l-173 98q-11 7 -14.5 18t3.5 23l15 26q6 12 17.5 15.5t22.5 -3.5l212 -122q13 -8 17 -15.5t4 -21.5v-42z" />
    <glyph glyph-name="H" unicode="H" horiz-adv-x="585" 
d="M450 0q-14 0 -22 8t-8 22v260q0 10 -10 10h-235q-10 0 -10 -10v-260q0 -14 -8 -22t-22 -8h-35q-14 0 -22 8t-8 22v620q0 14 8 22t22 8h35q14 0 22 -8t8 -22v-250q0 -10 10 -10h235q10 0 10 10v250q0 14 8 22t22 8h35q14 0 22 -8t8 -22v-620q0 -14 -8 -22t-22 -8h-35z" />
    <glyph glyph-name="I" unicode="I" horiz-adv-x="235" 
d="M100 0q-14 0 -22 8t-8 22v620q0 14 8 22t22 8h35q14 0 22 -8t8 -22v-620q0 -14 -8 -22t-22 -8h-35z" />
    <glyph glyph-name="J" unicode="J" horiz-adv-x="440" 
d="M280 650q0 14 8 22t22 8h35q14 0 22 -8t8 -22v-490q0 -36 -13.5 -67.5t-37.5 -54t-57 -35.5t-72 -13t-71.5 13t-55.5 35.5t-35.5 54t-12.5 67.5v30q0 14 8 22t22 8h35q14 0 22 -8t8 -22v-25q0 -16 4.5 -31t14 -27t24.5 -19.5t37 -7.5t38 7.5t26.5 19.5t15.5 27t5 31v485z
" />
    <glyph glyph-name="K" unicode="K" horiz-adv-x="536" 
d="M436 0q-25 0 -37 27l-145 303q-3 6 -8 6.5t-10 -4.5l-58 -73q-13 -16 -13 -37v-192q0 -14 -8 -22t-22 -8h-35q-14 0 -22 8t-8 22v620q0 14 8 22t22 8h35q14 0 22 -8t8 -22v-245q0 -8 5.5 -10t10.5 5l207 264q12 16 38 16h54q14 0 18.5 -9.5t-3.5 -18.5l-169 -209
q-13 -16 -5 -33l181 -374q7 -15 1 -25.5t-21 -10.5h-46z" />
    <glyph glyph-name="L" unicode="L" horiz-adv-x="493" 
d="M100 0q-14 0 -22 8t-8 22v620q0 14 8 22t22 8h35q14 0 22 -8t8 -22v-550q0 -10 10 -10h273q14 0 22 -8t8 -22v-30q0 -14 -8 -22t-22 -8h-348z" />
    <glyph glyph-name="M" unicode="M" horiz-adv-x="700" 
d="M565 0q-14 0 -22 8t-8 22v463q0 9 -6 12t-10 -8l-101 -285q-10 -27 -36 -27h-64q-26 0 -36 27l-101 285q-4 9 -10 9t-6 -13v-463q0 -14 -8 -22t-22 -8h-35q-14 0 -22 8t-8 22v620q0 14 8 22t22 8h88q14 0 22 -6.5t12 -17.5l118 -349q3 -10 9.5 -9.5t10.5 9.5l118 349
q4 11 12 17.5t22 6.5h88q14 0 22 -8t8 -22v-620q0 -14 -8 -22t-22 -8h-35z" />
    <glyph glyph-name="N" unicode="N" horiz-adv-x="605" 
d="M475 0q-14 0 -22.5 7.5t-17.5 22.5l-254 445q-5 8 -10.5 6t-5.5 -10v-441q0 -14 -8 -22t-22 -8h-35q-14 0 -22 8t-8 22v620q0 14 8 22t22 8h39q15 0 25 -5.5t18 -19.5l243 -423q4 -6 9.5 -5t5.5 9v414q0 14 8 22t22 8h35q14 0 22 -8t8 -22v-620q0 -14 -8 -22t-22 -8h-30z
" />
    <glyph glyph-name="O" unicode="O" horiz-adv-x="590" 
d="M530 220q0 -51 -17.5 -93.5t-49 -72.5t-74.5 -47t-94 -17t-94 17t-74.5 47t-49 72.5t-17.5 93.5v240q0 51 17.5 93.5t49 72.5t74.5 47t94 17t94 -17t74.5 -47t49 -72.5t17.5 -93.5v-240zM435 460q0 60 -36 100t-104 40t-104 -40t-36 -100v-240q0 -60 36 -100t104 -40
t104 40t36 100v240z" />
    <glyph glyph-name="P" unicode="P" horiz-adv-x="520" 
d="M100 0q-14 0 -22 8t-8 22v620q0 14 8 22t22 8h210q40 0 76 -16t62 -43.5t41.5 -64t15.5 -76.5q0 -41 -15.5 -77t-41.5 -63.5t-62 -43.5t-76 -16h-135q-10 0 -10 -10v-240q0 -14 -8 -22t-22 -8h-35zM303 370q20 0 39 7t34 21t24.5 34.5t9.5 47.5t-9.5 47.5t-24.5 34.5
t-34 21t-39 7h-128q-10 0 -10 -10v-200q0 -10 10 -10h128z" />
    <glyph glyph-name="Q" unicode="Q" horiz-adv-x="590" 
d="M478 -100q-26 -15 -41 11l-54 93q-42 -14 -88 -14q-51 0 -94 17t-74.5 47t-49 72.5t-17.5 93.5v240q0 51 17.5 93.5t49 72.5t74.5 47t94 17t94 -17t74.5 -47t49 -72.5t17.5 -93.5v-240q0 -53 -19 -96t-51 -73l55 -95q7 -12 3.5 -23t-14.5 -18zM210 307q-7 12 -3.5 23
t14.5 18l26 15q26 15 41 -11l123 -217q11 17 17.5 38.5t6.5 46.5v240q0 60 -36 100t-104 40t-104 -40t-36 -100v-240q0 -60 36 -100t104 -40q21 0 41 5z" />
    <glyph glyph-name="R" unicode="R" horiz-adv-x="540" 
d="M446 0q-25 0 -37 27l-118 254q-6 14 -21 14h-95q-10 0 -10 -10v-255q0 -14 -8 -22t-22 -8h-35q-14 0 -22 8t-8 22v620q0 14 8 22t22 8h205q40 0 75 -14.5t60.5 -40t40 -60.5t14.5 -75q0 -57 -27.5 -101t-69.5 -67q-16 -9 -7 -29l121 -257q7 -15 1 -25.5t-21 -10.5h-46z
M298 385q20 0 38.5 7.5t32.5 21.5t22.5 33.5t8.5 42.5t-8.5 41.5t-22.5 31.5t-32.5 20t-38.5 7h-123q-10 0 -10 -10v-185q0 -10 10 -10h123z" />
    <glyph glyph-name="S" unicode="S" horiz-adv-x="490" 
d="M83 127q10 10 21.5 9t20.5 -9l18 -15.5t23 -15.5t30 -11.5t39 -4.5q48 0 79 26.5t31 66.5q0 45 -27.5 72t-87.5 56q-38 18 -68.5 38t-52.5 45t-33.5 56.5t-11.5 72.5q0 34 13 66t38 56.5t60.5 39.5t79.5 15q57 0 97.5 -22t64.5 -46q21 -21 0 -42l-23 -24
q-10 -10 -19 -10.5t-21 10.5q-13 12 -40 28t-59 16q-22 0 -40.5 -7.5t-32 -19.5t-21 -27.5t-7.5 -32.5q0 -22 6.5 -39t20 -31.5t35 -27.5t52.5 -26q41 -18 73 -38t54 -44.5t33.5 -56t11.5 -72.5q0 -38 -16 -72t-44 -59.5t-65.5 -41t-79.5 -15.5q-68 0 -106.5 20.5
t-67.5 52.5q-8 8 -9 20t9 22z" />
    <glyph glyph-name="T" unicode="T" horiz-adv-x="515" 
d="M240 0q-14 0 -22 8t-8 22v550q0 10 -10 10h-150q-14 0 -22 8t-8 22v30q0 14 8 22t22 8h415q14 0 22 -8t8 -22v-30q0 -14 -8 -22t-22 -8h-150q-10 0 -10 -10v-550q0 -14 -8 -22t-22 -8h-35z" />
    <glyph glyph-name="U" unicode="U" horiz-adv-x="600" 
d="M440 650q0 14 8 22t22 8h35q14 0 22 -8t8 -22v-430q0 -51 -17.5 -93.5t-49 -72.5t-74.5 -47t-94 -17t-94 17t-74.5 47t-49 72.5t-17.5 93.5v430q0 14 8 22t22 8h35q14 0 22 -8t8 -22v-430q0 -60 36 -100t104 -40t104 40t36 100v430z" />
    <glyph glyph-name="V" unicode="V" horiz-adv-x="580" 
d="M255 0q-14 0 -22.5 5.5t-13.5 21.5l-200 625q-8 28 21 28h49q27 0 34 -24l157 -529q3 -11 10 -11t10 11l157 529q7 24 34 24h49q29 0 21 -28l-200 -625q-5 -16 -13.5 -21.5t-22.5 -5.5h-70z" />
    <glyph glyph-name="W" unicode="W" horiz-adv-x="935" 
d="M775 650q0 14 8 22t22 8h35q14 0 22 -8t8 -22v-430q0 -51 -16 -93.5t-45.5 -72.5t-71 -47t-92.5 -17q-31 0 -55 5.5t-43.5 15.5t-35.5 23.5t-30 28.5q-15 15 -28 0q-29 -35 -68 -54t-95 -19q-51 0 -92.5 17t-71 47t-45.5 72.5t-16 93.5v430q0 14 8 22t22 8h35q14 0 22 -8
t8 -22v-430q0 -30 7.5 -55.5t23.5 -44.5t40.5 -29.5t58.5 -10.5q67 0 98.5 40t31.5 100v430q0 14 8 22t22 8h35q14 0 22 -8t8 -22v-430q0 -30 7.5 -55.5t23.5 -44.5t40.5 -29.5t58.5 -10.5q67 0 98.5 40t31.5 100v430z" />
    <glyph glyph-name="X" unicode="X" horiz-adv-x="580" 
d="M486 0q-17 0 -28 7t-19 19l-136 224q-5 8 -11.5 8.5t-12.5 -9.5l-137 -223q-8 -12 -19 -19t-28 -7h-49q-16 0 -20 9t4 21l194 303q11 19 0 36l-180 281q-8 12 -3 21t21 9h47q31 0 45 -24l124 -205q5 -8 12 -8t12 8l125 205q8 13 18 18.5t27 5.5h47q16 0 21 -9.5t-3 -20.5
l-180 -280q-13 -21 0 -39l194 -301q8 -12 4 -21t-20 -9h-49z" />
    <glyph glyph-name="Y" unicode="Y" horiz-adv-x="530" 
d="M250 0q-14 0 -22 8t-8 22v240q0 17 -14 22q-78 22 -122 81.5t-44 146.5v130q0 14 8 22t22 8h35q14 0 22 -8t8 -22v-130q0 -30 7.5 -56.5t23.5 -46t40.5 -31t58.5 -11.5t58.5 11.5t40.5 31t23.5 46t7.5 56.5v130q0 14 8 22t22 8h35q14 0 22 -8t8 -22v-130q0 -85 -43 -146
t-118 -81q-8 -2 -11 -8.5t-3 -14.5v-240q0 -14 -8 -22t-22 -8h-35z" />
    <glyph glyph-name="Z" unicode="Z" 
d="M70 0q-14 0 -22 8t-8 22v23q0 12 3.5 22.5t13.5 24.5l326 477q3 5 0.5 9t-9.5 4h-274q-14 0 -22 8t-8 22v30q0 14 8 22t22 8h389q14 0 22 -8t8 -22v-22q0 -12 -5.5 -24t-13.5 -24l-324 -474q-5 -7 -2.5 -11.5t11.5 -4.5h314q14 0 22 -8t8 -22v-30q0 -14 -8 -22t-22 -8
h-429z" />
    <glyph glyph-name="bracketleft" unicode="[" horiz-adv-x="280" 
d="M100 -170q-14 0 -22 8t-8 22v850q0 14 8 22t22 8h135q14 0 22 -8t8 -22v-35q0 -14 -8 -22t-22 -8h-60q-10 0 -10 -10v-700q0 -10 10 -10h60q14 0 22 -8t8 -22v-35q0 -14 -8 -22t-22 -8h-135z" />
    <glyph glyph-name="backslash" unicode="\" horiz-adv-x="328" 
d="M266 -50q-27 0 -34 24l-228 728q-8 28 21 28h37q27 0 34 -24l228 -728q8 -28 -21 -28h-37z" />
    <glyph glyph-name="bracketright" unicode="]" horiz-adv-x="280" 
d="M45 -170q-14 0 -22 8t-8 22v35q0 14 8 22t22 8h60q10 0 10 10v700q0 10 -10 10h-60q-14 0 -22 8t-8 22v35q0 14 8 22t22 8h135q14 0 22 -8t8 -22v-850q0 -14 -8 -22t-22 -8h-135z" />
    <glyph glyph-name="asciicircum" unicode="^" 
d="M481 148q-11 -6 -22 -3.5t-19 14.5l-134 233q-10 15 -18 15.5t-16 -15.5l-132 -234q-6 -11 -18.5 -14.5t-23.5 4.5l-27 14q-11 7 -14 17.5t4 22.5l169 294q8 12 17.5 16.5t23.5 4.5h36q11 0 22.5 -5t18.5 -16l170 -295q6 -11 3 -23t-14 -18z" />
    <glyph glyph-name="underscore" unicode="_" horiz-adv-x="270" 
d="M10 -140q-14 0 -22 8t-8 22v25q0 14 8 22t22 8h250q14 0 22 -8t8 -22v-25q0 -14 -8 -22t-22 -8h-250z" />
    <glyph glyph-name="grave" unicode="`" horiz-adv-x="460" 
d="M300 525q-11 -8 -22.5 -7t-19.5 11l-72 88q-9 11 -8 22.5t12 20.5l20 15q10 9 21.5 8t20.5 -12l72 -88q8 -11 7.5 -22.5t-11.5 -19.5z" />
    <glyph glyph-name="b" unicode="b" horiz-adv-x="480" 
d="M90 0q-14 0 -22 8t-8 22v620q0 14 8 22t22 8h30q14 0 22 -8t8 -22v-190q0 -10 10 -10h99q37 0 68.5 -13t54 -35.5t35.5 -54t13 -67.5v-110q0 -36 -12.5 -67.5t-35.5 -54t-55.5 -35.5t-71.5 -13h-165zM340 280q0 38 -23.5 61.5t-61.5 23.5h-95q-10 0 -10 -10v-260
q0 -10 10 -10h95q35 0 60 23.5t25 61.5v110z" />
    <glyph glyph-name="c" unicode="c" horiz-adv-x="399" 
d="M365 89q9 -9 8 -20t-9 -21q-17 -20 -52.5 -39t-81.5 -19q-44 0 -77.5 14.5t-56.5 39t-34.5 57.5t-11.5 69v110q0 36 12.5 69t36 57.5t56.5 39t75 14.5q41 0 73 -14.5t53 -35.5q9 -9 9 -21t-9 -21l-19 -19q-19 -19 -41 1q-11 10 -28.5 17.5t-37.5 7.5q-48 0 -69 -28.5
t-21 -66.5v-110q0 -19 4.5 -36.5t15 -30.5t27.5 -20.5t43 -7.5t45 11t30 21q23 19 42 0z" />
    <glyph glyph-name="d" unicode="d" horiz-adv-x="480" 
d="M225 0q-39 0 -71.5 13t-55.5 35.5t-35.5 54t-12.5 67.5v110q0 36 13 67.5t35.5 54t54 35.5t68.5 13h99q10 0 10 10v190q0 14 8 22t22 8h30q14 0 22 -8t8 -22v-620q0 -14 -8 -22t-22 -8h-165zM330 355q0 10 -10 10h-95q-38 0 -61.5 -23.5t-23.5 -61.5v-110q0 -38 25 -61.5
t60 -23.5h95q10 0 10 10v260z" />
    <glyph glyph-name="e" unicode="e" horiz-adv-x="455" 
d="M385 98q9 -9 8.5 -20t-8.5 -21q-20 -25 -59 -46t-93 -21q-42 0 -75.5 13.5t-57.5 37.5t-37 56t-13 68v118q0 36 11.5 68.5t34 56.5t55 38t74.5 14t75 -14t56.5 -38t36 -56.5t12.5 -68.5v-60q0 -14 -8 -22t-22 -8h-225q-10 0 -10 -10v-18q0 -38 22.5 -64t70.5 -26
q38 0 59 13.5t32 25.5q11 11 22 10.5t20 -9.5zM315 283q0 38 -21 65t-69 27q-47 0 -66 -27t-19 -65v-5q0 -10 10 -10h155q10 0 10 10v5z" />
    <glyph glyph-name="f" unicode="f" horiz-adv-x="340" 
d="M140 0q-14 0 -22 8t-8 22v325q0 10 -10 10h-50q-14 0 -22 8t-8 22v25q0 14 8 22t22 8h50q10 0 10 10v50q0 36 11 67.5t32 54t51 35.5t67 13h19q14 0 22 -8t8 -22v-25q0 -14 -8 -22t-22 -8h-15q-38 0 -56.5 -23t-18.5 -62v-50q0 -10 10 -10h80q14 0 22 -8t8 -22v-25
q0 -14 -8 -22t-22 -8h-80q-10 0 -10 -10v-325q0 -14 -8 -22t-22 -8h-30z" />
    <glyph glyph-name="h" unicode="h" horiz-adv-x="480" 
d="M360 0q-14 0 -22 8t-8 22v254q0 38 -21.5 59.5t-59.5 21.5h-89q-10 0 -10 -10v-325q0 -14 -8 -22t-22 -8h-30q-14 0 -22 8t-8 22v620q0 14 8 22t22 8h30q14 0 22 -8t8 -22v-190q0 -10 10 -10h93q37 0 68 -12.5t53 -34.5t34 -52.5t12 -66.5v-254q0 -14 -8 -22t-22 -8h-30z
" />
    <glyph glyph-name="i" unicode="i" horiz-adv-x="230" 
d="M100 520q-14 0 -22 8t-8 22v50q0 14 8 22t22 8h30q14 0 22 -8t8 -22v-50q0 -14 -8 -22t-22 -8h-30zM100 0q-14 0 -22 8t-8 22v390q0 14 8 22t22 8h30q14 0 22 -8t8 -22v-390q0 -14 -8 -22t-22 -8h-30z" />
    <glyph glyph-name="j" unicode="j" horiz-adv-x="230" 
d="M100 520q-14 0 -22 8t-8 22v50q0 14 8 22t22 8h30q14 0 22 -8t8 -22v-50q0 -14 -8 -22t-22 -8h-30zM5 -230q-14 0 -22 8t-8 22v25q0 14 8 22t22 8h10q27 0 41 17t14 48v500q0 14 8 22t22 8h30q14 0 22 -8t8 -22v-500q0 -69 -38.5 -109.5t-102.5 -40.5h-14z" />
    <glyph glyph-name="k" unicode="k" horiz-adv-x="446" 
d="M361 0q-25 0 -37 27l-93 197q-3 7 -9.5 8t-12.5 -5l-36 -37q-6 -6 -9.5 -12.5t-3.5 -16.5v-131q0 -14 -8 -22t-22 -8h-30q-14 0 -22 8t-8 22v620q0 14 8 22t22 8h30q14 0 22 -8t8 -22v-334q0 -8 4.5 -10.5t10.5 3.5l123 125q8 8 16 12t22 4h53q17 0 20.5 -11t-6.5 -21
l-96 -95q-18 -17 -9 -37l121 -250q7 -15 1 -25.5t-21 -10.5h-38z" />
    <glyph glyph-name="l" unicode="l" horiz-adv-x="255" 
d="M191 0q-64 0 -92.5 35t-28.5 95v520q0 14 8 22t22 8h30q14 0 22 -8t8 -22v-530q0 -16 9 -25.5t26 -9.5h10q14 0 22 -8t8 -22v-25q0 -14 -8 -22t-22 -8h-14z" />
    <glyph glyph-name="n" unicode="n" horiz-adv-x="490" 
d="M370 0q-14 0 -22 8t-8 22v250q0 38 -23.5 66.5t-71.5 28.5t-71.5 -28.5t-23.5 -66.5v-250q0 -14 -8 -22t-22 -8h-30q-14 0 -22 8t-8 22v250q0 36 13.5 69t37.5 57.5t58 39t76 14.5t76 -14.5t58 -39t37.5 -57.5t13.5 -69v-250q0 -14 -8 -22t-22 -8h-30z" />
    <glyph glyph-name="o" unicode="o" horiz-adv-x="550" 
d="M275 75q31 0 57.5 12t46 32t30.5 47.5t11 58.5t-11 58.5t-30.5 47.5t-46 32t-57.5 12t-57.5 -12t-46 -32t-30.5 -47.5t-11 -58.5t11 -58.5t30.5 -47.5t46 -32t57.5 -12zM275 -10q-49 0 -91.5 18.5t-74.5 50.5t-50.5 74.5t-18.5 91.5t18.5 91.5t50.5 74.5t74.5 50.5
t91.5 18.5t91.5 -18.5t74.5 -50.5t50.5 -74.5t18.5 -91.5t-18.5 -91.5t-50.5 -74.5t-74.5 -50.5t-91.5 -18.5z" />
    <glyph glyph-name="p" unicode="p" horiz-adv-x="480" 
d="M340 280q0 38 -25 61.5t-60 23.5h-95q-10 0 -10 -10v-260q0 -10 10 -10h95q38 0 61.5 23.5t23.5 61.5v110zM90 -230q-14 0 -22 8t-8 22v620q0 14 8 22t22 8h165q39 0 71.5 -13t55.5 -35.5t35.5 -54t12.5 -67.5v-110q0 -36 -13 -67.5t-35.5 -54t-54 -35.5t-68.5 -13h-99
q-10 0 -10 -10v-190q0 -14 -8 -22t-22 -8h-30z" />
    <glyph glyph-name="q" unicode="q" horiz-adv-x="480" 
d="M330 355q0 10 -10 10h-95q-35 0 -60 -23.5t-25 -61.5v-110q0 -38 23.5 -61.5t61.5 -23.5h95q10 0 10 10v260zM360 -230q-14 0 -22 8t-8 22v190q0 10 -10 10h-99q-37 0 -68.5 13t-54 35.5t-35.5 54t-13 67.5v110q0 36 12.5 67.5t35.5 54t55.5 35.5t71.5 13h165q14 0 22 -8
t8 -22v-620q0 -14 -8 -22t-22 -8h-30z" />
    <glyph glyph-name="r" unicode="r" horiz-adv-x="295" 
d="M90 0q-14 0 -22 8t-8 22v255q0 73 42 119t117 46h36q14 0 22 -8t8 -22v-25q0 -14 -8 -22t-22 -8h-30q-38 0 -56.5 -23.5t-18.5 -61.5v-250q0 -14 -8 -22t-22 -8h-30z" />
    <glyph glyph-name="t" unicode="t" horiz-adv-x="330" 
d="M241 0q-75 0 -110.5 41t-35.5 114v200q0 10 -10 10h-30q-14 0 -22 8t-8 22v25q0 14 8 22t22 8h30q10 0 10 10v70q0 14 8 22t22 8h30q14 0 22 -8t8 -22v-70q0 -10 10 -10h75q14 0 22 -8t8 -22v-25q0 -14 -8 -22t-22 -8h-75q-10 0 -10 -10v-195q0 -35 13.5 -55t51.5 -20h20
q14 0 22 -8t8 -22v-25q0 -14 -8 -22t-22 -8h-29z" />
    <glyph glyph-name="u" unicode="u" horiz-adv-x="485" 
d="M335 420q0 14 8 22t22 8h30q14 0 22 -8t8 -22v-250q0 -36 -13 -69t-36.5 -57.5t-57 -39t-75.5 -14.5t-75.5 14.5t-57.5 39t-37 57.5t-13 69v250q0 14 8 22t22 8h30q14 0 22 -8t8 -22v-250q0 -38 22.5 -66.5t70.5 -28.5t70 28.5t22 66.5v250z" />
    <glyph glyph-name="v" unicode="v" horiz-adv-x="438" 
d="M195 0q-14 0 -22.5 5t-13.5 22l-137 395q-5 13 1 20.5t20 7.5h37q27 0 34 -24l95 -297q3 -11 10 -11t10 11l95 297q7 24 34 24h37q14 0 20 -7.5t1 -20.5l-137 -395q-5 -17 -13.5 -22t-22.5 -5h-48z" />
    <glyph glyph-name="w" unicode="w" horiz-adv-x="720" 
d="M570 420q0 14 8 22t22 8h30q14 0 22 -8t8 -22v-260q0 -36 -12.5 -67.5t-35 -54t-54.5 -35.5t-71 -13q-40 0 -69.5 13t-48.5 32q-9 9 -19 0q-20 -17 -49.5 -31t-67.5 -14q-39 0 -71 13t-54.5 35.5t-35 54t-12.5 67.5v260q0 14 8 22t22 8h30q14 0 22 -8t8 -22v-260
q0 -16 5 -31t15 -27t26 -19.5t37 -7.5t36.5 7.5t25.5 19.5t15 27t5 31v260q0 14 8 22t22 8h30q14 0 22 -8t8 -22v-260q0 -16 4.5 -31t14.5 -27t25.5 -19.5t37.5 -7.5t37.5 7.5t25.5 19.5t15 27t5 31v260z" />
    <glyph glyph-name="x" unicode="x" horiz-adv-x="418" 
d="M334 0q-17 0 -25.5 7t-16.5 19l-73 119q-5 7 -10 7.5t-10 -7.5l-73 -119q-8 -12 -16.5 -19t-25.5 -7h-39q-16 0 -20 9t4 21l122 187q11 15 0 31l-112 172q-8 11 -3 20.5t21 9.5h36q17 0 25 -5.5t16 -18.5l64 -105q11 -17 22 0l64 105q8 13 16 18.5t25 5.5h36
q16 0 21 -9.5t-3 -20.5l-111 -171q-11 -17 1 -35l120 -184q8 -12 4 -21t-20 -9h-39z" />
    <glyph glyph-name="y" unicode="y" horiz-adv-x="480" 
d="M330 -10q0 10 -10 10h-93q-37 0 -68 12.5t-53 34.5t-34 52.5t-12 66.5v254q0 14 8 22t22 8h30q14 0 22 -8t8 -22v-254q0 -38 21.5 -59.5t59.5 -21.5h89q10 0 10 10v325q0 14 8 22t22 8h30q14 0 22 -8t8 -22v-473q0 -38 -13 -72t-37 -59.5t-58 -40.5t-77 -15
q-51 0 -85 10.5t-60 27.5q-11 7 -14.5 18t2.5 22l12 23q13 25 39 12q21 -12 46 -20t60 -8q51 0 73 27.5t22 74.5v43z" />
    <glyph glyph-name="z" unicode="z" horiz-adv-x="395" 
d="M60 0q-14 0 -22 8t-8 22v25q0 22 17 45l182 252q4 5 2 9t-9 4h-152q-14 0 -22 8t-8 22v25q0 14 8 22t22 8h255q14 0 22 -8t8 -22v-25q0 -12 -4.5 -21.5t-14.5 -23.5l-180 -249q-5 -7 -2.5 -11.5t11.5 -4.5h170q14 0 22 -8t8 -22v-25q0 -14 -8 -22t-22 -8h-275z" />
    <glyph glyph-name="braceleft" unicode="{" horiz-adv-x="310" 
d="M251 -180q-32 0 -59.5 10.5t-48 30t-32 47.5t-11.5 62v216q0 26 -9 40.5t-36 14.5h-10q-14 0 -22 8t-8 22v29q0 14 8 22t22 8h10q27 0 36 14.5t9 40.5v215q0 34 11.5 62t32 47.5t48 30t59.5 10.5h14q14 0 22 -8t8 -22v-30q0 -14 -8 -22t-22 -8h-15q-55 0 -55 -55v-223
q0 -29 -9 -51.5t-24 -33.5q-15 -12 0 -24q33 -26 33 -85v-223q0 -55 55 -55h15q14 0 22 -8t8 -22v-30q0 -14 -8 -22t-22 -8h-14z" />
    <glyph glyph-name="bar" unicode="|" horiz-adv-x="255" 
d="M114 -50q-14 0 -22 8t-8 22v720q0 14 8 22t22 8h30q14 0 22 -8t8 -22v-720q0 -14 -8 -22t-22 -8h-30z" />
    <glyph glyph-name="braceright" unicode="}" horiz-adv-x="310" 
d="M45 -180q-14 0 -22 8t-8 22v30q0 14 8 22t22 8h15q55 0 55 55v223q0 59 33 85q15 12 0 24q-15 11 -24 33.5t-9 51.5v223q0 55 -55 55h-15q-14 0 -22 8t-8 22v30q0 14 8 22t22 8h14q32 0 59.5 -10.5t48 -30t32 -47.5t11.5 -62v-215q0 -26 9 -40.5t36 -14.5h10q14 0 22 -8
t8 -22v-29q0 -14 -8 -22t-22 -8h-10q-27 0 -36 -14.5t-9 -40.5v-216q0 -34 -11.5 -62t-32 -47.5t-48 -30t-59.5 -10.5h-14z" />
    <glyph glyph-name="asciitilde" unicode="~" 
d="M489 361q9 -9 8.5 -20.5t-8.5 -21.5q-21 -27 -52.5 -46t-75.5 -19q-32 0 -53.5 9t-39.5 19.5l-35 19.5t-41 9q-19 0 -32 -9t-26 -21q-10 -10 -19.5 -7.5t-18.5 11.5l-15 15q-9 9 -8.5 20.5t8.5 21.5q19 22 48.5 41t72.5 19q31 0 52.5 -9.5t39.5 -21t36 -21t42 -9.5
q16 0 31.5 10t29.5 24q11 11 21.5 10.5t19.5 -9.5z" />
    <glyph glyph-name="dagger" unicode="&#x2020;" horiz-adv-x="450" 
d="M218 -230q-14 0 -22 8t-8 22l-10 456q0 10 -10 10h-93q-14 0 -22 8t-8 22v35q0 14 8 22t22 8h93q10 0 10 10v130q0 14 8 22t22 8h35q14 0 22 -8t8 -22v-130q0 -5 5 -7.5t10 -2.5h87q14 0 22 -8t8 -22v-35q0 -14 -8 -22t-22 -8h-87q-5 0 -10 -2.5t-5 -7.5l-10 -456
q0 -14 -8 -22t-22 -8h-15z" />
    <glyph glyph-name="degree" unicode="&#xb0;" horiz-adv-x="370" 
d="M320 555q0 -28 -10.5 -52t-29 -41t-43 -27t-52.5 -10t-52.5 10t-43 27t-29 41t-10.5 52t10.5 52t29 41t43 27t52.5 10t52.5 -10t43 -27t29 -41t10.5 -52zM185 480q32 0 52 21.5t20 53.5t-20 53.5t-52 21.5t-52 -21.5t-20 -53.5t20 -53.5t52 -21.5z" />
    <glyph glyph-name="cent" unicode="&#xa2;" horiz-adv-x="440" 
d="M240 0q-14 0 -22 8t-8 22v66q0 18 -17 22q-57 15 -92.5 59t-35.5 103v130q0 59 36 102t91 60q8 3 13 6.5t5 14.5v57q0 14 8 22t22 8h15q14 0 22 -8t8 -22v-57q0 -9 3.5 -13t11.5 -6q22 -6 44.5 -17.5t36.5 -23.5q9 -8 9 -20.5t-9 -21.5l-19 -19q-9 -9 -23 -7.5t-25 11.5
q-11 9 -20 6.5t-9 -12.5v-248q0 -13 10.5 -12.5t24.5 13.5q11 9 26 10t23 -9l18 -22q16 -21 0 -41q-11 -13 -35 -25.5t-52 -19.5q-15 -3 -15 -20v-66q0 -14 -8 -22t-22 -8h-15zM210 473q0 8 -2.5 9.5t-10.5 -0.5q-20 -7 -31 -25.5t-11 -36.5v-150q0 -17 11.5 -34t25.5 -24
q9 -5 13.5 -3.5t4.5 12.5v252z" />
    <glyph glyph-name="sterling" unicode="&#xa3;" 
d="M526 92q9 -9 8.5 -20.5t-8.5 -21.5q-21 -27 -54.5 -43.5t-73.5 -16.5q-29 0 -50 7.5t-38.5 17t-34 17t-37.5 7.5q-19 0 -35 -9t-39 -32q-10 -10 -18.5 -8t-18.5 11l-25 22q-10 9 -9 20.5t10 21.5q17 19 32.5 45.5t27 55t18 57.5t6.5 52q0 12 -12 12h-98q-14 0 -22 8
t-8 22v25q0 14 8 22t22 8h70q21 0 14 18l-19 49t-11 64q0 36 12.5 69.5t36.5 60t59 42t80 15.5q28 0 53 -6t46.5 -15.5t38.5 -21t28 -22.5q21 -21 0 -42l-20 -23q-10 -10 -19 -10.5t-21 10.5q-13 12 -41.5 26t-64.5 14q-44 0 -71 -27.5t-27 -69.5q0 -29 14.5 -58t25.5 -58
q6 -15 22 -15h94q14 0 22 -8t8 -22v-25q0 -14 -8 -22t-22 -8h-81q-17 0 -18 -16q-3 -37 -16 -70t-26 -56q-4 -7 -2 -12t13 -7q21 -2 40.5 -10t38 -16.5t36.5 -15.5t37 -7q16 0 34.5 9.5t32.5 23.5q11 11 21.5 10.5t19.5 -9.5z" />
    <glyph glyph-name="section" unicode="&#xa7;" horiz-adv-x="440" 
d="M186 22q-9 9 -9.5 19.5t10.5 21.5q29 27 29 56q0 20 -10 33t-33 29q-48 32 -78.5 67t-30.5 82q0 46 25 79.5t62 50.5q14 5 4 20q-13 20 -17.5 39.5t-4.5 45.5q0 38 17.5 66.5t44.5 49.5q10 8 21.5 8.5t20.5 -8.5l25 -25q9 -9 9.5 -19.5t-10.5 -21.5q-29 -27 -29 -56
q0 -20 10 -33t33 -29q48 -32 78.5 -67t30.5 -82t-25 -80t-63 -50q-7 -3 -7 -8.5t4 -11.5q22 -34 22 -85q0 -38 -17.5 -66.5t-44.5 -49.5q-10 -8 -21.5 -8.5t-20.5 8.5zM287 341q0 27 -19.5 46.5t-46.5 19.5t-46.5 -19.5t-19.5 -46.5t19.5 -46.5t46.5 -19.5t46.5 19.5
t19.5 46.5z" />
    <glyph glyph-name="bullet" unicode="&#x2022;" horiz-adv-x="360" 
d="M255 230q0 -32 -20 -53.5t-55 -21.5t-55 21.5t-20 53.5v40q0 32 20 53.5t55 21.5t55 -21.5t20 -53.5v-40z" />
    <glyph glyph-name="paragraph" unicode="&#xb6;" horiz-adv-x="590" 
d="M458 -230q-14 0 -22 8t-8 22v780q0 10 -10 10h-63q-10 0 -10 -10v-780q0 -14 -8 -22t-22 -8h-35q-14 0 -22 8t-8 22v485q0 10 -10 10h-30q-41 0 -75.5 15t-60 41t-40 61t-14.5 76q0 40 14.5 75.5t40 61t60 40.5t75.5 15h283q14 0 22 -8t8 -22v-850q0 -14 -8 -22t-22 -8
h-35zM250 580q0 10 -10 10h-23q-40 0 -68.5 -29t-28.5 -73t28.5 -71t68.5 -27h23q10 0 10 10v180z" />
    <glyph glyph-name="germandbls" unicode="&#xdf;" horiz-adv-x="530" 
d="M140 0q-14 0 -22 8t-8 22v325q0 10 -10 10h-50q-14 0 -22 8t-8 22v25q0 14 8 22t22 8h50q10 0 10 10v50q0 36 12.5 67.5t34.5 54t52.5 35.5t65.5 13q29 0 57.5 -8.5t51 -26.5t36.5 -45.5t14 -64.5q0 -36 -16 -62.5t-35 -48.5t-35 -43t-16 -46q0 -21 13.5 -35.5
t42.5 -27.5q53 -23 85 -57.5t32 -85.5q0 -35 -11.5 -61t-32 -43t-47.5 -26t-57 -9q-43 0 -71 12.5t-47 35.5q-8 9 -8.5 21t8.5 21l16 17q9 9 19.5 9.5t21.5 -10.5q9 -10 26.5 -19t33.5 -9q21 0 40.5 14t19.5 37q0 26 -15 40.5t-52 33.5q-27 13 -46 26.5t-31.5 29.5t-18.5 36
t-6 47q0 35 15 61.5t32.5 49.5l32.5 44.5t15 47.5q0 13 -6.5 24t-16 19t-21.5 12.5t-23 4.5q-16 0 -30 -6.5t-24 -17.5t-15.5 -25.5t-5.5 -30.5v-485q0 -14 -8 -22t-22 -8h-30z" />
    <glyph glyph-name="registered" unicode="&#xae;" horiz-adv-x="690" 
d="M545 415q0 42 -14 77.5t-40 61.5t-63 41t-83 15t-83 -15t-63 -41t-40 -61.5t-14 -77.5v-150q0 -42 14 -77.5t40 -61.5t63 -41t83 -15t83 15t63 41t40 61.5t14 77.5v150zM630 270q0 -59 -20.5 -110.5t-57.5 -89t-90 -59t-117 -21.5q-65 0 -117.5 21.5t-89.5 59t-57.5 89
t-20.5 110.5v140q0 59 20.5 110.5t57.5 89t89.5 59t117.5 21.5q64 0 117 -21.5t90 -59t57.5 -89t20.5 -110.5v-140zM419 158q-22 0 -31 22l-53 115q-2 5 -10 5h-7q-10 0 -10 -9v-104q0 -13 -8 -21t-21 -8h-21q-13 0 -21 8t-8 21v298q0 13 8 21t21 8h98q22 0 41.5 -8
t34 -22.5t22.5 -34t8 -41.5q0 -31 -14.5 -55t-30.5 -32q-5 -3 -3 -9l54 -115q8 -17 1 -28t-23 -11h-27zM353 377q13 0 21.5 9t8.5 22t-9 21t-21 8h-35q-10 0 -10 -10v-40q0 -10 10 -10h35z" />
    <glyph glyph-name="copyright" unicode="&#xa9;" horiz-adv-x="690" 
d="M545 415q0 42 -14 77.5t-40 61.5t-63 41t-83 15t-83 -15t-63 -41t-40 -61.5t-14 -77.5v-150q0 -42 14 -77.5t40 -61.5t63 -41t83 -15t83 15t63 41t40 61.5t14 77.5v150zM630 270q0 -59 -20.5 -110.5t-57.5 -89t-90 -59t-117 -21.5q-65 0 -117.5 21.5t-89.5 59t-57.5 89
t-20.5 110.5v140q0 59 20.5 110.5t57.5 89t89.5 59t117.5 21.5q64 0 117 -21.5t90 -59t57.5 -89t20.5 -110.5v-140zM447 237q9 -8 8.5 -19.5t-8.5 -19.5q-18 -19 -40.5 -29t-56.5 -10q-61 0 -97 37t-36 92v106q0 27 9.5 51t27 41t42 27t54.5 10q32 0 56.5 -12t37.5 -23
q9 -9 9.5 -20t-9.5 -21l-14 -14q-11 -11 -19.5 -10.5t-19.5 10.5q-5 5 -15 9.5t-26 4.5q-26 0 -39.5 -15t-13.5 -38v-106q0 -23 13.5 -38.5t39.5 -15.5q17 0 27.5 4.5t17.5 11.5q8 8 19.5 8t20.5 -8z" />
    <glyph glyph-name="trademark" unicode="&#x2122;" horiz-adv-x="710" 
d="M593 365q-19 0 -19 19v154q0 7 -3.5 8.5t-6.5 -5.5l-37 -90q-7 -17 -24 -17h-52q-16 0 -23 17l-38 90q-3 7 -7 6t-4 -9v-154q0 -19 -18 -19h-38q-19 0 -19 19v277q0 19 19 19h65q9 0 14 -5t8 -11l61 -144q2 -5 5.5 -5.5t6.5 5.5l62 144q3 6 7.5 11t13.5 5h65q19 0 19 -19
v-277q0 -19 -19 -19h-38zM132 365q-19 0 -19 19v217q0 7 -7 7h-63q-19 0 -19 19v34q0 19 19 19h215q8 0 13 -5.5t5 -13.5v-34q0 -9 -5 -14t-13 -5h-63q-7 0 -7 -7v-217q0 -19 -19 -19h-37z" />
    <glyph glyph-name="acute" unicode="&#xb4;" horiz-adv-x="460" 
d="M252 529q-8 -10 -19.5 -11t-22.5 7l-20 16q-11 8 -11.5 19.5t7.5 22.5l72 88q9 11 20.5 12t21.5 -8l20 -15q11 -9 12 -20.5t-8 -22.5z" />
    <glyph glyph-name="dieresis" unicode="&#xa8;" horiz-adv-x="460" 
d="M120 520q-14 0 -22 8t-8 22v50q0 14 8 22t22 8h35q14 0 22 -8t8 -22v-50q0 -14 -8 -22t-22 -8h-35zM300 520q-14 0 -22 8t-8 22v50q0 14 8 22t22 8h35q14 0 22 -8t8 -22v-50q0 -14 -8 -22t-22 -8h-35z" />
    <glyph glyph-name="lessequal" unicode="&#x2264;" horiz-adv-x="862" 
d="M810 239q0 -51 -23.5 -96.5t-65 -79t-97.5 -53.5t-121 -20q-49 0 -89 14.5t-68.5 38.5t-44 56t-15.5 67q0 41 16 68.5t40 41.5q5 3 5.5 8.5t-2.5 10.5q-21 28 -46 45t-57 17q-29 0 -49 -16.5t-20 -48.5q0 -16 6 -28.5t14 -20.5q18 -17 8 -36q-7 -13 -19.5 -20.5
t-27.5 -7.5q-9 0 -21.5 4t-23.5 14.5t-18.5 27.5t-7.5 43q0 24 9.5 47t27 41t42 29t54.5 11q7 0 13.5 -0.5t11.5 -1.5q6 -1 8.5 3t-3.5 9q-43 30 -89 35.5t-85 5.5q-24 0 -38 12t-14 32t13.5 34.5t37.5 14.5q34 0 72.5 -14.5t76.5 -43t73.5 -70t63.5 -95.5q4 -7 8 -6t4 7
q1 24 9.5 47.5t24.5 42t39.5 29.5t55.5 11q54 0 90 -36t44 -104q7 -62 29 -90t52 -28q15 0 29.5 9t14.5 30q0 22 -14.5 31t-30.5 11q-17 2 -27.5 14.5t-10.5 31.5q0 20 14.5 32.5t33.5 12.5q18 0 34 -9.5t28 -26t19 -39t7 -48.5z" />
    <glyph glyph-name="greaterequal" unicode="&#x2265;" horiz-adv-x="862" 
d="M696 179q-15 0 -27.5 7.5t-19.5 20.5q-10 19 8 36q8 8 14 20.5t6 28.5q0 32 -20 48.5t-49 16.5q-32 0 -57 -17t-46 -45q-3 -5 -2.5 -10.5t5.5 -8.5q24 -14 40 -41.5t16 -68.5q0 -35 -15.5 -67t-44 -56t-68.5 -38.5t-89 -14.5q-65 0 -121 20t-97.5 53.5t-65 79t-23.5 96.5
q0 26 7 48.5t19 39t28 26t34 9.5q19 0 33.5 -12.5t14.5 -32.5q0 -19 -10.5 -31.5t-27.5 -14.5q-16 -2 -30.5 -11t-14.5 -31q0 -21 14.5 -30t29.5 -9q30 0 52 28.5t29 89.5q8 68 44 104t90 36q31 0 55 -11t40 -29.5t24.5 -42t9.5 -47.5q0 -6 4 -7t8 6q28 54 63.5 95.5
t73.5 70t76.5 43t72.5 14.5q24 0 37.5 -14.5t13.5 -34.5t-14 -32t-38 -12q-39 0 -85 -5.5t-89 -35.5q-6 -5 -3.5 -9t8.5 -3q5 1 11.5 1.5t13.5 0.5q30 0 54.5 -11t42 -29t27 -41t9.5 -47q0 -26 -7.5 -43t-18.5 -27.5t-23.5 -14.5t-21.5 -4z" />
    <glyph glyph-name="yen" unicode="&#xa5;" 
d="M266 0q-14 0 -22 8t-8 22v122q0 10 -10 10h-115q-14 0 -22 8t-8 22v25q0 14 8 22t22 8h115q10 0 10 10v54q0 10 -10 10h-115q-14 0 -22 8t-8 22v25q0 14 8 22t22 8h58q20 0 10 17l-131 227q-8 13 -4 21.5t20 8.5h39q33 0 47 -26l116 -212q8 -14 17 -14t17 15l117 211
q14 26 47 26h39q16 0 20 -8t-4 -22l-130 -227q-10 -17 10 -17h57q14 0 22 -8t8 -22v-25q0 -14 -8 -22t-22 -8h-115q-10 0 -10 -10v-54q0 -10 10 -10h115q14 0 22 -8t8 -22v-25q0 -14 -8 -22t-22 -8h-115q-10 0 -10 -10v-122q0 -14 -8 -22t-22 -8h-35z" />
    <glyph glyph-name="integral" unicode="&#x222b;" 
d="M114 -230q-27 0 -27 30v30q0 16 9.5 23t23.5 7h13q54 0 59 55l52 595q3 36 18.5 67t40.5 54t57.5 36t69.5 13h29q14 0 20.5 -8t6.5 -22v-30q0 -14 -9 -22t-23 -8h-28q-38 0 -61 -24t-26 -56l-52 -590q-3 -34 -16.5 -62t-34.5 -47.5t-48.5 -30t-59.5 -10.5h-14z" />
    <glyph glyph-name="ordfeminine" unicode="&#xaa;" horiz-adv-x="400" 
d="M169 353q-53 0 -79.5 30.5t-26.5 73.5q0 45 28 74t82 29h41q10 0 10 10v16q0 10 -8 16t-28 6h-45q-14 0 -22.5 8.5t-8.5 22.5v20q0 14 8.5 22.5t22.5 8.5h48q54 0 88.5 -34t34.5 -90v-182q0 -14 -8.5 -22.5t-22.5 -8.5h-114zM83 178q-14 0 -22 8t-8 22v25q0 14 8 22t22 8
h201q14 0 22 -8t8 -22v-25q0 -14 -8 -22t-22 -8h-201zM224 471q0 10 -10 10h-38q-12 0 -18 -7.5t-6 -16.5t6 -16.5t18 -7.5h38q10 0 10 10v28z" />
    <glyph glyph-name="ordmasculine" unicode="&#xba;" horiz-adv-x="420" 
d="M342 471q0 -56 -36 -92.5t-96 -36.5t-96 36.5t-36 92.5v90q0 56 36 92.5t96 36.5t96 -36.5t36 -92.5v-90zM88 178q-14 0 -22 8t-8 22v25q0 14 8 22t22 8h244q14 0 22 -8t8 -22v-25q0 -14 -8 -22t-22 -8h-244zM252 566q0 18 -11 30.5t-31 12.5t-31 -12.5t-11 -30.5v-100
q0 -18 11 -30.5t31 -12.5t31 12.5t11 30.5v100z" />
    <glyph glyph-name="exclamdown" unicode="&#xa1;" horiz-adv-x="260" 
d="M116 330q-14 0 -22 8t-8 22v60q0 14 8 22t22 8h45q14 0 22 -8t8 -22v-60q0 -14 -8 -22t-22 -8h-45zM108 -230q-14 0 -22.5 8t-7.5 22l20 420q1 13 8.5 21.5t21.5 8.5h20q14 0 21.5 -8t8.5 -22l20 -420q1 -15 -7.5 -22.5t-22.5 -7.5h-60z" />
    <glyph glyph-name="logicalnot" unicode="&#xac;" 
d="M405 136q-14 0 -22 8t-8 22v120q0 10 -10 10h-250q-14 0 -22 8t-8 22v25q0 14 8 22t22 8h320q30 0 30 -30v-185q0 -14 -8 -22t-22 -8h-30z" />
    <glyph glyph-name="florin" unicode="&#x192;" 
d="M114 -230q-27 0 -27 30v30q0 16 9.5 23t23.5 7h13q27 0 42 17t17 43l26 290q1 10 -9 10h-92q-14 0 -22 8t-8 22v30q0 14 8 22t22 8h100q9 0 10 10l17 190q3 36 18.5 67t40.5 54t57.5 36t69.5 13h29q14 0 20.5 -8t6.5 -22v-30q0 -14 -9 -22t-23 -8h-28q-38 0 -61 -24
t-26 -56l-17 -190q-1 -10 10 -10h124q14 0 22 -8t8 -22v-30q0 -14 -8 -22t-22 -8h-132q-10 0 -11 -10l-26 -290q-3 -34 -16.5 -62t-34.5 -47.5t-48.5 -30t-59.5 -10.5h-14z" />
    <glyph glyph-name="approxequal" unicode="&#x2248;" horiz-adv-x="552" 
d="M421 49q0 -18 -9.5 -34t-26 -28t-39 -19t-48.5 -7q-48 0 -93 21.5t-79.5 60t-55.5 92t-21 118.5q0 49 15 87.5t39.5 65t56 40.5t65.5 14q41 0 68.5 -16t41.5 -40q3 -5 8.5 -5.5t10.5 2.5q28 21 45 46t17 57q0 29 -16.5 49t-48.5 20q-16 0 -28.5 -6t-20.5 -14
q-17 -18 -36 -8q-13 7 -20.5 19.5t-7.5 27.5q0 9 4 21.5t14.5 23.5t27.5 18.5t43 7.5q24 0 47 -9.5t41 -27t29 -42t11 -54.5q0 -7 -0.5 -13.5t-1.5 -11.5q-1 -6 3 -8.5t9 3.5q30 43 35.5 89t5.5 85q0 24 12 38t32 14t34.5 -13.5t14.5 -37.5q0 -31 -14 -68t-42 -75.5t-70 -75
t-97 -67.5q-7 -4 -6 -8t7 -4q24 -1 47 -8t41.5 -21t30 -36.5t11.5 -53.5q0 -54 -39.5 -85.5t-100.5 -38.5q-62 -7 -90 -29t-28 -52q0 -15 9 -27t30 -12q22 0 31 14.5t11 30.5q2 17 14.5 27.5t31.5 10.5q20 0 32.5 -14.5t12.5 -33.5z" />
    <glyph glyph-name="Delta" unicode="&#x2206;" horiz-adv-x="552" 
d="M262 -39q-26 0 -48.5 7t-39 19t-26 28t-9.5 34q0 19 12.5 33.5t32.5 14.5q19 0 31.5 -10.5t14.5 -27.5q2 -16 11 -30.5t31 -14.5q21 0 30 12t9 27q0 30 -28 52t-90 29q-61 7 -100.5 38.5t-39.5 85.5q0 31 11.5 53.5t30 36.5t41.5 21t47 8q6 0 7 4t-6 8q-55 31 -97 67.5
t-70 75t-42 75.5t-14 68q0 24 14.5 37.5t34.5 13.5t32 -14t12 -38q0 -39 5.5 -85t35.5 -89q5 -6 9 -3.5t3 8.5q-1 5 -1.5 11.5t-0.5 13.5q0 30 11 54.5t29 42t41 27t47 9.5q26 0 43 -7.5t27.5 -18.5t14.5 -23.5t4 -21.5q0 -15 -7.5 -27.5t-20.5 -19.5q-19 -10 -36 8
q-8 8 -20.5 14t-28.5 6q-32 0 -48.5 -20t-16.5 -49q0 -32 17 -57t45 -46q5 -3 10.5 -2.5t8.5 5.5q14 24 41.5 40t68.5 16q34 0 65.5 -14t56 -40.5t39.5 -65t15 -87.5q0 -65 -21 -118.5t-55.5 -92t-79.5 -60t-93 -21.5z" />
    <glyph glyph-name="guillemotleft" unicode="&#xab;" horiz-adv-x="470" 
d="M395 129q-8 -11 -18.5 -12.5t-22.5 8.5l-93 70q-9 7 -11.5 14.5t-2.5 20.5v26q0 14 2.5 21.5t11.5 14.5l93 70q11 8 22 7.5t19 -11.5l14 -17q8 -11 7 -21.5t-12 -18.5l-60 -47q-7 -5 -7 -11.5t8 -12.5l59 -44q11 -8 12 -19t-7 -21zM199 129q-16 -23 -41 -4l-93 70
q-8 7 -11 14.5t-3 20.5v26q0 14 3 21.5t11 14.5l93 70q11 8 22 7.5t19 -11.5l14 -17q8 -11 7 -21.5t-12 -18.5l-59 -47q-8 -5 -7.5 -11.5t8.5 -12.5l58 -44q11 -8 12 -19t-7 -21z" />
    <glyph glyph-name="guillemotright" unicode="&#xbb;" horiz-adv-x="470" 
d="M318 125q-25 -19 -41 4l-14 17q-8 10 -7 21t12 19l58 44q8 6 8.5 12.5t-7.5 11.5l-59 47q-11 8 -12 18.5t7 21.5l14 17q8 11 19 11.5t22 -7.5l93 -70q8 -7 11 -14.5t3 -21.5v-26q0 -13 -3 -20.5t-11 -14.5zM122 125q-12 -10 -22.5 -8.5t-18.5 12.5l-14 17q-8 10 -7 21
t12 19l59 44q8 6 8 12.5t-7 11.5l-60 47q-11 8 -12 18.5t7 21.5l14 17q8 11 19 11.5t22 -7.5l93 -70q9 -7 11.5 -14.5t2.5 -21.5v-26q0 -13 -2.5 -20.5t-11.5 -14.5z" />
    <glyph glyph-name="ellipsis" unicode="&#x2026;" horiz-adv-x="735" 
d="M105 0q-14 0 -22 8t-8 22v60q0 14 8 22t22 8h35q14 0 22 -8t8 -22v-60q0 -14 -8 -22t-22 -8h-35zM350 0q-14 0 -22 8t-8 22v60q0 14 8 22t22 8h35q14 0 22 -8t8 -22v-60q0 -14 -8 -22t-22 -8h-35zM595 0q-14 0 -22 8t-8 22v60q0 14 8 22t22 8h35q14 0 22 -8t8 -22v-60
q0 -14 -8 -22t-22 -8h-35z" />
    <glyph glyph-name="endash" unicode="&#x2013;" horiz-adv-x="510" 
d="M35 205q-14 0 -22 8t-8 22v25q0 14 8 22t22 8h390q14 0 22 -8t8 -22v-25q0 -14 -8 -22t-22 -8h-390z" />
    <glyph glyph-name="emdash" unicode="&#x2014;" horiz-adv-x="775" 
d="M35 205q-14 0 -22 8t-8 22v25q0 14 8 22t22 8h655q14 0 22 -8t8 -22v-25q0 -14 -8 -22t-22 -8h-655z" />
    <glyph glyph-name="quotedblleft" unicode="&#x201c;" horiz-adv-x="375" 
d="M309 470q-11 -7 -22 -3.5t-18 14.5l-96 140q-8 13 -4.5 23.5t15.5 18.5l30 18q12 7 23.5 4t17.5 -14l83 -150q13 -25 -11 -40zM170 470q-11 -7 -22 -3.5t-18 14.5l-96 140q-8 13 -4.5 23.5t15.5 18.5l30 18q12 7 23.5 4t17.5 -14l83 -150q13 -25 -11 -40z" />
    <glyph glyph-name="quotedblright" unicode="&#x201d;" horiz-adv-x="375" 
d="M43 481q-24 15 -11 40l83 150q6 11 17.5 14t23.5 -4l30 -18q12 -8 15.5 -18.5t-4.5 -23.5l-96 -140q-7 -11 -18 -14.5t-22 3.5zM182 481q-24 15 -11 40l83 150q6 11 17.5 14t23.5 -4l30 -18q12 -8 15.5 -18.5t-4.5 -23.5l-96 -140q-7 -11 -18 -14.5t-22 3.5z" />
    <glyph glyph-name="quoteleft" unicode="&#x2018;" horiz-adv-x="215" 
d="M166 470q-11 -7 -22 -3.5t-18 14.5l-96 140q-8 13 -4.5 23.5t15.5 18.5l30 18q12 7 23.5 4t17.5 -14l83 -150q13 -25 -11 -40z" />
    <glyph glyph-name="quoteright" unicode="&#x2019;" horiz-adv-x="215" 
d="M38 481q-24 15 -11 40l83 150q6 11 17.5 14t23.5 -4l30 -18q12 -8 15.5 -18.5t-4.5 -23.5l-96 -140q-7 -11 -18 -14.5t-22 3.5z" />
    <glyph glyph-name="divide" unicode="&#xf7;" 
d="M269 434q-14 0 -22 8t-8 22v60q0 14 8 22t22 8h35q14 0 22 -8t8 -22v-60q0 -14 -8 -22t-22 -8h-35zM115 288q-14 0 -22 8t-8 22v30q0 14 8 22t22 8h340q14 0 22 -8t8 -22v-30q0 -14 -8 -22t-22 -8h-340zM269 104q-14 0 -22 8t-8 22v60q0 14 8 22t22 8h35q14 0 22 -8
t8 -22v-60q0 -14 -8 -22t-22 -8h-35z" />
    <glyph glyph-name="fraction" unicode="&#x2044;" horiz-adv-x="312" 
d="M30 0q-29 0 -21 28l196 628q7 24 34 24h37q29 0 21 -28l-196 -628q-7 -24 -34 -24h-37z" />
    <glyph glyph-name="currency" unicode="&#xa4;" 
d="M415 460q0 29 -8 54.5t-24.5 44.5t-41 30t-56.5 11t-56.5 -11t-41 -30t-24.5 -44.5t-8 -54.5v-240q0 -29 8 -54.5t24.5 -44.5t41 -30t56.5 -11t56.5 11t41 30t24.5 44.5t8 54.5v240zM481 -32q-11 -6 -22 -3.5t-19 14.5l-19 32q-5 8 -9.5 9.5t-13.5 -3.5q-23 -13 -52 -20
t-61 -7t-60.5 7t-50.5 19q-15 8 -23 -5l-19 -32q-8 -12 -19 -14.5t-22 3.5l-31 17q-11 6 -14.5 18t3.5 23l31 54q6 11 5.5 19t-5.5 18q-9 20 -14.5 46t-5.5 52v250q0 53 20 98q8 19 -1 35l-32 56q-7 11 -3.5 23t14.5 18l31 17q11 6 22 3.5t19 -14.5l19 -32q5 -8 10 -9.5
t13 3.5q23 13 52 20t61 7t60.5 -7t50.5 -19q15 -8 23 5l19 32q8 12 19 14.5t22 -3.5l31 -17q11 -6 14.5 -18t-3.5 -23l-31 -54q-6 -11 -5.5 -19t5.5 -18q9 -20 14.5 -46t5.5 -52v-250q0 -53 -20 -98q-8 -19 1 -35l32 -56q7 -11 3.5 -23t-14.5 -18z" />
    <glyph glyph-name="guilsinglleft" unicode="&#x2039;" horiz-adv-x="270" 
d="M195 129q-8 -11 -18.5 -12.5t-22.5 8.5l-93 70q-9 7 -11.5 14.5t-2.5 20.5v26q0 14 2.5 21.5t11.5 14.5l93 70q11 8 22 7.5t19 -11.5l14 -17q8 -11 7 -21.5t-12 -18.5l-59 -47q-17 -10 0 -24l59 -44q11 -8 12 -19t-7 -21z" />
    <glyph glyph-name="guilsinglright" unicode="&#x203a;" horiz-adv-x="270" 
d="M118 125q-12 -10 -22.5 -8.5t-18.5 12.5l-14 17q-8 10 -7 21t12 19l59 44q17 14 0 24l-59 47q-11 8 -12 18.5t7 21.5l14 17q8 11 19 11.5t22 -7.5l93 -70q9 -7 11.5 -14.5t2.5 -21.5v-26q0 -13 -2.5 -20.5t-11.5 -14.5z" />
    <glyph glyph-name="daggerdbl" unicode="&#x2021;" horiz-adv-x="450" 
d="M208 -230q-14 0 -22 8t-8 22v140q0 10 -10 10h-93q-14 0 -22 8t-8 22v30q0 14 8 22t22 8h93q10 0 10 10v206q0 10 -10 10h-93q-14 0 -22 8t-8 22v30q0 14 8 22t22 8h93q10 0 10 10v135q0 14 8 22t22 8h35q14 0 22 -8t8 -22v-135q0 -10 10 -10h92q14 0 22 -8t8 -22v-30
q0 -14 -8 -22t-22 -8h-92q-10 0 -10 -10v-206q0 -10 10 -10h92q14 0 22 -8t8 -22v-30q0 -14 -8 -22t-22 -8h-92q-10 0 -10 -10v-140q0 -14 -8 -22t-22 -8h-35z" />
    <glyph glyph-name="periodcentered" unicode="&#xb7;" horiz-adv-x="235" 
d="M100 220q-14 0 -22 8t-8 22v60q0 14 8 22t22 8h35q14 0 22 -8t8 -22v-60q0 -14 -8 -22t-22 -8h-35z" />
    <glyph glyph-name="perthousand" unicode="&#x2030;" horiz-adv-x="840" 
d="M185 566q0 15 -10.5 24.5t-26.5 9.5t-26.5 -9.5t-10.5 -24.5v-80q0 -15 10.5 -24.5t26.5 -9.5t26.5 9.5t10.5 24.5v80zM459 184q0 15 -10.5 24.5t-26.5 9.5t-26.5 -9.5t-10.5 -24.5v-80q0 -15 10.5 -24.5t26.5 -9.5t26.5 9.5t10.5 24.5v80zM733 184q0 15 -10.5 24.5
t-26.5 9.5t-26.5 -9.5t-10.5 -24.5v-80q0 -15 10.5 -24.5t26.5 -9.5t26.5 9.5t10.5 24.5v80zM79 0q-14 0 -20 7.5t2 20.5l314 552q5 8 2 14.5t-12 6.5h-79q-16 0 -16 -16v-94q0 -51 -33.5 -85t-88.5 -34t-88.5 34t-33.5 85v70q0 25 10 47t26.5 38t38.5 25t47 9h346
q16 0 23 -10t-2 -26l-352 -620q-14 -24 -42 -24h-42zM544 109q0 -51 -33.5 -85t-88.5 -34t-88.5 34t-33.5 85v70q0 51 33.5 85t88.5 34t88.5 -34t33.5 -85v-70zM818 109q0 -51 -33.5 -85t-88.5 -34t-88.5 34t-33.5 85v70q0 51 33.5 85t88.5 34t88.5 -34t33.5 -85v-70z" />
    <glyph glyph-name="dotlessi" unicode="&#x131;" horiz-adv-x="230" 
d="M100 0q-14 0 -22 8t-8 22v390q0 14 8 22t22 8h30q14 0 22 -8t8 -22v-390q0 -14 -8 -22t-22 -8h-30z" />
    <glyph glyph-name="circumflex" unicode="&#x2c6;" horiz-adv-x="460" 
d="M320 537q-10 -8 -21 -6.5t-19 10.5l-35 40q-5 6 -14.5 7t-16.5 -7l-37 -40q-19 -23 -40 -5l-14 11q-10 8 -10.5 19.5t7.5 22.5l60 73q8 11 17.5 13t22.5 2h17q13 0 22.5 -2t17.5 -13l60 -73q8 -11 7.5 -22.5t-10.5 -19.5z" />
    <glyph glyph-name="tilde" unicode="&#x2dc;" horiz-adv-x="460" 
d="M368 611q10 -10 9.5 -22t-8.5 -23q-15 -19 -38 -32t-51 -13q-18 0 -30.5 4.5t-22.5 10t-19.5 10t-20.5 4.5q-8 0 -16.5 -4.5t-13.5 -9.5q-12 -12 -21.5 -10t-20.5 13l-15 15q-10 10 -9.5 23t9.5 24q13 14 35 27t49 13q18 0 30.5 -5t22.5 -11t19.5 -11t20.5 -5q7 0 17 5
t15 11q22 23 44 1z" />
    <glyph glyph-name="macron" unicode="&#xaf;" horiz-adv-x="460" 
d="M155 545q-14 0 -22 8t-8 22v25q0 14 8 22t22 8h150q14 0 22 -8t8 -22v-25q0 -14 -8 -22t-22 -8h-150z" />
    <glyph glyph-name="breve" unicode="&#x2d8;" horiz-adv-x="460" 
d="M333 609q0 -43 -28 -71.5t-75 -28.5q-46 0 -74 28t-28 72v11q0 14 8 22t22 8h20q14 0 22 -8t8 -22v-11q0 -10 5.5 -16.5t16.5 -6.5t17 6.5t6 16.5v11q0 14 8 22t22 8h20q14 0 22 -8t8 -22v-11z" />
    <glyph glyph-name="dotaccent" unicode="&#x2d9;" horiz-adv-x="230" 
d="M100 520q-14 0 -22 8t-8 22v50q0 14 8 22t22 8h30q14 0 22 -8t8 -22v-50q0 -14 -8 -22t-22 -8h-30z" />
    <glyph glyph-name="ring" unicode="&#x2da;" horiz-adv-x="440" 
d="M323 587q0 -41 -27.5 -67t-68.5 -26t-68.5 26t-27.5 67t27.5 67t68.5 26t68.5 -26t27.5 -67zM227 541q19 0 31 13.5t12 32.5t-12 32.5t-31 13.5t-31 -13.5t-12 -32.5t12 -32.5t31 -13.5z" />
    <glyph glyph-name="cedilla" unicode="&#xb8;" horiz-adv-x="420" 
d="M173 -230q-28 0 -28 28v12q0 28 28 28h42q10 0 17.5 8t7.5 19t-7.5 19.5t-17.5 8.5h-42q-28 0 -28 28v12q0 28 28 28h33q21 0 40.5 -6.5t34.5 -18.5t23.5 -30t8.5 -41q0 -46 -31.5 -70.5t-75.5 -24.5h-33z" />
    <glyph glyph-name="hungarumlaut" unicode="&#x2dd;" horiz-adv-x="460" 
d="M210 535q-8 -10 -19.5 -11t-22.5 7l-20 16q-11 8 -11.5 19.5t7.5 22.5l72 88q9 11 20.5 12t21.5 -8l20 -15q11 -9 12 -20.5t-8 -22.5zM363 529q-8 -10 -19.5 -11t-22.5 7l-20 16q-11 8 -11.5 19.5t7.5 22.5l72 88q9 11 20.5 12t21.5 -8l20 -15q11 -9 12 -20.5t-8 -22.5z
" />
    <glyph glyph-name="ogonek" unicode="&#x2db;" horiz-adv-x="440" 
d="M302 -120q-44 0 -75.5 24.5t-31.5 70.5q0 23 8.5 41t23.5 30t34.5 18.5t40.5 6.5h-4q28 0 28 -28v-15q0 -28 -28 -28q-10 0 -17.5 -7t-7.5 -18t7.5 -17.5t17.5 -6.5h37q28 0 28 -28v-15q0 -28 -28 -28h-33z" />
    <glyph glyph-name="caron" unicode="&#x2c7;" horiz-adv-x="360" 
d="M237 540q-8 -11 -17.5 -13t-22.5 -2h-17q-13 0 -22.5 2t-17.5 13l-60 73q-8 11 -7.5 22.5t10.5 19.5l14 10q10 8 21 6.5t19 -10.5l35 -40q5 -6 14.5 -7t16.5 7l37 40q19 23 40 5l14 -11q10 -8 10.5 -19.5t-7.5 -22.5z" />
    <glyph glyph-name="Euro" unicode="&#x20ac;" 
d="M510 110q10 -10 9 -22t-9 -20q-32 -32 -75 -55t-111 -23q-49 0 -91 18t-72.5 50t-48 76.5t-17.5 97.5q0 9 -9 9h-37q-14 0 -21.5 8t-7.5 21v23q0 29 29 29h37q9 0 9 9v19q0 10 -9 10h-37q-29 0 -29 28v24q0 13 7.5 21t21.5 8h37q9 0 9 9q0 52 17.5 96.5t48 76t72.5 49.5
t91 18q33 0 60 -6.5t49 -16.5t38.5 -22.5t27.5 -23.5q21 -21 0 -42l-23 -23q-10 -10 -19 -10.5t-21 10.5q-13 12 -39.5 28t-72.5 16q-32 0 -56.5 -11.5t-42 -32t-26.5 -48t-9 -58.5q0 -9 10 -9h137q15 0 21.5 -7.5t0.5 -21.5l-11 -28q-6 -14 -15 -19t-22 -5h-111
q-10 0 -10 -10v-19q0 -9 10 -9h92q20 0 24 -7.5t-1 -21.5l-14 -32q-5 -12 -13 -16t-22 -4h-66q-10 0 -10 -9q0 -67 35.5 -109.5t98.5 -42.5q44 0 74.5 16.5t49.5 33.5q9 8 20.5 9t21.5 -9z" />
    <glyph glyph-name="s_t" unicode="&#xfb06;" horiz-adv-x="675" 
d="M586 0q-75 0 -110.5 41t-35.5 114v200q0 10 -10 10h-30q-14 0 -22 8t-8 22v25q0 14 8 22t22 8h30q10 0 10 10v130q0 10 -10 10h-162q-37 0 -60.5 -17.5t-23.5 -42.5t15.5 -43.5t35.5 -33.5t40 -26.5t29 -21.5q8 -10 8.5 -21.5t-8.5 -20.5l-18 -19q-9 -9 -18.5 -11.5
t-19.5 7.5q-27 25 -60 25q-29 0 -42.5 -13t-13.5 -34q0 -20 19 -34t48 -27q28 -12 50.5 -26t38.5 -30.5t25 -37t9 -47.5q0 -33 -13 -58.5t-34.5 -43t-49 -26t-55.5 -8.5q-46 0 -76 12.5t-48 33.5q-8 9 -8.5 21t8.5 21l18 22q17 20 41 -1q11 -9 26.5 -16.5t37.5 -7.5
q27 0 45 12t18 32q0 19 -15.5 33t-57.5 35q-27 13 -48 27t-35.5 30.5t-22.5 36.5t-8 47q0 40 22.5 73t67.5 50q11 5 2 14q-11 11 -21 30.5t-10 48.5q0 32 12.5 57t34.5 42.5t52.5 27t67.5 9.5h227q30 0 30 -30v-190q0 -10 10 -10h75q14 0 22 -8t8 -22v-25q0 -14 -8 -22
t-22 -8h-75q-10 0 -10 -10v-195q0 -35 13.5 -55t51.5 -20h20q14 0 22 -8t8 -22v-25q0 -14 -8 -22t-22 -8h-29z" />
    <glyph glyph-name="c_t" horiz-adv-x="735" 
d="M646 0q-75 0 -110.5 41t-35.5 114v200q0 10 -10 10h-30q-14 0 -22 8t-8 22v25q0 14 8 22t22 8h30q10 0 10 10v130q0 10 -10 10h-178q-37 0 -58 -17.5t-21 -41.5q0 -22 12.5 -38.5t31.5 -31.5t40.5 -29t38.5 -32q9 -9 9 -21t-9 -21l-19 -19q-19 -19 -41 1
q-11 10 -28.5 17.5t-37.5 7.5q-48 0 -69 -28.5t-21 -66.5v-110q0 -19 4.5 -36.5t15 -30.5t27.5 -20.5t43 -7.5t45 11t30 21q23 19 42 0l18 -18q9 -9 8 -20t-9 -21q-17 -20 -52.5 -39t-81.5 -19q-44 0 -77.5 14.5t-56.5 39t-34.5 57.5t-11.5 69v110q0 30 8.5 57.5t24.5 50.5
t39 40t53 25q5 2 7.5 6t-2.5 9q-10 10 -20 29t-10 47q0 32 12.5 57t34.5 42.5t52.5 27t67.5 9.5h243q30 0 30 -30v-190q0 -10 10 -10h75q14 0 22 -8t8 -22v-25q0 -14 -8 -22t-22 -8h-75q-10 0 -10 -10v-195q0 -35 13.5 -55t51.5 -20h20q14 0 22 -8t8 -22v-25q0 -14 -8 -22
t-22 -8h-29z" />
    <glyph glyph-name="uni00A0" unicode="&#xa0;" horiz-adv-x="280" 
 />
    <glyph glyph-name="edieresis" unicode="&#xeb;" horiz-adv-x="460" 
d="M385 98q9 -9 8.5 -20t-8.5 -21q-20 -25 -59 -46t-93 -21q-42 0 -75.5 13.5t-57.5 37.5t-37 56t-13 68v118q0 36 11.5 68.5t34 56.5t55 38t74.5 14t75 -14t56.5 -38t36 -56.5t12.5 -68.5v-60q0 -14 -8 -22t-22 -8h-225q-10 0 -10 -10v-18q0 -38 22.5 -64t70.5 -26
q38 0 59 13.5t32 25.5q11 11 22 10.5t20 -9.5zM315 283q0 38 -21 65t-69 27q-47 0 -66 -27t-19 -65v-5q0 -10 10 -10h155q10 0 10 10v5zM120 520q-14 0 -22 8t-8 22v50q0 14 8 22t22 8h35q14 0 22 -8t8 -22v-50q0 -14 -8 -22t-22 -8h-35zM300 520q-14 0 -22 8t-8 22v50
q0 14 8 22t22 8h35q14 0 22 -8t8 -22v-50q0 -14 -8 -22t-22 -8h-35z" />
    <glyph glyph-name="ecircumflex" unicode="&#xea;" horiz-adv-x="460" 
d="M385 98q9 -9 8.5 -20t-8.5 -21q-20 -25 -59 -46t-93 -21q-42 0 -75.5 13.5t-57.5 37.5t-37 56t-13 68v118q0 36 11.5 68.5t34 56.5t55 38t74.5 14t75 -14t56.5 -38t36 -56.5t12.5 -68.5v-60q0 -14 -8 -22t-22 -8h-225q-10 0 -10 -10v-18q0 -38 22.5 -64t70.5 -26
q38 0 59 13.5t32 25.5q11 11 22 10.5t20 -9.5zM315 283q0 38 -21 65t-69 27q-47 0 -66 -27t-19 -65v-5q0 -10 10 -10h155q10 0 10 10v5zM321 537q-10 -8 -21 -6.5t-19 10.5l-35 40q-5 6 -14.5 7t-16.5 -7l-37 -40q-19 -23 -40 -5l-14 11q-10 8 -10.5 19.5t7.5 22.5l60 73
q8 11 17.5 13t22.5 2h17q13 0 22.5 -2t17.5 -13l60 -73q8 -11 7.5 -22.5t-10.5 -19.5z" />
    <glyph glyph-name="egrave" unicode="&#xe8;" horiz-adv-x="460" 
d="M385 98q9 -9 8.5 -20t-8.5 -21q-20 -25 -59 -46t-93 -21q-42 0 -75.5 13.5t-57.5 37.5t-37 56t-13 68v118q0 36 11.5 68.5t34 56.5t55 38t74.5 14t75 -14t56.5 -38t36 -56.5t12.5 -68.5v-60q0 -14 -8 -22t-22 -8h-225q-10 0 -10 -10v-18q0 -38 22.5 -64t70.5 -26
q38 0 59 13.5t32 25.5q11 11 22 10.5t20 -9.5zM315 283q0 38 -21 65t-69 27q-47 0 -66 -27t-19 -65v-5q0 -10 10 -10h155q10 0 10 10v5zM258 525q-11 -8 -22.5 -7t-19.5 11l-72 88q-9 11 -8 22.5t12 20.5l20 15q10 9 21.5 8t20.5 -12l72 -88q8 -11 7.5 -22.5t-11.5 -19.5z
" />
    <glyph glyph-name="eacute" unicode="&#xe9;" horiz-adv-x="460" 
d="M385 98q9 -9 8.5 -20t-8.5 -21q-20 -25 -59 -46t-93 -21q-42 0 -75.5 13.5t-57.5 37.5t-37 56t-13 68v118q0 36 11.5 68.5t34 56.5t55 38t74.5 14t75 -14t56.5 -38t36 -56.5t12.5 -68.5v-60q0 -14 -8 -22t-22 -8h-225q-10 0 -10 -10v-18q0 -38 22.5 -64t70.5 -26
q38 0 59 13.5t32 25.5q11 11 22 10.5t20 -9.5zM315 283q0 38 -21 65t-69 27q-47 0 -66 -27t-19 -65v-5q0 -10 10 -10h155q10 0 10 10v5zM247 529q-8 -10 -19.5 -11t-22.5 7l-20 16q-11 8 -11.5 19.5t7.5 22.5l72 88q9 11 20.5 12t21.5 -8l20 -15q11 -9 12 -20.5t-8 -22.5z
" />
    <glyph glyph-name="ccedilla" unicode="&#xe7;" horiz-adv-x="406" 
d="M365 89q9 -9 8 -20t-9 -21q-17 -20 -52.5 -39t-81.5 -19q-44 0 -77.5 14.5t-56.5 39t-34.5 57.5t-11.5 69v110q0 36 12.5 69t36 57.5t56.5 39t75 14.5q41 0 73 -14.5t53 -35.5q9 -9 9 -21t-9 -21l-19 -19q-19 -19 -41 1q-11 10 -28.5 17.5t-37.5 7.5q-48 0 -69 -28.5
t-21 -66.5v-110q0 -19 4.5 -36.5t15 -30.5t27.5 -20.5t43 -7.5t45 11t30 21q23 19 42 0zM149 -230q-28 0 -28 28v12q0 28 28 28h42q10 0 17.5 8t7.5 19t-7.5 19.5t-17.5 8.5h-42q-28 0 -28 28v12q0 28 28 28h33q21 0 40.5 -6.5t34.5 -18.5t23.5 -30t8.5 -41
q0 -46 -31.5 -70.5t-75.5 -24.5h-33z" />
    <glyph glyph-name="questiondown" unicode="&#xbf;" horiz-adv-x="400" 
d="M259 330q-14 0 -22 8t-8 22v60q0 14 8 22t22 8h35q14 0 22 -8t8 -22v-60q0 -14 -8 -22t-22 -8h-35zM223 -230q-41 0 -77 13t-63.5 37t-43.5 58.5t-16 77.5t16 77.5t43 59.5t62.5 38.5t74.5 13.5q10 0 10 10v65q0 14 8 22t22 8h35q14 0 22 -8t8 -22v-130q0 -14 -8 -22
t-22 -8h-81q-45 0 -72.5 -29t-27.5 -73q0 -22 8.5 -40t22.5 -31t32 -20t37 -7h140q14 0 22 -8t8 -22v-30q0 -14 -8 -22t-22 -8h-130z" />
    <glyph glyph-name="yacute" unicode="&#xfd;" horiz-adv-x="470" 
d="M330 -10q0 10 -10 10h-93q-37 0 -68 12.5t-53 34.5t-34 52.5t-12 66.5v254q0 14 8 22t22 8h30q14 0 22 -8t8 -22v-254q0 -38 21.5 -59.5t59.5 -21.5h89q10 0 10 10v325q0 14 8 22t22 8h30q14 0 22 -8t8 -22v-473q0 -38 -13 -72t-37 -59.5t-58 -40.5t-77 -15
q-51 0 -85 10.5t-60 27.5q-11 7 -14.5 18t2.5 22l12 23q13 25 39 12q21 -12 46 -20t60 -8q51 0 73 27.5t22 74.5v43zM252 529q-8 -10 -19.5 -11t-22.5 7l-20 16q-11 8 -11.5 19.5t7.5 22.5l72 88q9 11 20.5 12t21.5 -8l20 -15q11 -9 12 -20.5t-8 -22.5z" />
    <glyph glyph-name="ydieresis" unicode="&#xff;" horiz-adv-x="470" 
d="M330 -10q0 10 -10 10h-93q-37 0 -68 12.5t-53 34.5t-34 52.5t-12 66.5v254q0 14 8 22t22 8h30q14 0 22 -8t8 -22v-254q0 -38 21.5 -59.5t59.5 -21.5h89q10 0 10 10v325q0 14 8 22t22 8h30q14 0 22 -8t8 -22v-473q0 -38 -13 -72t-37 -59.5t-58 -40.5t-77 -15
q-51 0 -85 10.5t-60 27.5q-11 7 -14.5 18t2.5 22l12 23q13 25 39 12q21 -12 46 -20t60 -8q51 0 73 27.5t22 74.5v43zM125 520q-14 0 -22 8t-8 22v50q0 14 8 22t22 8h35q14 0 22 -8t8 -22v-50q0 -14 -8 -22t-22 -8h-35zM305 520q-14 0 -22 8t-8 22v50q0 14 8 22t22 8h35
q14 0 22 -8t8 -22v-50q0 -14 -8 -22t-22 -8h-35z" />
    <glyph glyph-name="colon" unicode=":" horiz-adv-x="235" 
d="M100 0q-14 0 -22 8t-8 22v60q0 14 8 22t22 8h35q14 0 22 -8t8 -22v-60q0 -14 -8 -22t-22 -8h-35zM100 330q-14 0 -22 8t-8 22v60q0 14 8 22t22 8h35q14 0 22 -8t8 -22v-60q0 -14 -8 -22t-22 -8h-35z" />
    <glyph glyph-name="D" unicode="D" horiz-adv-x="580" 
d="M100 0q-14 0 -22 8t-8 22v620q0 14 8 22t22 8h175q55 0 100.5 -18.5t77.5 -50.5t49.5 -76t17.5 -95v-200q0 -51 -17.5 -95t-49.5 -76t-77.5 -50.5t-100.5 -18.5h-175zM425 440q0 35 -11 63t-31 47.5t-47.5 29.5t-60.5 10h-100q-10 0 -10 -10v-480q0 -10 10 -10h100
q33 0 60.5 10t47.5 29t31 47t11 64v200z" />
    <glyph glyph-name="m" unicode="m" horiz-adv-x="720" 
d="M600 0q-14 0 -22 8t-8 22v260q0 16 -5 31t-15 27t-25.5 19.5t-37.5 7.5t-37.5 -7.5t-25.5 -19.5t-14.5 -27t-4.5 -31v-260q0 -14 -8 -22t-22 -8h-30q-14 0 -22 8t-8 22v260q0 16 -5 31t-15 27t-25.5 19.5t-36.5 7.5t-37 -7.5t-26 -19.5t-15 -27t-5 -31v-260q0 -14 -8 -22
t-22 -8h-30q-14 0 -22 8t-8 22v260q0 36 12.5 67.5t35 54t54.5 35.5t71 13q38 0 67.5 -14t49.5 -31q10 -9 19 0q19 19 48.5 32t69.5 13q39 0 71 -13t54.5 -35.5t35 -54t12.5 -67.5v-260q0 -14 -8 -22t-22 -8h-30z" />
    <glyph glyph-name="ntilde" unicode="&#xf1;" horiz-adv-x="490" 
d="M370 0q-14 0 -22 8t-8 22v250q0 38 -23.5 66.5t-71.5 28.5t-71.5 -28.5t-23.5 -66.5v-250q0 -14 -8 -22t-22 -8h-30q-14 0 -22 8t-8 22v250q0 36 13.5 69t37.5 57.5t58 39t76 14.5t76 -14.5t58 -39t37.5 -57.5t13.5 -69v-250q0 -14 -8 -22t-22 -8h-30zM379 611
q10 -10 9.5 -22t-8.5 -23q-15 -19 -38 -32t-51 -13q-18 0 -30.5 4.5t-22.5 10t-19.5 10t-20.5 4.5q-8 0 -16.5 -4.5t-13.5 -9.5q-12 -12 -21.5 -10t-20.5 13l-15 15q-10 10 -9.5 23t9.5 24q13 14 35 27t49 13q18 0 30.5 -5t22.5 -11t19.5 -11t20.5 -5q7 0 17 5t15 11
q22 23 44 1z" />
    <glyph glyph-name="uacute" unicode="&#xfa;" horiz-adv-x="485" 
d="M335 420q0 14 8 22t22 8h30q14 0 22 -8t8 -22v-250q0 -36 -13 -69t-36.5 -57.5t-57 -39t-75.5 -14.5t-75.5 14.5t-57.5 39t-37 57.5t-13 69v250q0 14 8 22t22 8h30q14 0 22 -8t8 -22v-250q0 -38 22.5 -66.5t70.5 -28.5t70 28.5t22 66.5v250zM268 529q-8 -10 -19.5 -11
t-22.5 7l-20 16q-11 8 -11.5 19.5t7.5 22.5l72 88q9 11 20.5 12t21.5 -8l20 -15q11 -9 12 -20.5t-8 -22.5z" />
    <glyph glyph-name="ugrave" unicode="&#xf9;" horiz-adv-x="485" 
d="M335 420q0 14 8 22t22 8h30q14 0 22 -8t8 -22v-250q0 -36 -13 -69t-36.5 -57.5t-57 -39t-75.5 -14.5t-75.5 14.5t-57.5 39t-37 57.5t-13 69v250q0 14 8 22t22 8h30q14 0 22 -8t8 -22v-250q0 -38 22.5 -66.5t70.5 -28.5t70 28.5t22 66.5v250zM289 525q-11 -8 -22.5 -7
t-19.5 11l-72 88q-9 11 -8 22.5t12 20.5l20 15q10 9 21.5 8t20.5 -12l72 -88q8 -11 7.5 -22.5t-11.5 -19.5z" />
    <glyph glyph-name="ucircumflex" unicode="&#xfb;" horiz-adv-x="485" 
d="M335 420q0 14 8 22t22 8h30q14 0 22 -8t8 -22v-250q0 -36 -13 -69t-36.5 -57.5t-57 -39t-75.5 -14.5t-75.5 14.5t-57.5 39t-37 57.5t-13 69v250q0 14 8 22t22 8h30q14 0 22 -8t8 -22v-250q0 -38 22.5 -66.5t70.5 -28.5t70 28.5t22 66.5v250zM334 537q-10 -8 -21 -6.5
t-19 10.5l-35 40q-5 6 -14.5 7t-16.5 -7l-37 -40q-19 -23 -40 -5l-14 11q-10 8 -10.5 19.5t7.5 22.5l60 73q8 11 17.5 13t22.5 2h17q13 0 22.5 -2t17.5 -13l60 -73q8 -11 7.5 -22.5t-10.5 -19.5z" />
    <glyph glyph-name="udieresis" unicode="&#xfc;" horiz-adv-x="485" 
d="M335 420q0 14 8 22t22 8h30q14 0 22 -8t8 -22v-250q0 -36 -13 -69t-36.5 -57.5t-57 -39t-75.5 -14.5t-75.5 14.5t-57.5 39t-37 57.5t-13 69v250q0 14 8 22t22 8h30q14 0 22 -8t8 -22v-250q0 -38 22.5 -66.5t70.5 -28.5t70 28.5t22 66.5v250zM135 520q-14 0 -22 8t-8 22
v50q0 14 8 22t22 8h35q14 0 22 -8t8 -22v-50q0 -14 -8 -22t-22 -8h-35zM315 520q-14 0 -22 8t-8 22v50q0 14 8 22t22 8h35q14 0 22 -8t8 -22v-50q0 -14 -8 -22t-22 -8h-35z" />
    <glyph glyph-name="s" unicode="s" horiz-adv-x="360" 
d="M64 100q17 20 41 -1q11 -9 26.5 -16.5t37.5 -7.5q27 0 45 12t18 32q0 19 -15.5 33t-57.5 35q-27 13 -48 27t-35.5 30.5t-22.5 36.5t-8 47t10 51t28.5 42t45 28.5t59.5 10.5q40 0 71 -15t45 -30q8 -10 8.5 -21.5t-8.5 -20.5l-18 -19q-9 -9 -18.5 -11.5t-19.5 7.5
q-27 25 -60 25q-29 0 -42.5 -13t-13.5 -34q0 -20 19 -34t48 -27q28 -12 50.5 -26t38.5 -30.5t25 -37t9 -47.5q0 -33 -13 -58.5t-34.5 -43t-49 -26t-55.5 -8.5q-46 0 -76 12.5t-48 33.5q-8 9 -8.5 21t8.5 21z" />
    <glyph glyph-name="scaron" unicode="&#x161;" horiz-adv-x="360" 
d="M64 100q17 20 41 -1q11 -9 26.5 -16.5t37.5 -7.5q27 0 45 12t18 32q0 19 -15.5 33t-57.5 35q-27 13 -48 27t-35.5 30.5t-22.5 36.5t-8 47t10 51t28.5 42t45 28.5t59.5 10.5q40 0 71 -15t45 -30q8 -10 8.5 -21.5t-8.5 -20.5l-18 -19q-9 -9 -18.5 -11.5t-19.5 7.5
q-27 25 -60 25q-29 0 -42.5 -13t-13.5 -34q0 -20 19 -34t48 -27q28 -12 50.5 -26t38.5 -30.5t25 -37t9 -47.5q0 -33 -13 -58.5t-34.5 -43t-49 -26t-55.5 -8.5q-46 0 -76 12.5t-48 33.5q-8 9 -8.5 21t8.5 21zM236 540q-8 -11 -17.5 -13t-22.5 -2h-17q-13 0 -22.5 2t-17.5 13
l-60 73q-8 11 -7.5 22.5t10.5 19.5l14 10q10 8 21 6.5t19 -10.5l35 -40q5 -6 14.5 -7t16.5 7l37 40q19 23 40 5l14 -11q10 -8 10.5 -19.5t-7.5 -22.5z" />
    <glyph glyph-name="infinity" unicode="&#x221e;" horiz-adv-x="875" 
d="M834 318q7 -7 7 -17t-7 -18q-17 -20 -50 -36.5t-67 -16.5q-17 0 -32.5 2t-26.5 7q-14 5 -22 1.5t-13 -11.5q-10 -15 -25.5 -29t-34 -25.5t-40.5 -18.5t-45 -7q-27 0 -52 6.5t-48 17t-44.5 24l-41.5 26.5q-35 23 -68 40.5t-66 17.5q-20 0 -34 -7t-28 -19q-8 -8 -15 -6
t-15 10l-25 25q-7 7 -7 17t7 18q9 10 21.5 19.5t28 17t33 12t34.5 4.5t32.5 -3.5t30.5 -8.5q11 -4 16.5 -2.5t13.5 14.5q19 32 58 56.5t88 24.5q27 0 52 -6.5t48 -17t44.5 -24l41.5 -26.5q35 -23 68 -40.5t66 -17.5q20 0 33.5 7t27.5 19q8 8 15.5 6t15.5 -10zM548 266
q9 11 4 19.5t-19 17.5q-44 28 -77 45.5t-60 17.5q-23 0 -40.5 -8t-28.5 -22q-15 -19 10 -35l76.5 -45t65.5 -20q23 0 40.5 8t28.5 22z" />
    <glyph glyph-name="pi" unicode="&#x3c0;" horiz-adv-x="889" 
d="M841 322q7 -7 7 -17t-7 -18q-17 -20 -50 -36.5t-67 -16.5q-24 0 -49.5 7.5t-50.5 19t-49 25.5l-45 27q-36 23 -68 37.5t-59 14.5q-32 0 -53.5 -15.5t-27.5 -39.5q-3 -11 0 -18.5t11 -15.5q20 -18 37.5 -36.5t34.5 -33t33.5 -23.5t34.5 -9q29 0 48.5 13.5t31.5 36.5
q6 11 14.5 12.5t17.5 -3.5l31 -18q9 -5 10.5 -14.5t-2.5 -18.5q-7 -17 -22 -34t-35.5 -30.5t-45 -22t-49.5 -8.5q-29 0 -53 11t-46 28t-41.5 36.5l-37.5 37.5l-30.5 27t-33.5 26t-33.5 19.5t-31.5 7.5q-20 0 -34 -7t-28 -19q-8 -8 -15 -6t-15 10l-25 25q-7 7 -7 17t7 18
q9 10 21.5 19.5t28 17t33 12t34.5 4.5t32 -3.5t24 -8.5q14 -8 20 -6.5t14 15.5q9 16 24.5 31t35 27t42.5 19t47 7q54 0 99.5 -21.5t86.5 -47.5q35 -23 68 -40.5t66 -17.5q20 0 33.5 7t27.5 19q8 8 15.5 6t15.5 -10z" />
    <glyph glyph-name="product" unicode="&#x220f;" horiz-adv-x="889" 
d="M816 258q-8 -8 -15 -10t-15 6q-14 12 -28 19t-34 7q-15 0 -31.5 -7.5t-33.5 -19.5t-33.5 -26l-30.5 -27l-37.5 -37.5t-41.5 -36.5t-46.5 -28t-52.5 -11q-26 0 -50 8.5t-44.5 22t-35.5 30.5t-22 34q-4 9 -2.5 18.5t10.5 14.5l31 18q9 5 17.5 3.5t14.5 -12.5
q12 -23 31.5 -36.5t48.5 -13.5q18 0 34.5 9t33.5 23.5t34.5 33t37.5 36.5q8 8 11 15.5t0 18.5q-6 24 -27.5 39.5t-53.5 15.5q-27 0 -59 -14.5t-68 -37.5l-45 -27t-49 -25.5t-50.5 -19t-49.5 -7.5q-17 0 -34.5 4.5t-33 12t-28 17t-21.5 19.5q-7 8 -7 18t7 17l25 25
q17 17 31 4q14 -12 27.5 -19t33.5 -7q33 0 66 17.5t68 40.5q41 26 86.5 47.5t99.5 21.5q24 0 47 -7t42.5 -19t35 -27t24.5 -31q8 -14 14 -15.5t20 6.5q9 5 24 8.5t32 3.5q34 0 67 -16.5t50 -36.5q7 -8 7 -18t-7 -17z" />
    <glyph glyph-name="Aring" unicode="&#xc5;" horiz-adv-x="580" 
d="M521 0q-10 -8 -22.5 -7t-23.5 7l-291 170q-7 4 -12.5 0t-7.5 -10l-41 -136q-7 -24 -34 -24h-49q-29 0 -21 28l200 625q5 16 13.5 21.5t22.5 5.5h70q14 0 22.5 -5.5t13.5 -21.5l191 -598q7 -23 -8 -36zM300 553q-3 11 -10 11t-10 -11l-79 -264q-4 -13 -1 -19.5t10 -10.5
l188 -110q11 -7 16 -1.5t3 12.5zM386 817q0 -41 -27.5 -67t-68.5 -26t-68.5 26t-27.5 67t27.5 67t68.5 26t68.5 -26t27.5 -67zM290 771q19 0 31 13.5t12 32.5t-12 32.5t-31 13.5t-31 -13.5t-12 -32.5t12 -32.5t31 -13.5z" />
    <glyph glyph-name="Adieresis" unicode="&#xc4;" horiz-adv-x="580" 
d="M521 0q-10 -8 -22.5 -7t-23.5 7l-291 170q-7 4 -12.5 0t-7.5 -10l-41 -136q-7 -24 -34 -24h-49q-29 0 -21 28l200 625q5 16 13.5 21.5t22.5 5.5h70q14 0 22.5 -5.5t13.5 -21.5l191 -598q7 -23 -8 -36zM300 553q-3 11 -10 11t-10 -11l-79 -264q-4 -13 -1 -19.5t10 -10.5
l188 -110q11 -7 16 -1.5t3 12.5zM182 750q-14 0 -22 8t-8 22v50q0 14 8 22t22 8h35q14 0 22 -8t8 -22v-50q0 -14 -8 -22t-22 -8h-35zM362 750q-14 0 -22 8t-8 22v50q0 14 8 22t22 8h35q14 0 22 -8t8 -22v-50q0 -14 -8 -22t-22 -8h-35z" />
    <glyph glyph-name="Agrave" unicode="&#xc0;" horiz-adv-x="580" 
d="M521 0q-10 -8 -22.5 -7t-23.5 7l-291 170q-7 4 -12.5 0t-7.5 -10l-41 -136q-7 -24 -34 -24h-49q-29 0 -21 28l200 625q5 16 13.5 21.5t22.5 5.5h70q14 0 22.5 -5.5t13.5 -21.5l191 -598q7 -23 -8 -36zM300 553q-3 11 -10 11t-10 -11l-79 -264q-4 -13 -1 -19.5t10 -10.5
l188 -110q11 -7 16 -1.5t3 12.5zM303 755q-11 -8 -22.5 -7t-19.5 11l-72 88q-9 11 -8 22.5t12 20.5l20 15q10 9 21.5 8t20.5 -12l72 -88q8 -11 7.5 -22.5t-11.5 -19.5z" />
    <glyph glyph-name="Atilde" unicode="&#xc3;" horiz-adv-x="580" 
d="M521 0q-10 -8 -22.5 -7t-23.5 7l-291 170q-7 4 -12.5 0t-7.5 -10l-41 -136q-7 -24 -34 -24h-49q-29 0 -21 28l200 625q5 16 13.5 21.5t22.5 5.5h70q14 0 22.5 -5.5t13.5 -21.5l191 -598q7 -23 -8 -36zM300 553q-3 11 -10 11t-10 -11l-79 -264q-4 -13 -1 -19.5t10 -10.5
l188 -110q11 -7 16 -1.5t3 12.5zM424 841q10 -10 9.5 -22t-8.5 -23q-15 -19 -38 -32t-51 -13q-18 0 -30.5 4.5t-22.5 10t-19.5 10t-20.5 4.5q-8 0 -16.5 -4.5t-13.5 -9.5q-12 -12 -21.5 -10t-20.5 13l-15 15q-10 10 -9.5 23t9.5 24q13 14 35 27t49 13q18 0 30.5 -5t22.5 -11
t19.5 -11t20.5 -5q7 0 17 5t15 11q22 23 44 1z" />
    <glyph glyph-name="Acircumflex" unicode="&#xc2;" horiz-adv-x="580" 
d="M521 0q-10 -8 -22.5 -7t-23.5 7l-291 170q-7 4 -12.5 0t-7.5 -10l-41 -136q-7 -24 -34 -24h-49q-29 0 -21 28l200 625q5 16 13.5 21.5t22.5 5.5h70q14 0 22.5 -5.5t13.5 -21.5l191 -598q7 -23 -8 -36zM300 553q-3 11 -10 11t-10 -11l-79 -264q-4 -13 -1 -19.5t10 -10.5
l188 -110q11 -7 16 -1.5t3 12.5zM381 767q-10 -8 -21 -6.5t-19 10.5l-35 40q-5 6 -14.5 7t-16.5 -7l-37 -40q-19 -23 -40 -5l-14 11q-10 8 -10.5 19.5t7.5 22.5l60 73q8 11 17.5 13t22.5 2h17q13 0 22.5 -2t17.5 -13l60 -73q8 -11 7.5 -22.5t-10.5 -19.5z" />
    <glyph glyph-name="Aacute" unicode="&#xc1;" horiz-adv-x="580" 
d="M521 0q-10 -8 -22.5 -7t-23.5 7l-291 170q-7 4 -12.5 0t-7.5 -10l-41 -136q-7 -24 -34 -24h-49q-29 0 -21 28l200 625q5 16 13.5 21.5t22.5 5.5h70q14 0 22.5 -5.5t13.5 -21.5l191 -598q7 -23 -8 -36zM300 553q-3 11 -10 11t-10 -11l-79 -264q-4 -13 -1 -19.5t10 -10.5
l188 -110q11 -7 16 -1.5t3 12.5zM340 759q-8 -10 -19.5 -11t-22.5 7l-20 16q-11 8 -11.5 19.5t7.5 22.5l72 88q9 11 20.5 12t21.5 -8l20 -15q11 -9 12 -20.5t-8 -22.5z" />
    <glyph glyph-name="Yacute" unicode="&#xdd;" horiz-adv-x="530" 
d="M250 0q-14 0 -22 8t-8 22v240q0 17 -14 22q-78 22 -122 81.5t-44 146.5v130q0 14 8 22t22 8h35q14 0 22 -8t8 -22v-130q0 -30 7.5 -56.5t23.5 -46t40.5 -31t58.5 -11.5t58.5 11.5t40.5 31t23.5 46t7.5 56.5v130q0 14 8 22t22 8h35q14 0 22 -8t8 -22v-130q0 -85 -43 -146
t-118 -81q-8 -2 -11 -8.5t-3 -14.5v-240q0 -14 -8 -22t-22 -8h-35zM298 759q-8 -10 -19.5 -11t-22.5 7l-20 16q-11 8 -11.5 19.5t7.5 22.5l72 88q9 11 20.5 12t21.5 -8l20 -15q11 -9 12 -20.5t-8 -22.5z" />
    <glyph glyph-name="Ydieresis" unicode="&#x178;" horiz-adv-x="530" 
d="M250 0q-14 0 -22 8t-8 22v240q0 17 -14 22q-78 22 -122 81.5t-44 146.5v130q0 14 8 22t22 8h35q14 0 22 -8t8 -22v-130q0 -30 7.5 -56.5t23.5 -46t40.5 -31t58.5 -11.5t58.5 11.5t40.5 31t23.5 46t7.5 56.5v130q0 14 8 22t22 8h35q14 0 22 -8t8 -22v-130q0 -85 -43 -146
t-118 -81q-8 -2 -11 -8.5t-3 -14.5v-240q0 -14 -8 -22t-22 -8h-35zM157 750q-14 0 -22 8t-8 22v50q0 14 8 22t22 8h35q14 0 22 -8t8 -22v-50q0 -14 -8 -22t-22 -8h-35zM337 750q-14 0 -22 8t-8 22v50q0 14 8 22t22 8h35q14 0 22 -8t8 -22v-50q0 -14 -8 -22t-22 -8h-35z" />
    <glyph glyph-name="Odieresis" unicode="&#xd6;" horiz-adv-x="590" 
d="M530 220q0 -51 -17.5 -93.5t-49 -72.5t-74.5 -47t-94 -17t-94 17t-74.5 47t-49 72.5t-17.5 93.5v240q0 51 17.5 93.5t49 72.5t74.5 47t94 17t94 -17t74.5 -47t49 -72.5t17.5 -93.5v-240zM435 460q0 60 -36 100t-104 40t-104 -40t-36 -100v-240q0 -60 36 -100t104 -40
t104 40t36 100v240zM187 750q-14 0 -22 8t-8 22v50q0 14 8 22t22 8h35q14 0 22 -8t8 -22v-50q0 -14 -8 -22t-22 -8h-35zM367 750q-14 0 -22 8t-8 22v50q0 14 8 22t22 8h35q14 0 22 -8t8 -22v-50q0 -14 -8 -22t-22 -8h-35z" />
    <glyph glyph-name="oacute" unicode="&#xf3;" horiz-adv-x="550" 
d="M275 75q31 0 57.5 12t46 32t30.5 47.5t11 58.5t-11 58.5t-30.5 47.5t-46 32t-57.5 12t-57.5 -12t-46 -32t-30.5 -47.5t-11 -58.5t11 -58.5t30.5 -47.5t46 -32t57.5 -12zM275 -10q-49 0 -91.5 18.5t-74.5 50.5t-50.5 74.5t-18.5 91.5t18.5 91.5t50.5 74.5t74.5 50.5
t91.5 18.5t91.5 -18.5t74.5 -50.5t50.5 -74.5t18.5 -91.5t-18.5 -91.5t-50.5 -74.5t-74.5 -50.5t-91.5 -18.5zM308 529q-8 -10 -19.5 -11t-22.5 7l-20 16q-11 8 -11.5 19.5t7.5 22.5l72 88q9 11 20.5 12t21.5 -8l20 -15q11 -9 12 -20.5t-8 -22.5z" />
    <glyph glyph-name="ograve" unicode="&#xf2;" horiz-adv-x="550" 
d="M275 75q31 0 57.5 12t46 32t30.5 47.5t11 58.5t-11 58.5t-30.5 47.5t-46 32t-57.5 12t-57.5 -12t-46 -32t-30.5 -47.5t-11 -58.5t11 -58.5t30.5 -47.5t46 -32t57.5 -12zM275 -10q-49 0 -91.5 18.5t-74.5 50.5t-50.5 74.5t-18.5 91.5t18.5 91.5t50.5 74.5t74.5 50.5
t91.5 18.5t91.5 -18.5t74.5 -50.5t50.5 -74.5t18.5 -91.5t-18.5 -91.5t-50.5 -74.5t-74.5 -50.5t-91.5 -18.5zM300 525q-11 -8 -22.5 -7t-19.5 11l-72 88q-9 11 -8 22.5t12 20.5l20 15q10 9 21.5 8t20.5 -12l72 -88q8 -11 7.5 -22.5t-11.5 -19.5z" />
    <glyph glyph-name="ocircumflex" unicode="&#xf4;" horiz-adv-x="550" 
d="M275 75q31 0 57.5 12t46 32t30.5 47.5t11 58.5t-11 58.5t-30.5 47.5t-46 32t-57.5 12t-57.5 -12t-46 -32t-30.5 -47.5t-11 -58.5t11 -58.5t30.5 -47.5t46 -32t57.5 -12zM275 -10q-49 0 -91.5 18.5t-74.5 50.5t-50.5 74.5t-18.5 91.5t18.5 91.5t50.5 74.5t74.5 50.5
t91.5 18.5t91.5 -18.5t74.5 -50.5t50.5 -74.5t18.5 -91.5t-18.5 -91.5t-50.5 -74.5t-74.5 -50.5t-91.5 -18.5zM366 537q-10 -8 -21 -6.5t-19 10.5l-35 40q-5 6 -14.5 7t-16.5 -7l-37 -40q-19 -23 -40 -5l-14 11q-10 8 -10.5 19.5t7.5 22.5l60 73q8 11 17.5 13t22.5 2h17
q13 0 22.5 -2t17.5 -13l60 -73q8 -11 7.5 -22.5t-10.5 -19.5z" />
    <glyph glyph-name="odieresis" unicode="&#xf6;" horiz-adv-x="550" 
d="M275 75q31 0 57.5 12t46 32t30.5 47.5t11 58.5t-11 58.5t-30.5 47.5t-46 32t-57.5 12t-57.5 -12t-46 -32t-30.5 -47.5t-11 -58.5t11 -58.5t30.5 -47.5t46 -32t57.5 -12zM275 -10q-49 0 -91.5 18.5t-74.5 50.5t-50.5 74.5t-18.5 91.5t18.5 91.5t50.5 74.5t74.5 50.5
t91.5 18.5t91.5 -18.5t74.5 -50.5t50.5 -74.5t18.5 -91.5t-18.5 -91.5t-50.5 -74.5t-74.5 -50.5t-91.5 -18.5zM167 520q-14 0 -22 8t-8 22v50q0 14 8 22t22 8h35q14 0 22 -8t8 -22v-50q0 -14 -8 -22t-22 -8h-35zM347 520q-14 0 -22 8t-8 22v50q0 14 8 22t22 8h35q14 0 22 -8
t8 -22v-50q0 -14 -8 -22t-22 -8h-35z" />
    <glyph glyph-name="otilde" unicode="&#xf5;" horiz-adv-x="550" 
d="M275 75q31 0 57.5 12t46 32t30.5 47.5t11 58.5t-11 58.5t-30.5 47.5t-46 32t-57.5 12t-57.5 -12t-46 -32t-30.5 -47.5t-11 -58.5t11 -58.5t30.5 -47.5t46 -32t57.5 -12zM275 -10q-49 0 -91.5 18.5t-74.5 50.5t-50.5 74.5t-18.5 91.5t18.5 91.5t50.5 74.5t74.5 50.5
t91.5 18.5t91.5 -18.5t74.5 -50.5t50.5 -74.5t18.5 -91.5t-18.5 -91.5t-50.5 -74.5t-74.5 -50.5t-91.5 -18.5zM409 611q10 -10 9.5 -22t-8.5 -23q-15 -19 -38 -32t-51 -13q-18 0 -30.5 4.5t-22.5 10t-19.5 10t-20.5 4.5q-8 0 -16.5 -4.5t-13.5 -9.5q-12 -12 -21.5 -10
t-20.5 13l-15 15q-10 10 -9.5 23t9.5 24q13 14 35 27t49 13q18 0 30.5 -5t22.5 -11t19.5 -11t20.5 -5q7 0 17 5t15 11q22 23 44 1z" />
    <glyph glyph-name="a" unicode="a" horiz-adv-x="490" 
d="M340 355q0 10 -10 10h-75q-50 0 -77.5 -31t-27.5 -74v-99q0 -38 22.5 -62t62.5 -24q27 0 46.5 9.5t32.5 25.5t19.5 35.5t6.5 40.5v169zM370 0q-14 0 -22 9t-8 20q0 6 -4.5 7.5t-8.5 -3.5q-14 -19 -41.5 -31t-66.5 -12q-35 0 -64 13t-50 37t-33 57.5t-12 73.5v89
q0 39 14 74t39.5 60.5t60.5 40.5t77 15h149q14 0 22 -8t8 -22v-390q0 -14 -8 -22t-22 -8h-30z" />
    <glyph glyph-name="aring" unicode="&#xe5;" horiz-adv-x="490" 
d="M340 355q0 10 -10 10h-75q-50 0 -77.5 -31t-27.5 -74v-99q0 -38 22.5 -62t62.5 -24q27 0 46.5 9.5t32.5 25.5t19.5 35.5t6.5 40.5v169zM370 0q-14 0 -22 9t-8 20q0 6 -4.5 7.5t-8.5 -3.5q-14 -19 -41.5 -31t-66.5 -12q-35 0 -64 13t-50 37t-33 57.5t-12 73.5v89
q0 39 14 74t39.5 60.5t60.5 40.5t77 15h149q14 0 22 -8t8 -22v-390q0 -14 -8 -22t-22 -8h-30zM376 587q0 -41 -27.5 -67t-68.5 -26t-68.5 26t-27.5 67t27.5 67t68.5 26t68.5 -26t27.5 -67zM280 541q19 0 31 13.5t12 32.5t-12 32.5t-31 13.5t-31 -13.5t-12 -32.5t12 -32.5
t31 -13.5z" />
    <glyph glyph-name="atilde" unicode="&#xe3;" horiz-adv-x="490" 
d="M340 355q0 10 -10 10h-75q-50 0 -77.5 -31t-27.5 -74v-99q0 -38 22.5 -62t62.5 -24q27 0 46.5 9.5t32.5 25.5t19.5 35.5t6.5 40.5v169zM370 0q-14 0 -22 9t-8 20q0 6 -4.5 7.5t-8.5 -3.5q-14 -19 -41.5 -31t-66.5 -12q-35 0 -64 13t-50 37t-33 57.5t-12 73.5v89
q0 39 14 74t39.5 60.5t60.5 40.5t77 15h149q14 0 22 -8t8 -22v-390q0 -14 -8 -22t-22 -8h-30zM395 611q10 -10 9.5 -22t-8.5 -23q-15 -19 -38 -32t-51 -13q-18 0 -30.5 4.5t-22.5 10t-19.5 10t-20.5 4.5q-8 0 -16.5 -4.5t-13.5 -9.5q-12 -12 -21.5 -10t-20.5 13l-15 15
q-10 10 -9.5 23t9.5 24q13 14 35 27t49 13q18 0 30.5 -5t22.5 -11t19.5 -11t20.5 -5q7 0 17 5t15 11q22 23 44 1z" />
    <glyph glyph-name="adieresis" unicode="&#xe4;" horiz-adv-x="490" 
d="M340 355q0 10 -10 10h-75q-50 0 -77.5 -31t-27.5 -74v-99q0 -38 22.5 -62t62.5 -24q27 0 46.5 9.5t32.5 25.5t19.5 35.5t6.5 40.5v169zM370 0q-14 0 -22 9t-8 20q0 6 -4.5 7.5t-8.5 -3.5q-14 -19 -41.5 -31t-66.5 -12q-35 0 -64 13t-50 37t-33 57.5t-12 73.5v89
q0 39 14 74t39.5 60.5t60.5 40.5t77 15h149q14 0 22 -8t8 -22v-390q0 -14 -8 -22t-22 -8h-30zM166 520q-14 0 -22 8t-8 22v50q0 14 8 22t22 8h35q14 0 22 -8t8 -22v-50q0 -14 -8 -22t-22 -8h-35zM346 520q-14 0 -22 8t-8 22v50q0 14 8 22t22 8h35q14 0 22 -8t8 -22v-50
q0 -14 -8 -22t-22 -8h-35z" />
    <glyph glyph-name="acircumflex" unicode="&#xe2;" horiz-adv-x="490" 
d="M340 355q0 10 -10 10h-75q-50 0 -77.5 -31t-27.5 -74v-99q0 -38 22.5 -62t62.5 -24q27 0 46.5 9.5t32.5 25.5t19.5 35.5t6.5 40.5v169zM370 0q-14 0 -22 9t-8 20q0 6 -4.5 7.5t-8.5 -3.5q-14 -19 -41.5 -31t-66.5 -12q-35 0 -64 13t-50 37t-33 57.5t-12 73.5v89
q0 39 14 74t39.5 60.5t60.5 40.5t77 15h149q14 0 22 -8t8 -22v-390q0 -14 -8 -22t-22 -8h-30zM363 537q-10 -8 -21 -6.5t-19 10.5l-35 40q-5 6 -14.5 7t-16.5 -7l-37 -40q-19 -23 -40 -5l-14 11q-10 8 -10.5 19.5t7.5 22.5l60 73q8 11 17.5 13t22.5 2h17q13 0 22.5 -2
t17.5 -13l60 -73q8 -11 7.5 -22.5t-10.5 -19.5z" />
    <glyph glyph-name="agrave" unicode="&#xe0;" horiz-adv-x="490" 
d="M340 355q0 10 -10 10h-75q-50 0 -77.5 -31t-27.5 -74v-99q0 -38 22.5 -62t62.5 -24q27 0 46.5 9.5t32.5 25.5t19.5 35.5t6.5 40.5v169zM370 0q-14 0 -22 9t-8 20q0 6 -4.5 7.5t-8.5 -3.5q-14 -19 -41.5 -31t-66.5 -12q-35 0 -64 13t-50 37t-33 57.5t-12 73.5v89
q0 39 14 74t39.5 60.5t60.5 40.5t77 15h149q14 0 22 -8t8 -22v-390q0 -14 -8 -22t-22 -8h-30zM344 525q-11 -8 -22.5 -7t-19.5 11l-72 88q-9 11 -8 22.5t12 20.5l20 15q10 9 21.5 8t20.5 -12l72 -88q8 -11 7.5 -22.5t-11.5 -19.5z" />
    <glyph glyph-name="aacute" unicode="&#xe1;" horiz-adv-x="490" 
d="M340 355q0 10 -10 10h-75q-50 0 -77.5 -31t-27.5 -74v-99q0 -38 22.5 -62t62.5 -24q27 0 46.5 9.5t32.5 25.5t19.5 35.5t6.5 40.5v169zM370 0q-14 0 -22 9t-8 20q0 6 -4.5 7.5t-8.5 -3.5q-14 -19 -41.5 -31t-66.5 -12q-35 0 -64 13t-50 37t-33 57.5t-12 73.5v89
q0 39 14 74t39.5 60.5t60.5 40.5t77 15h149q14 0 22 -8t8 -22v-390q0 -14 -8 -22t-22 -8h-30zM290 529q-8 -10 -19.5 -11t-22.5 7l-20 16q-11 8 -11.5 19.5t7.5 22.5l72 88q9 11 20.5 12t21.5 -8l20 -15q11 -9 12 -20.5t-8 -22.5z" />
    <glyph glyph-name="Eacute" unicode="&#xc9;" horiz-adv-x="530" 
d="M100 0q-14 0 -22 8t-8 22v620q0 14 8 22t22 8h330q14 0 22 -8t8 -22v-30q0 -14 -8 -22t-22 -8h-255q-10 0 -10 -10v-180q0 -10 10 -10h235q14 0 22 -8t8 -22v-30q0 -14 -8 -22t-22 -8h-235q-10 0 -10 -10v-190q0 -10 10 -10h275q14 0 22 -8t8 -22v-30q0 -14 -8 -22
t-22 -8h-350zM283 759q-8 -10 -19.5 -11t-22.5 7l-20 16q-11 8 -11.5 19.5t7.5 22.5l72 88q9 11 20.5 12t21.5 -8l20 -15q11 -9 12 -20.5t-8 -22.5z" />
    <glyph glyph-name="Scaron" unicode="&#x160;" horiz-adv-x="490" 
d="M83 127q10 10 21.5 9t20.5 -9l18 -15.5t23 -15.5t30 -11.5t39 -4.5q48 0 79 26.5t31 66.5q0 45 -27.5 72t-87.5 56q-38 18 -68.5 38t-52.5 45t-33.5 56.5t-11.5 72.5q0 34 13 66t38 56.5t60.5 39.5t79.5 15q57 0 97.5 -22t64.5 -46q21 -21 0 -42l-23 -24
q-10 -10 -19 -10.5t-21 10.5q-13 12 -40 28t-59 16q-22 0 -40.5 -7.5t-32 -19.5t-21 -27.5t-7.5 -32.5q0 -22 6.5 -39t20 -31.5t35 -27.5t52.5 -26q41 -18 73 -38t54 -44.5t33.5 -56t11.5 -72.5q0 -38 -16 -72t-44 -59.5t-65.5 -41t-79.5 -15.5q-68 0 -106.5 20.5
t-67.5 52.5q-8 8 -9 20t9 22zM301 770q-8 -11 -17.5 -13t-22.5 -2h-17q-13 0 -22.5 2t-17.5 13l-60 73q-8 11 -7.5 22.5t10.5 19.5l14 10q10 8 21 6.5t19 -10.5l35 -40q5 -6 14.5 -7t16.5 7l37 40q19 23 40 5l14 -11q10 -8 10.5 -19.5t-7.5 -22.5z" />
    <glyph glyph-name="zcaron" unicode="&#x17e;" horiz-adv-x="395" 
d="M60 0q-14 0 -22 8t-8 22v25q0 22 17 45l182 252q4 5 2 9t-9 4h-152q-14 0 -22 8t-8 22v25q0 14 8 22t22 8h255q14 0 22 -8t8 -22v-25q0 -12 -4.5 -21.5t-14.5 -23.5l-180 -249q-5 -7 -2.5 -11.5t11.5 -4.5h170q14 0 22 -8t8 -22v-25q0 -14 -8 -22t-22 -8h-275zM246 540
q-8 -11 -17.5 -13t-22.5 -2h-17q-13 0 -22.5 2t-17.5 13l-60 73q-8 11 -7.5 22.5t10.5 19.5l14 10q10 8 21 6.5t19 -10.5l35 -40q5 -6 14.5 -7t16.5 7l37 40q19 23 40 5l14 -11q10 -8 10.5 -19.5t-7.5 -22.5z" />
    <glyph glyph-name="Zcaron" unicode="&#x17d;" 
d="M70 0q-14 0 -22 8t-8 22v23q0 12 3.5 22.5t13.5 24.5l326 477q3 5 0.5 9t-9.5 4h-274q-14 0 -22 8t-8 22v30q0 14 8 22t22 8h389q14 0 22 -8t8 -22v-22q0 -12 -5.5 -24t-13.5 -24l-324 -474q-5 -7 -2.5 -11.5t11.5 -4.5h314q14 0 22 -8t8 -22v-30q0 -14 -8 -22t-22 -8
h-429zM333 770q-8 -11 -17.5 -13t-22.5 -2h-17q-13 0 -22.5 2t-17.5 13l-60 73q-8 11 -7.5 22.5t10.5 19.5l14 10q10 8 21 6.5t19 -10.5l35 -40q5 -6 14.5 -7t16.5 7l37 40q19 23 40 5l14 -11q10 -8 10.5 -19.5t-7.5 -22.5z" />
    <glyph glyph-name="ae" unicode="&#xe6;" horiz-adv-x="745" 
d="M675 94q9 -9 8 -20t-9 -21q-9 -10 -23.5 -21t-33.5 -20.5t-42.5 -15.5t-49.5 -6q-25 0 -46.5 4.5t-37.5 12.5q-11 5 -24 -2q-8 -5 -17 -5h-30q-14 0 -22 7.5t-8 18.5q0 6 -4.5 7.5t-8.5 -3.5q-14 -19 -43.5 -29.5t-64.5 -10.5t-64 13t-50 37t-33 57.5t-12 73.5v89
q0 39 14 74t39.5 60.5t60.5 40.5t77 15h149q10 0 18 -5q5 -3 8.5 -3.5t11.5 2.5q17 7 35.5 11.5t41.5 4.5q42 0 75 -14t56.5 -38t36 -56.5t12.5 -68.5v-60q0 -14 -8 -22t-22 -8h-225q-10 0 -10 -10v-18q0 -38 21 -64t74 -26q37 0 58 13.5t32 23.5q23 19 42 0zM340 355
q0 10 -10 10h-75q-50 0 -77.5 -31t-27.5 -74v-99q0 -38 22.5 -62t62.5 -24q25 0 44.5 9t33 24t20.5 34.5t7 40.5v172zM605 283q0 38 -21 65t-69 27q-47 0 -66 -27t-19 -65v-5q0 -10 10 -10h155q10 0 10 10v5z" />
    <glyph glyph-name="partialdiff" unicode="&#x2202;" horiz-adv-x="550" 
d="M275 75q31 0 57.5 12t46 32t30.5 47.5t11 58.5t-11 58.5t-30.5 47.5t-46 32t-57.5 12t-57.5 -12t-46 -32t-30.5 -47.5t-11 -58.5t11 -58.5t30.5 -47.5t46 -32t57.5 -12zM182 623q-16 26 8 42l27 15q13 8 24 6t18 -13l205 -308q20 -30 33 -65t13 -75q0 -49 -18.5 -91.5
t-50.5 -74.5t-74.5 -50.5t-91.5 -18.5t-91.5 18.5t-74.5 50.5t-50.5 74.5t-18.5 91.5t18.5 91.5t50.5 74.5t75 50.5t92 18.5q12 0 6 11z" />
    <glyph glyph-name="eth" unicode="&#xf0;" horiz-adv-x="550" 
d="M265 497q-4 7 -11 2l-55 -36q-23 -14 -38 8l-18 28q-16 22 7 37l55 37q8 5 2 12l-25 38q-16 26 8 42l27 15q13 8 24 6t18 -13l24 -37q5 -8 12 -2l60 39q10 8 20 6t17 -13l19 -28q14 -24 -8 -38l-59 -39q-4 -2 -4 -6.5t2 -6.5l122 -183q20 -30 33 -65t13 -75
q0 -49 -18.5 -91.5t-50.5 -74.5t-74.5 -50.5t-91.5 -18.5t-91.5 18.5t-74.5 50.5t-50.5 74.5t-18.5 91.5t18.5 91.5t50.5 74.5t75 50.5t92 18.5q12 0 6 11zM275 75q31 0 57.5 12t46 32t30.5 47.5t11 58.5t-11 58.5t-30.5 47.5t-46 32t-57.5 12t-57.5 -12t-46 -32
t-30.5 -47.5t-11 -58.5t11 -58.5t30.5 -47.5t46 -32t57.5 -12z" />
    <glyph glyph-name="Eth" unicode="&#xd0;" horiz-adv-x="580" 
d="M100 0q-14 0 -22 8t-8 22v251q0 10 -10 10h-50q-14 0 -22 8t-8 22v30q0 14 8 22t22 8h50q10 0 10 10v259q0 14 8 22t22 8h175q55 0 100.5 -18.5t77.5 -50.5t49.5 -76t17.5 -95v-200q0 -51 -17.5 -95t-49.5 -76t-77.5 -50.5t-100.5 -18.5h-175zM425 440q0 35 -11 63
t-31 47.5t-47.5 29.5t-60.5 10h-100q-10 0 -10 -10v-189q0 -10 10 -10h80q14 0 22 -8t8 -22v-30q0 -14 -8 -22t-22 -8h-80q-10 0 -10 -10v-181q0 -10 10 -10h100q33 0 60.5 10t47.5 29t31 47t11 64v200z" />
    <glyph glyph-name="mu" unicode="&#xb5;" horiz-adv-x="485" 
d="M90 -229q-14 0 -22 8t-8 22v619q0 14 8 22t22 8h30q14 0 22 -8t8 -22v-250q0 -38 22.5 -66.5t70.5 -28.5t70 28.5t22 66.5v250q0 14 8 22t22 8h30q14 0 22 -8t8 -22v-250q0 -36 -13 -69t-36.5 -57.5t-57 -39t-75.5 -14.5q-44 0 -80 17q-5 2 -9 -0.5t-4 -8.5v-197
q0 -14 -8 -22t-22 -8h-30z" />
    <glyph glyph-name="Ntilde" unicode="&#xd1;" horiz-adv-x="605" 
d="M475 0q-14 0 -22.5 7.5t-17.5 22.5l-254 445q-5 8 -10.5 6t-5.5 -10v-441q0 -14 -8 -22t-22 -8h-35q-14 0 -22 8t-8 22v620q0 14 8 22t22 8h39q15 0 25 -5.5t18 -19.5l243 -423q4 -6 9.5 -5t5.5 9v414q0 14 8 22t22 8h35q14 0 22 -8t8 -22v-620q0 -14 -8 -22t-22 -8h-30z
M436 841q10 -10 9.5 -22t-8.5 -23q-15 -19 -38 -32t-51 -13q-18 0 -30.5 4.5t-22.5 10t-19.5 10t-20.5 4.5q-8 0 -16.5 -4.5t-13.5 -9.5q-12 -12 -21.5 -10t-20.5 13l-15 15q-10 10 -9.5 23t9.5 24q13 14 35 27t49 13q18 0 30.5 -5t22.5 -11t19.5 -11t20.5 -5q7 0 17 5
t15 11q22 23 44 1z" />
    <glyph glyph-name="Ccedilla" unicode="&#xc7;" horiz-adv-x="520" 
d="M475 110q10 -10 9 -22t-9 -20q-32 -32 -75 -55t-111 -23q-49 0 -91 17.5t-72.5 49t-48 76t-17.5 97.5v220q0 52 17.5 96.5t48 76t72.5 49.5t91 18q33 0 60 -6.5t49 -16.5t38.5 -22.5t27.5 -23.5q21 -21 0 -42l-23 -23q-10 -10 -19 -10.5t-21 10.5q-13 12 -39.5 28
t-72.5 16q-32 0 -56.5 -11.5t-42 -32t-26.5 -48t-9 -58.5v-220q0 -67 35.5 -108.5t98.5 -41.5q44 0 74.5 16.5t49.5 33.5q9 8 20.5 9t21.5 -9zM204 -230q-28 0 -28 28v12q0 28 28 28h42q10 0 17.5 8t7.5 19t-7.5 19.5t-17.5 8.5h-42q-28 0 -28 28v12q0 28 28 28h33
q21 0 40.5 -6.5t34.5 -18.5t23.5 -30t8.5 -41q0 -46 -31.5 -70.5t-75.5 -24.5h-33z" />
    <glyph glyph-name="Udieresis" unicode="&#xdc;" horiz-adv-x="600" 
d="M440 650q0 14 8 22t22 8h35q14 0 22 -8t8 -22v-430q0 -51 -17.5 -93.5t-49 -72.5t-74.5 -47t-94 -17t-94 17t-74.5 47t-49 72.5t-17.5 93.5v430q0 14 8 22t22 8h35q14 0 22 -8t8 -22v-430q0 -60 36 -100t104 -40t104 40t36 100v430zM192 750q-14 0 -22 8t-8 22v50
q0 14 8 22t22 8h35q14 0 22 -8t8 -22v-50q0 -14 -8 -22t-22 -8h-35zM372 750q-14 0 -22 8t-8 22v50q0 14 8 22t22 8h35q14 0 22 -8t8 -22v-50q0 -14 -8 -22t-22 -8h-35z" />
    <glyph glyph-name="Ugrave" unicode="&#xd9;" horiz-adv-x="600" 
d="M440 650q0 14 8 22t22 8h35q14 0 22 -8t8 -22v-430q0 -51 -17.5 -93.5t-49 -72.5t-74.5 -47t-94 -17t-94 17t-74.5 47t-49 72.5t-17.5 93.5v430q0 14 8 22t22 8h35q14 0 22 -8t8 -22v-430q0 -60 36 -100t104 -40t104 40t36 100v430zM339 755q-11 -8 -22.5 -7t-19.5 11
l-72 88q-9 11 -8 22.5t12 20.5l20 15q10 9 21.5 8t20.5 -12l72 -88q8 -11 7.5 -22.5t-11.5 -19.5z" />
    <glyph glyph-name="Ucircumflex" unicode="&#xdb;" horiz-adv-x="600" 
d="M440 650q0 14 8 22t22 8h35q14 0 22 -8t8 -22v-430q0 -51 -17.5 -93.5t-49 -72.5t-74.5 -47t-94 -17t-94 17t-74.5 47t-49 72.5t-17.5 93.5v430q0 14 8 22t22 8h35q14 0 22 -8t8 -22v-430q0 -60 36 -100t104 -40t104 40t36 100v430zM391 767q-10 -8 -21 -6.5t-19 10.5
l-35 40q-5 6 -14.5 7t-16.5 -7l-37 -40q-19 -23 -40 -5l-14 11q-10 8 -10.5 19.5t7.5 22.5l60 73q8 11 17.5 13t22.5 2h17q13 0 22.5 -2t17.5 -13l60 -73q8 -11 7.5 -22.5t-10.5 -19.5z" />
    <glyph glyph-name="Uacute" unicode="&#xda;" horiz-adv-x="600" 
d="M440 650q0 14 8 22t22 8h35q14 0 22 -8t8 -22v-430q0 -51 -17.5 -93.5t-49 -72.5t-74.5 -47t-94 -17t-94 17t-74.5 47t-49 72.5t-17.5 93.5v430q0 14 8 22t22 8h35q14 0 22 -8t8 -22v-430q0 -60 36 -100t104 -40t104 40t36 100v430zM325 759q-8 -10 -19.5 -11t-22.5 7
l-20 16q-11 8 -11.5 19.5t7.5 22.5l72 88q9 11 20.5 12t21.5 -8l20 -15q11 -9 12 -20.5t-8 -22.5z" />
    <glyph glyph-name="Ecircumflex" unicode="&#xca;" horiz-adv-x="530" 
d="M100 0q-14 0 -22 8t-8 22v620q0 14 8 22t22 8h330q14 0 22 -8t8 -22v-30q0 -14 -8 -22t-22 -8h-255q-10 0 -10 -10v-180q0 -10 10 -10h235q14 0 22 -8t8 -22v-30q0 -14 -8 -22t-22 -8h-235q-10 0 -10 -10v-190q0 -10 10 -10h275q14 0 22 -8t8 -22v-30q0 -14 -8 -22
t-22 -8h-350zM356 767q-10 -8 -21 -6.5t-19 10.5l-35 40q-5 6 -14.5 7t-16.5 -7l-37 -40q-19 -23 -40 -5l-14 11q-10 8 -10.5 19.5t7.5 22.5l60 73q8 11 17.5 13t22.5 2h17q13 0 22.5 -2t17.5 -13l60 -73q8 -11 7.5 -22.5t-10.5 -19.5z" />
    <glyph glyph-name="Edieresis" unicode="&#xcb;" horiz-adv-x="530" 
d="M100 0q-14 0 -22 8t-8 22v620q0 14 8 22t22 8h330q14 0 22 -8t8 -22v-30q0 -14 -8 -22t-22 -8h-255q-10 0 -10 -10v-180q0 -10 10 -10h235q14 0 22 -8t8 -22v-30q0 -14 -8 -22t-22 -8h-235q-10 0 -10 -10v-190q0 -10 10 -10h275q14 0 22 -8t8 -22v-30q0 -14 -8 -22
t-22 -8h-350zM157 750q-14 0 -22 8t-8 22v50q0 14 8 22t22 8h35q14 0 22 -8t8 -22v-50q0 -14 -8 -22t-22 -8h-35zM337 750q-14 0 -22 8t-8 22v50q0 14 8 22t22 8h35q14 0 22 -8t8 -22v-50q0 -14 -8 -22t-22 -8h-35z" />
    <glyph glyph-name="Egrave" unicode="&#xc8;" horiz-adv-x="530" 
d="M100 0q-14 0 -22 8t-8 22v620q0 14 8 22t22 8h330q14 0 22 -8t8 -22v-30q0 -14 -8 -22t-22 -8h-255q-10 0 -10 -10v-180q0 -10 10 -10h235q14 0 22 -8t8 -22v-30q0 -14 -8 -22t-22 -8h-235q-10 0 -10 -10v-190q0 -10 10 -10h275q14 0 22 -8t8 -22v-30q0 -14 -8 -22
t-22 -8h-350zM304 755q-11 -8 -22.5 -7t-19.5 11l-72 88q-9 11 -8 22.5t12 20.5l20 15q10 9 21.5 8t20.5 -12l72 -88q8 -11 7.5 -22.5t-11.5 -19.5z" />
    <glyph glyph-name="Iacute" unicode="&#xcd;" horiz-adv-x="235" 
d="M100 0q-14 0 -22 8t-8 22v620q0 14 8 22t22 8h35q14 0 22 -8t8 -22v-620q0 -14 -8 -22t-22 -8h-35zM158 759q-8 -10 -19.5 -11t-22.5 7l-20 16q-11 8 -11.5 19.5t7.5 22.5l72 88q9 11 20.5 12t21.5 -8l20 -15q11 -9 12 -20.5t-8 -22.5z" />
    <glyph glyph-name="Icircumflex" unicode="&#xce;" horiz-adv-x="235" 
d="M100 0q-14 0 -22 8t-8 22v620q0 14 8 22t22 8h35q14 0 22 -8t8 -22v-620q0 -14 -8 -22t-22 -8h-35zM210 767q-10 -8 -21 -6.5t-19 10.5l-35 40q-5 6 -14.5 7t-16.5 -7l-37 -40q-19 -23 -40 -5l-14 11q-10 8 -10.5 19.5t7.5 22.5l60 73q8 11 17.5 13t22.5 2h17
q13 0 22.5 -2t17.5 -13l60 -73q8 -11 7.5 -22.5t-10.5 -19.5z" />
    <glyph glyph-name="Idieresis" unicode="&#xcf;" horiz-adv-x="235" 
d="M100 0q-14 0 -22 8t-8 22v620q0 14 8 22t22 8h35q14 0 22 -8t8 -22v-620q0 -14 -8 -22t-22 -8h-35zM11 750q-14 0 -22 8t-8 22v50q0 14 8 22t22 8h35q14 0 22 -8t8 -22v-50q0 -14 -8 -22t-22 -8h-35zM191 750q-14 0 -22 8t-8 22v50q0 14 8 22t22 8h35q14 0 22 -8t8 -22
v-50q0 -14 -8 -22t-22 -8h-35z" />
    <glyph glyph-name="Igrave" unicode="&#xcc;" horiz-adv-x="235" 
d="M100 0q-14 0 -22 8t-8 22v620q0 14 8 22t22 8h35q14 0 22 -8t8 -22v-620q0 -14 -8 -22t-22 -8h-35zM143 755q-11 -8 -22.5 -7t-19.5 11l-72 88q-9 11 -8 22.5t12 20.5l20 15q10 9 21.5 8t20.5 -12l72 -88q8 -11 7.5 -22.5t-11.5 -19.5z" />
    <glyph glyph-name="Oacute" unicode="&#xd3;" horiz-adv-x="590" 
d="M530 220q0 -51 -17.5 -93.5t-49 -72.5t-74.5 -47t-94 -17t-94 17t-74.5 47t-49 72.5t-17.5 93.5v240q0 51 17.5 93.5t49 72.5t74.5 47t94 17t94 -17t74.5 -47t49 -72.5t17.5 -93.5v-240zM435 460q0 60 -36 100t-104 40t-104 -40t-36 -100v-240q0 -60 36 -100t104 -40
t104 40t36 100v240zM282 759q-8 -10 -19.5 -11t-22.5 7l-20 16q-11 8 -11.5 19.5t7.5 22.5l72 88q9 11 20.5 12t21.5 -8l20 -15q11 -9 12 -20.5t-8 -22.5z" />
    <glyph glyph-name="Ocircumflex" unicode="&#xd4;" horiz-adv-x="590" 
d="M530 220q0 -51 -17.5 -93.5t-49 -72.5t-74.5 -47t-94 -17t-94 17t-74.5 47t-49 72.5t-17.5 93.5v240q0 51 17.5 93.5t49 72.5t74.5 47t94 17t94 -17t74.5 -47t49 -72.5t17.5 -93.5v-240zM435 460q0 60 -36 100t-104 40t-104 -40t-36 -100v-240q0 -60 36 -100t104 -40
t104 40t36 100v240zM386 767q-10 -8 -21 -6.5t-19 10.5l-35 40q-5 6 -14.5 7t-16.5 -7l-37 -40q-19 -23 -40 -5l-14 11q-10 8 -10.5 19.5t7.5 22.5l60 73q8 11 17.5 13t22.5 2h17q13 0 22.5 -2t17.5 -13l60 -73q8 -11 7.5 -22.5t-10.5 -19.5z" />
    <glyph glyph-name="Ograve" unicode="&#xd2;" horiz-adv-x="590" 
d="M530 220q0 -51 -17.5 -93.5t-49 -72.5t-74.5 -47t-94 -17t-94 17t-74.5 47t-49 72.5t-17.5 93.5v240q0 51 17.5 93.5t49 72.5t74.5 47t94 17t94 -17t74.5 -47t49 -72.5t17.5 -93.5v-240zM435 460q0 60 -36 100t-104 40t-104 -40t-36 -100v-240q0 -60 36 -100t104 -40
t104 40t36 100v240zM400 755q-11 -8 -22.5 -7t-19.5 11l-72 88q-9 11 -8 22.5t12 20.5l20 15q10 9 21.5 8t20.5 -12l72 -88q8 -11 7.5 -22.5t-11.5 -19.5z" />
    <glyph glyph-name="Otilde" unicode="&#xd5;" horiz-adv-x="590" 
d="M530 220q0 -51 -17.5 -93.5t-49 -72.5t-74.5 -47t-94 -17t-94 17t-74.5 47t-49 72.5t-17.5 93.5v240q0 51 17.5 93.5t49 72.5t74.5 47t94 17t94 -17t74.5 -47t49 -72.5t17.5 -93.5v-240zM435 460q0 60 -36 100t-104 40t-104 -40t-36 -100v-240q0 -60 36 -100t104 -40
t104 40t36 100v240zM429 841q10 -10 9.5 -22t-8.5 -23q-15 -19 -38 -32t-51 -13q-18 0 -30.5 4.5t-22.5 10t-19.5 10t-20.5 4.5q-8 0 -16.5 -4.5t-13.5 -9.5q-12 -12 -21.5 -10t-20.5 13l-15 15q-10 10 -9.5 23t9.5 24q13 14 35 27t49 13q18 0 30.5 -5t22.5 -11t19.5 -11
t20.5 -5q7 0 17 5t15 11q22 23 44 1z" />
    <glyph glyph-name="oe" unicode="&#x153;" horiz-adv-x="825" 
d="M755 94q9 -9 8 -20t-9 -21q-9 -10 -23.5 -21t-33.5 -20.5t-42.5 -15.5t-49.5 -6q-51 0 -87 17.5t-59 46.5q-10 13 -24 1q-31 -28 -71.5 -46.5t-88.5 -18.5q-49 0 -91.5 18.5t-74.5 50.5t-50.5 74.5t-18.5 91.5t18.5 91.5t50.5 74.5t74.5 50.5t91.5 18.5t92 -17t71 -51
q3 -4 9 -4.5t9 4.5q21 30 56 49t83 19q42 0 75 -14t56.5 -38t36 -56.5t12.5 -68.5v-60q0 -14 -8 -22t-22 -8h-225q-10 0 -10 -10v-18q0 -38 21 -64t74 -26q37 0 58 13.5t32 23.5q23 19 42 0zM275 75q31 0 57.5 12t46 32t30.5 47.5t11 58.5t-11 58.5t-30.5 47.5t-46 32
t-57.5 12t-57.5 -12t-46 -32t-30.5 -47.5t-11 -58.5t11 -58.5t30.5 -47.5t46 -32t57.5 -12zM685 283q0 38 -21 65t-69 27q-47 0 -66 -27t-19 -65v-5q0 -10 10 -10h155q10 0 10 10v5z" />
    <glyph glyph-name="AE" unicode="&#xc6;" horiz-adv-x="833" 
d="M477 0q-18 0 -36.5 5.5t-41.5 22.5l-186 131q-5 4 -12 0t-10 -10l-58 -125q-13 -24 -38 -24h-55q-14 0 -19 7.5t2 20.5l310 625q7 16 16.5 21.5t23.5 5.5h360q14 0 22 -8t8 -22v-30q0 -14 -8 -22t-22 -8h-225q-10 0 -10 -10v-180q0 -10 10 -10h205q14 0 22 -8t8 -22v-30
q0 -14 -8 -22t-22 -8h-205q-10 0 -10 -10v-190q0 -10 10 -10h245q14 0 22 -8t8 -22v-30q0 -14 -8 -22t-22 -8h-276zM402 553q0 11 -7.5 11t-12.5 -11l-130 -275q-6 -13 -4 -19.5t7 -10.5l128 -88q10 -7 14.5 -1.5t4.5 12.5v382z" />
    <glyph glyph-name="OE" unicode="&#x152;" horiz-adv-x="795" 
d="M305 0q-56 0 -101 18.5t-77 50.5t-49.5 76t-17.5 95v200q0 51 17.5 95t49.5 76t77 50.5t101 18.5h390q14 0 22 -8t8 -22v-30q0 -14 -8 -22t-22 -8h-215q-10 0 -10 -10v-180q0 -10 10 -10h195q14 0 22 -8t8 -22v-30q0 -14 -8 -22t-22 -8h-195q-10 0 -10 -10v-190
q0 -10 10 -10h235q14 0 22 -8t8 -22v-30q0 -14 -8 -22t-22 -8h-410zM375 580q0 10 -10 10h-60q-33 0 -60.5 -10t-47.5 -29t-31 -47t-11 -64v-200q0 -35 11 -63t31 -47.5t47.5 -29.5t60.5 -10h60q10 0 10 10v480z" />
    <glyph glyph-name="plusminus" unicode="&#xb1;" 
d="M268 218q-11 0 -18.5 7t-7.5 19v109q-1 14 -14 15h-110q-26 0 -26 26v39q0 26 26 26h110q13 1 14 15v109q0 12 7.5 18.5t18.5 7.5h34q11 1 19 -6.5t8 -19.5v-110q0 -14 14 -14h109q11 0 19 -7.5t8 -18.5v-39q0 -11 -8 -18.5t-19 -7.5h-109q-14 0 -14 -14v-110
q0 -12 -8 -19.5t-19 -6.5h-34zM122 93q-14 0 -22 8t-8 22v25q0 14 8 22t22 8h327q14 0 22 -8t8 -22v-25q0 -14 -8 -22t-22 -8h-327z" />
    <glyph glyph-name="quotedblbase" unicode="&#x201e;" horiz-adv-x="375" 
d="M43 -26q-24 15 -11 40l83 150q6 11 17.5 14t23.5 -4l30 -18q12 -8 15.5 -18.5t-4.5 -23.5l-96 -140q-7 -11 -18 -14.5t-22 3.5zM182 -26q-24 15 -11 40l83 150q6 11 17.5 14t23.5 -4l30 -18q12 -8 15.5 -18.5t-4.5 -23.5l-96 -140q-7 -11 -18 -14.5t-22 3.5z" />
    <glyph glyph-name="quotesinglbase" unicode="&#x201a;" horiz-adv-x="215" 
d="M38 -26q-24 15 -11 40l83 150q6 11 17.5 14t23.5 -4l30 -18q12 -8 15.5 -18.5t-4.5 -23.5l-96 -140q-7 -11 -18 -14.5t-22 3.5z" />
    <glyph glyph-name="Oslash" unicode="&#xd8;" horiz-adv-x="590" 
d="M98 -22q-18 -23 -42 -7l-25 17q-23 18 -7 42l45 65q12 17 10 25.5t-4 13.5q-15 39 -15 86v240q0 51 17.5 93.5t49 72.5t74.5 47t94 17q78 0 136 -38q5 -3 14.5 -4t16.5 9l32 45q18 23 42 7l25 -17q23 -18 7 -42l-47 -67q-6 -9 -7.5 -20t3.5 -22q8 -18 10.5 -38.5
t2.5 -42.5v-240q0 -51 -17.5 -93.5t-49 -72.5t-74.5 -47t-94 -17q-40 0 -74.5 10.5t-63.5 29.5q-4 2 -11 4.5t-15 -9.5zM386 547q4 5 2.5 13.5t-7.5 14.5q-15 14 -37.5 19.5t-48.5 5.5q-68 0 -104 -40t-36 -100v-211q0 -11 5.5 -13t10.5 4zM435 429q0 11 -6.5 11.5
t-9.5 -3.5l-211 -302q-11 -16 -6 -23t10 -10q35 -22 83 -22q68 0 104 40t36 100v209z" />
    <glyph glyph-name="oslash" unicode="&#xf8;" horiz-adv-x="550" 
d="M145 -34q-8 -11 -19.5 -13t-22.5 6l-24 17q-24 18 -8 42l20 28q13 17 0 33q-24 30 -37.5 67t-13.5 79q0 49 18.5 91.5t50.5 74.5t74.5 50.5t91.5 18.5q18 0 35.5 -2.5t34.5 -8.5q22 -8 33 8l25 35q8 11 19.5 13t22.5 -6l24 -17q24 -18 8 -42l-25 -36q-7 -10 -4.5 -16
t9.5 -14q26 -29 39.5 -67.5t13.5 -81.5q0 -49 -18.5 -91.5t-50.5 -74.5t-74.5 -50.5t-91.5 -18.5q-20 0 -39 3.5t-37 9.5q-6 2 -14.5 4t-19.5 -13zM237 98q-8 -11 -1 -15.5t13 -5.5q7 -2 13 -2h13q31 0 57.5 12t46 32t30.5 47.5t11 58.5q0 20 -4 39t-14 35q-4 7 -11 7.5
t-12 -6.5zM305 352q5 8 3.5 13.5t-9.5 7.5q-7 2 -12.5 2h-11.5q-31 0 -57.5 -12t-46 -32t-30.5 -47.5t-11 -58.5q0 -38 15 -68q2 -5 7.5 -9.5t13.5 6.5z" />
    <glyph glyph-name="Lslash" unicode="&#x141;" horiz-adv-x="493" 
d="M100 0q-14 0 -22 8t-8 22v149q0 11 -4.5 12t-10.5 -5l-11 -11q-10 -10 -21.5 -10t-21.5 10l-17 18q-10 10 -10 21.5t10 20.5l70 71q10 10 13 17.5t3 17.5v309q0 14 8 22t22 8h35q14 0 22 -8t8 -22v-211q0 -11 4.5 -12t10.5 5l11 11q10 10 21.5 10t21.5 -10l17 -18
q10 -10 10 -21.5t-10 -20.5l-70 -71q-10 -10 -13 -17.5t-3 -17.5v-177q0 -10 10 -10h273q14 0 22 -8t8 -22v-30q0 -14 -8 -22t-22 -8h-348z" />
    <glyph glyph-name="lslash" unicode="&#x142;" horiz-adv-x="255" 
d="M191 0q-64 0 -92.5 35t-28.5 95v49q0 11 -4.5 12t-10.5 -5l-11 -11q-10 -10 -21.5 -10t-21.5 10l-17 18q-10 10 -10 21.5t10 20.5l70 71q10 10 13 17.5t3 17.5v309q0 14 8 22t22 8h30q14 0 22 -8t8 -22v-216q0 -11 4.5 -12t10.5 5l11 11q10 10 21.5 10t21.5 -10l17 -18
q10 -10 10 -21.5t-10 -20.5l-70 -71q-10 -10 -13 -17.5t-3 -17.5v-152q0 -16 9 -25.5t26 -9.5h10q14 0 22 -8t8 -22v-25q0 -14 -8 -22t-22 -8h-14z" />
    <glyph glyph-name="alt_A" horiz-adv-x="580" 
d="M491 0q-27 0 -34 24l-44 146q-3 10 -14 10h-218q-11 0 -14 -10l-44 -146q-7 -24 -34 -24h-49q-29 0 -21 28l200 625q5 16 13.5 21.5t22.5 5.5h70q14 0 22.5 -5.5t13.5 -21.5l200 -625q8 -28 -21 -28h-49zM300 553q-3 11 -10 11t-10 -11l-80 -271q-3 -12 9 -12h162
q12 0 9 12z" />
    <glyph glyph-name="alt_G" horiz-adv-x="550" 
d="M420 260q0 10 -10 10h-103q-14 0 -22 8t-8 22v30q0 14 8 22t22 8h178q14 0 22 -8t8 -22v-115q0 -51 -16.5 -92.5t-46.5 -71t-72 -45.5t-93 -16q-49 0 -90.5 17.5t-72 49t-47.5 76t-17 97.5v220q0 52 17.5 96.5t48 76t72.5 49.5t91 18q33 0 60 -6.5t49 -16.5t38.5 -22.5
t27.5 -23.5q21 -21 0 -42l-23 -23q-10 -10 -19 -10.5t-21 10.5q-13 12 -39.5 28t-72.5 16q-63 0 -98.5 -41.5t-35.5 -108.5v-220q0 -67 34.5 -108.5t97.5 -41.5q68 0 100.5 37t32.5 96v47z" />
    <glyph glyph-name="alt_Q" horiz-adv-x="590" 
d="M478 -100q-26 -15 -41 11l-45 77q-5 10 -12 11.5t-16 -0.5q-16 -4 -33.5 -6.5t-35.5 -2.5q-51 0 -94 17t-74.5 47t-49 72.5t-17.5 93.5v240q0 51 17.5 93.5t49 72.5t74.5 47t94 17t94 -17t74.5 -47t49 -72.5t17.5 -93.5v-240q0 -49 -17 -92t-42 -64q-5 -5 -5.5 -14
t3.5 -15l46 -79q7 -12 3.5 -23t-14.5 -18zM283 175q-7 12 -3.5 23t14.5 18l26 15q26 15 41 -11l40 -67q5 -8 11 -7t9 8q5 9 9.5 26t4.5 40v240q0 60 -36 100t-104 40t-104 -40t-36 -100v-240q0 -60 36 -100t104 -40q7 0 13.5 0.5t12.5 1.5q4 1 9 4t-2 14z" />
    <glyph glyph-name="apple" unicode="&#xf8ff;" horiz-adv-x="552" 
d="M421 49q0 -18 -9.5 -34t-26 -28t-39 -19t-48.5 -7q-48 0 -93 21.5t-79.5 60t-55.5 92t-21 118.5q0 49 15 87.5t39.5 65t56 40.5t65.5 14q41 0 68.5 -16t41.5 -40q3 -5 8.5 -5.5t10.5 2.5q28 21 45 46t17 57q0 29 -16.5 49t-48.5 20q-16 0 -28.5 -6t-20.5 -14
q-17 -18 -36 -8q-13 7 -20.5 19.5t-7.5 27.5q0 9 4 21.5t14.5 23.5t27.5 18.5t43 7.5q24 0 47 -9.5t41 -27t29 -42t11 -54.5q0 -7 -0.5 -13.5t-1.5 -11.5q-1 -6 3 -8.5t9 3.5q30 43 35.5 89t5.5 85q0 24 12 38t32 14t34.5 -13.5t14.5 -37.5q0 -31 -14 -68t-42 -75.5t-70 -75
t-97 -67.5q-7 -4 -6 -8t7 -4q24 -1 47 -8t41.5 -21t30 -36.5t11.5 -53.5q0 -54 -39.5 -85.5t-100.5 -38.5q-62 -7 -90 -29t-28 -52q0 -15 9 -27t30 -12q22 0 31 14.5t11 30.5q2 17 14.5 27.5t31.5 10.5q20 0 32.5 -14.5t12.5 -33.5zM203 49q-8 25 -13 58.5t-5 63.5
q0 82 25.5 125.5t63.5 61.5q15 7 5 20q-10 14 -27.5 20.5t-39.5 6.5q-54 0 -88.5 -41.5t-34.5 -109.5q0 -38 8.5 -71t22.5 -60t32.5 -47.5t38.5 -34.5q6 -5 10.5 -3t1.5 11z" />
    <glyph glyph-name="Omega" unicode="&#x2126;" horiz-adv-x="552" 
d="M367 41q20 14 38.5 34.5t32.5 47.5t22.5 60t8.5 71q0 68 -34.5 109.5t-88.5 41.5q-22 0 -39.5 -6.5t-27.5 -20.5q-10 -13 5 -20q19 -9 35 -24t28 -37.5t19 -53.5t7 -72q0 -30 -5 -63.5t-13 -58.5q-3 -9 1.5 -11t10.5 3zM260 -39q-26 0 -48.5 7t-39 19t-26 28t-9.5 34
q0 19 12.5 33.5t32.5 14.5q19 0 31.5 -10.5t14.5 -27.5q2 -16 11 -30.5t31 -14.5q21 0 30 12t9 27q0 30 -28 52t-90 29q-61 7 -100.5 38.5t-39.5 85.5q0 31 11.5 53.5t30 36.5t41.5 21t47 8q6 0 7 4t-6 8q-55 31 -97 67.5t-70 75t-42 75.5t-14 68q0 24 14.5 37.5t34.5 13.5
t32 -14t12 -38q0 -39 5.5 -85t35.5 -89q5 -6 9 -3.5t3 8.5q-1 5 -1.5 11.5t-0.5 13.5q0 30 11 54.5t29 42t41 27t47 9.5q26 0 43.5 -7.5t28 -18.5t15 -23.5t4.5 -21.5q0 -15 -8.5 -29t-21.5 -18q-11 -3 -19.5 -2t-16.5 10q-8 8 -20.5 14t-28.5 6q-32 0 -48.5 -20t-16.5 -49
q0 -32 17 -57t45 -46q5 -3 10.5 -2.5t8.5 5.5q14 24 41.5 40t68.5 16q34 0 65.5 -14t56 -40.5t39.5 -65t15 -87.5q0 -65 -21 -118.5t-55.5 -92t-79.5 -60t-93 -21.5z" />
    <glyph glyph-name="alt_g" horiz-adv-x="480" 
d="M330 355q0 10 -10 10h-95q-35 0 -60 -23.5t-25 -61.5v-110q0 -38 23.5 -61.5t61.5 -23.5h95q10 0 10 10v260zM330 -10q0 10 -10 10h-99q-37 0 -68.5 13t-54 35.5t-35.5 54t-13 67.5v110q0 36 12.5 67.5t35.5 54t55.5 35.5t71.5 13h165q14 0 22 -8t8 -22v-473
q0 -38 -13 -72t-37 -59.5t-58 -40.5t-77 -15q-51 0 -85 10.5t-60 27.5q-11 7 -14.5 18t2.5 22l12 23q13 25 39 12q21 -12 46 -20t60 -8q51 0 73 27.5t22 74.5v43z" />
    <glyph glyph-name="igrave" unicode="&#xec;" horiz-adv-x="230" 
d="M100 0q-14 0 -22 8t-8 22v390q0 14 8 22t22 8h30q14 0 22 -8t8 -22v-390q0 -14 -8 -22t-22 -8h-30zM133 525q-11 -8 -22.5 -7t-19.5 11l-72 88q-9 11 -8 22.5t12 20.5l20 15q10 9 21.5 8t20.5 -12l72 -88q8 -11 7.5 -22.5t-11.5 -19.5z" />
    <glyph glyph-name="iacute" unicode="&#xed;" horiz-adv-x="230" 
d="M100 0q-14 0 -22 8t-8 22v390q0 14 8 22t22 8h30q14 0 22 -8t8 -22v-390q0 -14 -8 -22t-22 -8h-30zM160 529q-8 -10 -19.5 -11t-22.5 7l-20 16q-11 8 -11.5 19.5t7.5 22.5l72 88q9 11 20.5 12t21.5 -8l20 -15q11 -9 12 -20.5t-8 -22.5z" />
    <glyph glyph-name="idieresis" unicode="&#xef;" horiz-adv-x="230" 
d="M100 0q-14 0 -22 8t-8 22v390q0 14 8 22t22 8h30q14 0 22 -8t8 -22v-390q0 -14 -8 -22t-22 -8h-30zM9 520q-14 0 -22 8t-8 22v50q0 14 8 22t22 8h35q14 0 22 -8t8 -22v-50q0 -14 -8 -22t-22 -8h-35zM189 520q-14 0 -22 8t-8 22v50q0 14 8 22t22 8h35q14 0 22 -8t8 -22
v-50q0 -14 -8 -22t-22 -8h-35z" />
    <glyph glyph-name="icircumflex" unicode="&#xee;" horiz-adv-x="230" 
d="M100 0q-14 0 -22 8t-8 22v390q0 14 8 22t22 8h30q14 0 22 -8t8 -22v-390q0 -14 -8 -22t-22 -8h-30zM208 537q-10 -8 -21 -6.5t-19 10.5l-35 40q-5 6 -14.5 7t-16.5 -7l-37 -40q-19 -23 -40 -5l-14 11q-10 8 -10.5 19.5t7.5 22.5l60 73q8 11 17.5 13t22.5 2h17
q13 0 22.5 -2t17.5 -13l60 -73q8 -11 7.5 -22.5t-10.5 -19.5z" />
    <glyph glyph-name="Thorn" unicode="&#xde;" horiz-adv-x="520" 
d="M303 240q20 0 39 7t34 21t24.5 34.5t9.5 47.5t-9.5 47.5t-24.5 34.5t-34 21t-39 7h-128q-10 0 -10 -10v-200q0 -10 10 -10h128zM175 150q-10 0 -10 -10v-110q0 -14 -8 -22t-22 -8h-35q-14 0 -22 8t-8 22v620q0 14 8 22t22 8h35q14 0 22 -8t8 -22v-90q0 -10 10 -10h135
q40 0 76 -16t62 -43.5t41.5 -64t15.5 -76.5q0 -41 -15.5 -77t-41.5 -63.5t-62 -43.5t-76 -16h-135z" />
    <glyph glyph-name="g" unicode="g" horiz-adv-x="443" 
d="M235 205q17 0 32.5 6.5t27 18t18.5 27t7 33.5t-7 33.5t-18.5 27t-27 18t-32.5 6.5t-32.5 -6.5t-27 -18t-18.5 -27t-7 -33.5t7 -33.5t18.5 -27t27 -18t32.5 -6.5zM280 -171q-17 22 8 41q13 9 22 22.5t9 36.5q0 32 -24.5 51.5t-62.5 19.5h-172q-14 0 -22 8t-8 22v25
q0 22 17 45l47 65q5 8 3.5 16t-5.5 13q-15 20 -23.5 45t-8.5 51q0 35 14.5 66t38.5 54t55.5 36.5t66.5 13.5q10 0 20.5 -1t24.5 -6q14 -4 20 -1t11 10l32 43q8 11 19.5 12.5t22.5 -6.5l20 -14q11 -8 12.5 -19.5t-6.5 -22.5l-32 -43q-5 -8 -2 -17t8 -17q25 -41 25 -88
q0 -35 -14.5 -66t-38.5 -53.5t-55.5 -35.5t-66.5 -13q-14 0 -26 2t-21 4q-8 2 -15 0.5t-12 -9.5l-16 -22q-9 -14 9 -14h77q36 0 68.5 -11t57 -31t38.5 -48.5t14 -63.5q0 -51 -21.5 -82t-46.5 -48q-11 -7 -22 -4.5t-19 11.5z" />
    <glyph glyph-name="alt_Aacute" horiz-adv-x="580" 
d="M491 0q-27 0 -34 24l-44 146q-3 10 -14 10h-218q-11 0 -14 -10l-44 -146q-7 -24 -34 -24h-49q-29 0 -21 28l200 625q5 16 13.5 21.5t22.5 5.5h70q14 0 22.5 -5.5t13.5 -21.5l200 -625q8 -28 -21 -28h-49zM300 553q-3 11 -10 11t-10 -11l-80 -271q-3 -12 9 -12h162
q12 0 9 12zM340 759q-8 -10 -19.5 -11t-22.5 7l-20 16q-11 8 -11.5 19.5t7.5 22.5l72 88q9 11 20.5 12t21.5 -8l20 -15q11 -9 12 -20.5t-8 -22.5z" />
    <glyph glyph-name="alt_Agrave" horiz-adv-x="580" 
d="M491 0q-27 0 -34 24l-44 146q-3 10 -14 10h-218q-11 0 -14 -10l-44 -146q-7 -24 -34 -24h-49q-29 0 -21 28l200 625q5 16 13.5 21.5t22.5 5.5h70q14 0 22.5 -5.5t13.5 -21.5l200 -625q8 -28 -21 -28h-49zM300 553q-3 11 -10 11t-10 -11l-80 -271q-3 -12 9 -12h162
q12 0 9 12zM303 755q-11 -8 -22.5 -7t-19.5 11l-72 88q-9 11 -8 22.5t12 20.5l20 15q10 9 21.5 8t20.5 -12l72 -88q8 -11 7.5 -22.5t-11.5 -19.5z" />
    <glyph glyph-name="alt_Acircumflex" horiz-adv-x="580" 
d="M491 0q-27 0 -34 24l-44 146q-3 10 -14 10h-218q-11 0 -14 -10l-44 -146q-7 -24 -34 -24h-49q-29 0 -21 28l200 625q5 16 13.5 21.5t22.5 5.5h70q14 0 22.5 -5.5t13.5 -21.5l200 -625q8 -28 -21 -28h-49zM300 553q-3 11 -10 11t-10 -11l-80 -271q-3 -12 9 -12h162
q12 0 9 12zM381 767q-10 -8 -21 -6.5t-19 10.5l-35 40q-5 6 -14.5 7t-16.5 -7l-37 -40q-19 -23 -40 -5l-14 11q-10 8 -10.5 19.5t7.5 22.5l60 73q8 11 17.5 13t22.5 2h17q13 0 22.5 -2t17.5 -13l60 -73q8 -11 7.5 -22.5t-10.5 -19.5z" />
    <glyph glyph-name="alt_Adieresis" horiz-adv-x="580" 
d="M491 0q-27 0 -34 24l-44 146q-3 10 -14 10h-218q-11 0 -14 -10l-44 -146q-7 -24 -34 -24h-49q-29 0 -21 28l200 625q5 16 13.5 21.5t22.5 5.5h70q14 0 22.5 -5.5t13.5 -21.5l200 -625q8 -28 -21 -28h-49zM300 553q-3 11 -10 11t-10 -11l-80 -271q-3 -12 9 -12h162
q12 0 9 12zM182 750q-14 0 -22 8t-8 22v50q0 14 8 22t22 8h35q14 0 22 -8t8 -22v-50q0 -14 -8 -22t-22 -8h-35zM362 750q-14 0 -22 8t-8 22v50q0 14 8 22t22 8h35q14 0 22 -8t8 -22v-50q0 -14 -8 -22t-22 -8h-35z" />
    <glyph glyph-name="alt_Atilde" horiz-adv-x="580" 
d="M491 0q-27 0 -34 24l-44 146q-3 10 -14 10h-218q-11 0 -14 -10l-44 -146q-7 -24 -34 -24h-49q-29 0 -21 28l200 625q5 16 13.5 21.5t22.5 5.5h70q14 0 22.5 -5.5t13.5 -21.5l200 -625q8 -28 -21 -28h-49zM300 553q-3 11 -10 11t-10 -11l-80 -271q-3 -12 9 -12h162
q12 0 9 12zM424 841q10 -10 9.5 -22t-8.5 -23q-15 -19 -38 -32t-51 -13q-18 0 -30.5 4.5t-22.5 10t-19.5 10t-20.5 4.5q-8 0 -16.5 -4.5t-13.5 -9.5q-12 -12 -21.5 -10t-20.5 13l-15 15q-10 10 -9.5 23t9.5 24q13 14 35 27t49 13q18 0 30.5 -5t22.5 -11t19.5 -11t20.5 -5
q7 0 17 5t15 11q22 23 44 1z" />
    <glyph glyph-name="alt_Aring" horiz-adv-x="580" 
d="M491 0q-27 0 -34 24l-44 146q-3 10 -14 10h-218q-11 0 -14 -10l-44 -146q-7 -24 -34 -24h-49q-29 0 -21 28l200 625q5 16 13.5 21.5t22.5 5.5h70q14 0 22.5 -5.5t13.5 -21.5l200 -625q8 -28 -21 -28h-49zM300 553q-3 11 -10 11t-10 -11l-80 -271q-3 -12 9 -12h162
q12 0 9 12zM386 817q0 -41 -27.5 -67t-68.5 -26t-68.5 26t-27.5 67t27.5 67t68.5 26t68.5 -26t27.5 -67zM290 771q19 0 31 13.5t12 32.5t-12 32.5t-31 13.5t-31 -13.5t-12 -32.5t12 -32.5t31 -13.5z" />
    <glyph glyph-name="alt_AE" horiz-adv-x="751" 
d="M371 0q-14 0 -22 8t-8 22v254q0 16 -16 16h-86q-19 0 -24 -12l-97 -264q-8 -24 -37 -24h-42q-14 0 -18.5 7.5t0.5 20.5l248 625q6 15 15 21t23 6h344q14 0 22 -8t8 -22v-30q0 -14 -8 -22t-22 -8h-205q-10 0 -10 -10v-180q0 -10 10 -10h185q14 0 22 -8t8 -22v-30
q0 -14 -8 -22t-22 -8h-185q-10 0 -10 -10v-190q0 -10 10 -10h225q14 0 22 -8t8 -22v-30q0 -14 -8 -22t-22 -8h-300zM341 558q0 6 -8 7.5t-12 -7.5l-57 -150q-4 -9 -0.5 -13.5t10.5 -4.5h51q16 0 16 14v154z" />
    <glyph glyph-name="alt_a" horiz-adv-x="420" 
d="M168 0q-32 0 -56.5 10.5t-41.5 28.5t-26 42t-9 51t9.5 51t27 42.5t43.5 29t59 10.5h86q10 0 10 10v15q0 35 -16 55t-54 20h-81q-14 0 -22 8t-8 22v25q0 14 8 22t22 8h90q75 0 113 -41t38 -114v-265q0 -14 -8 -22t-22 -8h-162zM270 170q0 10 -10 10h-81q-27 0 -40.5 -14
t-13.5 -34t11 -33.5t33 -13.5h91q10 0 10 10v75z" />
    <glyph glyph-name="alt_aacute" horiz-adv-x="420" 
d="M168 0q-32 0 -56.5 10.5t-41.5 28.5t-26 42t-9 51t9.5 51t27 42.5t43.5 29t59 10.5h86q10 0 10 10v15q0 35 -16 55t-54 20h-81q-14 0 -22 8t-8 22v25q0 14 8 22t22 8h90q75 0 113 -41t38 -114v-265q0 -14 -8 -22t-22 -8h-162zM270 170q0 10 -10 10h-81q-27 0 -40.5 -14
t-13.5 -34t11 -33.5t33 -13.5h91q10 0 10 10v75zM242 529q-8 -10 -19.5 -11t-22.5 7l-20 16q-11 8 -11.5 19.5t7.5 22.5l72 88q9 11 20.5 12t21.5 -8l20 -15q11 -9 12 -20.5t-8 -22.5z" />
    <glyph glyph-name="alt_agrave" horiz-adv-x="420" 
d="M168 0q-32 0 -56.5 10.5t-41.5 28.5t-26 42t-9 51t9.5 51t27 42.5t43.5 29t59 10.5h86q10 0 10 10v15q0 35 -16 55t-54 20h-81q-14 0 -22 8t-8 22v25q0 14 8 22t22 8h90q75 0 113 -41t38 -114v-265q0 -14 -8 -22t-22 -8h-162zM270 170q0 10 -10 10h-81q-27 0 -40.5 -14
t-13.5 -34t11 -33.5t33 -13.5h91q10 0 10 10v75zM261 525q-11 -8 -22.5 -7t-19.5 11l-72 88q-9 11 -8 22.5t12 20.5l20 15q10 9 21.5 8t20.5 -12l72 -88q8 -11 7.5 -22.5t-11.5 -19.5z" />
    <glyph glyph-name="alt_acircumflex" horiz-adv-x="420" 
d="M168 0q-32 0 -56.5 10.5t-41.5 28.5t-26 42t-9 51t9.5 51t27 42.5t43.5 29t59 10.5h86q10 0 10 10v15q0 35 -16 55t-54 20h-81q-14 0 -22 8t-8 22v25q0 14 8 22t22 8h90q75 0 113 -41t38 -114v-265q0 -14 -8 -22t-22 -8h-162zM270 170q0 10 -10 10h-81q-27 0 -40.5 -14
t-13.5 -34t11 -33.5t33 -13.5h91q10 0 10 10v75zM300 537q-10 -8 -21 -6.5t-19 10.5l-35 40q-5 6 -14.5 7t-16.5 -7l-37 -40q-19 -23 -40 -5l-14 11q-10 8 -10.5 19.5t7.5 22.5l60 73q8 11 17.5 13t22.5 2h17q13 0 22.5 -2t17.5 -13l60 -73q8 -11 7.5 -22.5t-10.5 -19.5z
" />
    <glyph glyph-name="alt_adieresis" horiz-adv-x="420" 
d="M168 0q-32 0 -56.5 10.5t-41.5 28.5t-26 42t-9 51t9.5 51t27 42.5t43.5 29t59 10.5h86q10 0 10 10v15q0 35 -16 55t-54 20h-81q-14 0 -22 8t-8 22v25q0 14 8 22t22 8h90q75 0 113 -41t38 -114v-265q0 -14 -8 -22t-22 -8h-162zM270 170q0 10 -10 10h-81q-27 0 -40.5 -14
t-13.5 -34t11 -33.5t33 -13.5h91q10 0 10 10v75zM119 520q-14 0 -22 8t-8 22v50q0 14 8 22t22 8h35q14 0 22 -8t8 -22v-50q0 -14 -8 -22t-22 -8h-35zM279 520q-14 0 -22 8t-8 22v50q0 14 8 22t22 8h35q14 0 22 -8t8 -22v-50q0 -14 -8 -22t-22 -8h-35z" />
    <glyph glyph-name="alt_atilde" horiz-adv-x="420" 
d="M168 0q-32 0 -56.5 10.5t-41.5 28.5t-26 42t-9 51t9.5 51t27 42.5t43.5 29t59 10.5h86q10 0 10 10v15q0 35 -16 55t-54 20h-81q-14 0 -22 8t-8 22v25q0 14 8 22t22 8h90q75 0 113 -41t38 -114v-265q0 -14 -8 -22t-22 -8h-162zM270 170q0 10 -10 10h-81q-27 0 -40.5 -14
t-13.5 -34t11 -33.5t33 -13.5h91q10 0 10 10v75zM348 611q10 -10 9.5 -22t-8.5 -23q-15 -19 -38 -32t-51 -13q-18 0 -30.5 4.5t-22.5 10t-19.5 10t-20.5 4.5q-8 0 -16.5 -4.5t-13.5 -9.5q-12 -12 -21.5 -10t-20.5 13l-15 15q-10 10 -9.5 23t9.5 24q13 14 35 27t49 13
q18 0 30.5 -5t22.5 -11t19.5 -11t20.5 -5q7 0 17 5t15 11q22 23 44 1z" />
    <glyph glyph-name="alt_aring" horiz-adv-x="420" 
d="M168 0q-32 0 -56.5 10.5t-41.5 28.5t-26 42t-9 51t9.5 51t27 42.5t43.5 29t59 10.5h86q10 0 10 10v15q0 35 -16 55t-54 20h-81q-14 0 -22 8t-8 22v25q0 14 8 22t22 8h90q75 0 113 -41t38 -114v-265q0 -14 -8 -22t-22 -8h-162zM270 170q0 10 -10 10h-81q-27 0 -40.5 -14
t-13.5 -34t11 -33.5t33 -13.5h91q10 0 10 10v75zM313 587q0 -41 -27.5 -67t-68.5 -26t-68.5 26t-27.5 67t27.5 67t68.5 26t68.5 -26t27.5 -67zM217 541q19 0 31 13.5t12 32.5t-12 32.5t-31 13.5t-31 -13.5t-12 -32.5t12 -32.5t31 -13.5z" />
    <glyph glyph-name="alt_ae" horiz-adv-x="675" 
d="M605 98q9 -9 8.5 -20t-8.5 -21q-20 -25 -59 -46t-93 -21q-27 0 -49.5 5t-36.5 15q-15 9 -25 -1q-9 -9 -22 -9h-152q-32 0 -56.5 10.5t-41.5 28.5t-26 42t-9 51t9.5 51t27 42.5t43.5 29t59 10.5h86q10 0 10 10v15q0 35 -16 55t-54 20h-81q-14 0 -22 8t-8 22v25q0 14 8 22
t22 8h90q67 0 102 -35q8 -8 16 0q22 22 51 33.5t67 11.5q42 0 75 -14t56.5 -38t36 -56.5t12.5 -68.5v-73q0 -14 -8 -22t-22 -8h-225q-10 0 -10 -10v-5q0 -38 22.5 -64t70.5 -26q38 0 59 13.5t32 25.5q11 11 22 10.5t20 -9.5zM535 283q0 38 -21 65t-69 27q-47 0 -66 -27
t-19 -65v-18q0 -10 10 -10h155q10 0 10 10v18zM270 170q0 10 -10 10h-81q-27 0 -40.5 -14t-13.5 -34t11 -33.5t33 -13.5h91q10 0 10 10v75z" />
    </font>
</defs>
</svg>
